<?xml version="1.0" encoding="UTF-8"?>
<svg width="26px" height="26px" viewBox="0 0 26 26" version="1.1" xmlns="http://www.w3.org/2000/svg" xmlns:xlink="http://www.w3.org/1999/xlink">
    <!-- Generator: Sketch 54.1 (76490) - https://sketchapp.com -->
    <title>Group 13</title>
    <desc>Created with Sketch.</desc>
    <g id="Movie-Financing" stroke="none" stroke-width="1" fill="none" fill-rule="evenodd">
        <g id="Settings" transform="translate(-419.000000, -2424.000000)" fill="#1A48F5" fill-rule="nonzero">
            <g id="Group-4-Copy-12" transform="translate(391.000000, 2405.000000)">
                <g id="Group-13" transform="translate(28.000000, 19.000000)">
                    <path d="M13,0 C5.83375,0 0,5.83375 0,13 C0,20.16625 5.83375,26 13,26 C20.16625,26 26,20.16625 26,13 C26,5.83375 20.16625,0 13,0 Z" id="Shape" fill-opacity="0.15"></path>
                    <path d="M8.24428571,8.87571429 L12.8933333,10.8690476 L8.23809524,10.25 L8.24428571,8.87571429 L8.24428571,8.87571429 Z M12.8871429,14.2738095 L8.23809524,16.2671429 L8.23809524,14.8928571 L12.8871429,14.2738095 L12.8871429,14.2738095 Z M7.00619048,7 L7,11.3333333 L16.2857143,12.5714286 L7,13.8095238 L7.00619048,18.1428571 L20,12.5714286 L7.00619048,7 Z" id="Shape"></path>
                </g>
            </g>
        </g>
    </g>
</svg>