<?xml version="1.0" encoding="UTF-8"?>
<svg width="26px" height="26px" viewBox="0 0 26 26" version="1.1" xmlns="http://www.w3.org/2000/svg" xmlns:xlink="http://www.w3.org/1999/xlink">
    <!-- Generator: Sketch 54.1 (76490) - https://sketchapp.com -->
    <title>Group 13</title>
    <desc>Created with Sketch.</desc>
    <g id="Movie-Financing" stroke="none" stroke-width="1" fill="none" fill-rule="evenodd">
        <g id="Settings" transform="translate(-419.000000, -2351.000000)" fill="#1A48F5" fill-rule="nonzero">
            <g id="Group-4-Copy-11" transform="translate(391.000000, 2332.000000)">
                <g id="Group-13" transform="translate(28.000000, 19.000000)">
                    <path d="M13,0 C5.83375,0 0,5.83375 0,13 C0,20.16625 5.83375,26 13,26 C20.16625,26 26,20.16625 26,13 C26,5.83375 20.16625,0 13,0 Z" id="Shape" fill-opacity="0.15"></path>
                    <path d="M19.0000005,12.6183335 L6,12.6111112 L6,14.0555557 L19.0000005,14.0555557 L19.0000005,12.6183335 Z M6,16.2222225 L14.666667,16.2222225 L14.666667,17.666667 L6,17.666667 L6,16.2222225 Z M19,9 L6,9 L6,10.4516667 L19.0000005,10.4444445 L19,9 Z" id="Shape"></path>
                </g>
            </g>
        </g>
    </g>
</svg>