<?xml version="1.0" encoding="UTF-8"?>
<svg width="26px" height="26px" viewBox="0 0 26 26" version="1.1" xmlns="http://www.w3.org/2000/svg" xmlns:xlink="http://www.w3.org/1999/xlink">
    <!-- Generator: Sketch 54.1 (76490) - https://sketchapp.com -->
    <title>download</title>
    <desc>Created with Sketch.</desc>
    <g id="Movie-Financing" stroke="none" stroke-width="1" fill="none" fill-rule="evenodd">
        <g id="Settings-Copy" transform="translate(-747.000000, -2354.000000)" fill="#1A48F5" fill-rule="nonzero">
            <g id="Group-4-Copy-12" transform="translate(391.000000, 2324.000000)">
                <g id="Group-8" transform="translate(356.000000, 30.000000)">
                    <g id="download">
                        <path d="M13,0 C5.83375,0 0,5.83375 0,13 C0,20.16625 5.83375,26 13,26 C20.16625,26 26,20.16625 26,13 C26,5.83375 20.16625,0 13,0 Z" id="Shape" fill-opacity="0.15"></path>
                        <path d="M17.7775,10.8593333 C17.3355,8.61683333 15.366,6.93333333 13,6.93333333 C11.1215,6.93333333 9.49,7.99933333 8.6775,9.55933333 C6.721,9.76733333 5.2,11.4248333 5.2,13.4333333 C5.2,15.5848333 6.9485,17.3333333 9.1,17.3333333 L17.55,17.3333333 C19.344,17.3333333 20.8,15.8773333 20.8,14.0833333 C20.8,12.3673333 19.4675,10.9763333 17.7775,10.8593333 Z M17.55,16.0333333 L9.1,16.0333333 C7.6635,16.0333333 6.5,14.8698333 6.5,13.4333333 C6.5,12.1008333 7.4945,10.9893333 8.814,10.8528333 L9.5095,10.7813333 L9.8345,10.1638333 C10.452,8.97433333 11.661,8.23333333 13,8.23333333 C14.703,8.23333333 16.172,9.44233333 16.5035,11.1128333 L16.6985,12.0878333 L17.693,12.1593333 C18.707,12.2243333 19.5,13.0758333 19.5,14.0833333 C19.5,15.1558333 18.6225,16.0333333 17.55,16.0333333 Z M10.4,12.7833333 L12.0575,12.7833333 L12.0575,14.7333333 L13.9425,14.7333333 L13.9425,12.7833333 L15.6,12.7833333 L13,10.1833333 L10.4,12.7833333 Z" id="Shape"></path>
                    </g>
                </g>
            </g>
        </g>
    </g>
</svg>