<?xml version="1.0" encoding="UTF-8"?>
<svg width="26px" height="26px" viewBox="0 0 26 26" version="1.1" xmlns="http://www.w3.org/2000/svg" xmlns:xlink="http://www.w3.org/1999/xlink">
    <!-- Generator: Sketch 54.1 (76490) - https://sketchapp.com -->
    <title>Group 13</title>
    <desc>Created with Sketch.</desc>
    <g id="Movie-Financing" stroke="none" stroke-width="1" fill="none" fill-rule="evenodd">
        <g id="Settings" transform="translate(-419.000000, -2570.000000)" fill="#008BD2" fill-rule="nonzero">
            <g id="Group-4-Copy-14" transform="translate(391.000000, 2551.000000)">
                <g id="Group-13" transform="translate(28.000000, 19.000000)">
                    <path d="M13,0 C5.83375,0 0,5.83375 0,13 C0,20.16625 5.83375,26 13,26 C20.16625,26 26,20.16625 26,13 C26,5.83375 20.16625,0 13,0 Z" id="Shape" fill-opacity="0.15"></path>
                    <path d="M13.1066667,9.46666667 C15.886,9.46666667 18.3646667,11.0286667 19.5746667,13.5 C18.3646667,15.9713333 15.8933333,17.5333333 13.1066667,17.5333333 C10.32,17.5333333 7.84866667,15.9713333 6.63866667,13.5 C7.84866667,11.0286667 10.3273333,9.46666667 13.1066667,9.46666667 L13.1066667,9.46666667 Z M13.1066667,8 C9.44,8 6.30866667,10.2806667 5.04,13.5 C6.30866667,16.7193333 9.44,19 13.1066667,19 C16.7733333,19 19.9046667,16.7193333 21.1733333,13.5 C19.9046667,10.2806667 16.7733333,8 13.1066667,8 Z M13.1066667,11.6666667 C14.1186667,11.6666667 14.94,12.488 14.94,13.5 C14.94,14.512 14.1186667,15.3333333 13.1066667,15.3333333 C12.0946667,15.3333333 11.2733333,14.512 11.2733333,13.5 C11.2733333,12.488 12.0946667,11.6666667 13.1066667,11.6666667 L13.1066667,11.6666667 Z M13.1066667,10.2 C11.288,10.2 9.80666667,11.6813333 9.80666667,13.5 C9.80666667,15.3186667 11.288,16.8 13.1066667,16.8 C14.9253333,16.8 16.4066667,15.3186667 16.4066667,13.5 C16.4066667,11.6813333 14.9253333,10.2 13.1066667,10.2 Z" id="Shape"></path>
                </g>
            </g>
        </g>
    </g>
</svg>