<svg width="15" height="15" viewBox="0 0 15 15" fill="none" xmlns="http://www.w3.org/2000/svg">
<path opacity="0.3" d="M7.5 1C3.91687 1 1 3.91687 1 7.5C1 11.0831 3.91687 14 7.5 14C11.0831 14 14 11.0831 14 7.5C14 3.91687 11.0831 1 7.5 1Z" fill="#30D19F"/>
<path fill-rule="evenodd" clip-rule="evenodd" d="M0 7.5C0 3.36 3.36 0 7.5 0C11.64 0 15 3.36 15 7.5C15 11.64 11.64 15 7.5 15C3.36 15 0 11.64 0 7.5ZM1.5 7.5C1.5 10.8075 4.1925 13.5 7.5 13.5C10.8075 13.5 13.5 10.8075 13.5 7.5C13.5 4.1925 10.8075 1.5 7.5 1.5C4.1925 1.5 1.5 4.1925 1.5 7.5Z" fill="#30D19F"/>
<path fill-rule="evenodd" clip-rule="evenodd" d="M10 6.1C10.33 6.1 10.6 6.37 10.6 6.7V7.3C10.6 7.378 10.585 7.45 10.558 7.519L9.652 9.634C9.562 9.85 9.349 10 9.1 10H6.4C6.07 10 5.8 9.73 5.8 9.4V6.4C5.8 6.235 5.866 6.085 5.977 5.977L7.951 4L8.269 4.315C8.35 4.396 8.401 4.51 8.401 4.633L8.392 4.729L8.107 6.1H10ZM5.2 10H4V6.4H5.2V10Z" fill="#30D19F"/>
</svg>
