<?xml version="1.0" encoding="UTF-8"?>
<svg width="19px" height="16px" viewBox="0 0 19 16" version="1.1" xmlns="http://www.w3.org/2000/svg" xmlns:xlink="http://www.w3.org/1999/xlink">
    <!-- Generator: Sketch 55.2 (78181) - https://sketchapp.com -->
    <title>acceptmember</title>
    <desc>Created with Sketch.</desc>
    <g id="Page-1" stroke="none" stroke-width="1" fill="none" fill-rule="evenodd">
        <g id="5.4-orga-teamwork" transform="translate(-1109.000000, -316.000000)" fill="#5F697A" fill-rule="nonzero">
            <g id="Group-6-Copy" transform="translate(164.000000, 288.000000)">
                <g id="Group-11" transform="translate(938.000000, 20.000000)">
                    <path d="M14.7575758,15.7575758 C16.9006061,15.7575758 18.6363636,14.0218182 18.6363636,11.8787879 C18.6363636,9.73575758 16.9006061,8 14.7575758,8 C12.6145455,8 10.8787879,9.73575758 10.8787879,11.8787879 C10.8787879,14.0218182 12.6145455,15.7575758 14.7575758,15.7575758 Z M14.7575758,9.93939394 C15.8242424,9.93939394 16.6969697,10.8121212 16.6969697,11.8787879 C16.6969697,12.9454545 15.8242424,13.8181818 14.7575758,13.8181818 C13.6909091,13.8181818 12.8181818,12.9454545 12.8181818,11.8787879 C12.8181818,10.8121212 13.6909091,9.93939394 14.7575758,9.93939394 Z M8.93939394,21.5757576 C9.13333333,20.9648485 11.4315152,19.9466667 13.7490909,19.6945455 L15.7272727,17.7551515 C15.3490909,17.7163636 15.0678788,17.6969697 14.7575758,17.6969697 C12.1684848,17.6969697 7,18.9963636 7,21.5757576 L7,23.5151515 L15.7272727,23.5151515 L13.7878788,21.5757576 L8.93939394,21.5757576 Z M24.0666667,16.2424242 L19.0921212,21.2557576 L17.0848485,19.2387879 L15.7272727,20.6060606 L19.0921212,24 L25.4242424,17.609697 L24.0666667,16.2424242 Z" id="acceptmember"/>
                </g>
            </g>
        </g>
    </g>
</svg>