<?xml version="1.0" encoding="UTF-8"?>
<svg width="24px" height="24px" viewBox="0 0 24 24" version="1.1" xmlns="http://www.w3.org/2000/svg" xmlns:xlink="http://www.w3.org/1999/xlink">
    <!-- Generator: Sketch 56.3 (81716) - https://sketch.com -->
    <title>icon/40px/Blank</title>
    <desc>Created with Sketch.</desc>
    <g id="Icons" stroke="none" stroke-width="1" fill="none" fill-rule="evenodd">
        <g id="Artboard" transform="translate(-582.000000, -1269.000000)" fill="#5F697A" fill-rule="nonzero">
            <g id="Group-2-Copy-25" transform="translate(574.000000, 1261.000000)">
                <g id="icon/40px/Blank">
                    <path d="M25.6842105,21.8947368 L28.2105263,21.8947368 L28.2105263,25.6842105 L32,25.6842105 L32,28.2105263 L28.2105263,28.2105263 L28.2105263,32 L25.6842105,32 L25.6842105,28.2105263 L21.8947368,28.2105263 L21.8947368,25.6842105 L25.6842105,25.6842105 L25.6842105,21.8947368 L25.6842105,21.8947368 Z M10.5263158,8 L28.2105263,8 C29.6126316,8 30.7368421,9.12421053 30.7368421,10.5263158 L30.7368421,20.3789474 C29.9663158,19.9368421 29.12,19.6210526 28.2105263,19.4694737 L28.2105263,10.5263158 L10.5263158,10.5263158 L10.5263158,28.2105263 L19.4694737,28.2105263 C19.6210526,29.12 19.9368421,29.9663158 20.3789474,30.7368421 L10.5263158,30.7368421 C9.12421053,30.7368421 8,29.6126316 8,28.2105263 L8,10.5263158 C8,9.12421053 9.12421053,8 10.5263158,8 L10.5263158,8 Z M13.0526316,13.0526316 L25.6842105,13.0526316 L25.6842105,15.5789474 L13.0526316,15.5789474 L13.0526316,13.0526316 L13.0526316,13.0526316 Z M13.0526316,18.1052632 L25.6842105,18.1052632 L25.6842105,19.4694737 C24.6105263,19.6463158 23.6252632,20.0505263 22.7536842,20.6315789 L13.0526316,20.6315789 L13.0526316,18.1052632 L13.0526316,18.1052632 Z M13.0526316,23.1578947 L19.3684211,23.1578947 L19.3684211,25.6842105 L13.0526316,25.6842105 L13.0526316,23.1578947 Z" id="Shape"></path>
                </g>
            </g>
        </g>
    </g>
</svg>