<?xml version="1.0" encoding="UTF-8"?>
<svg width="16px" height="13px" viewBox="0 0 16 13" version="1.1" xmlns="http://www.w3.org/2000/svg" xmlns:xlink="http://www.w3.org/1999/xlink">
    <!-- Generator: Sketch 56.3 (81716) - https://sketch.com -->
    <title>icon/32px/Deliveries</title>
    <desc>Created with Sketch.</desc>
    <g id="Icons" stroke="none" stroke-width="1" fill="none" fill-rule="evenodd">
        <g id="Artboard" transform="translate(-1000.000000, -1384.000000)" fill="#5F697A" fill-rule="nonzero">
            <g id="Group-2-Copy-37" transform="translate(992.000000, 1374.000000)">
                <g id="icon/32px/Deliveries">
                    <path d="M11.8918919,10.4324324 L24,10.4324324 L24,12.1621622 L11.8918919,12.1621622 L11.8918919,10.4324324 L11.8918919,10.4324324 Z M11.8918919,17.3513514 L11.8918919,15.6216216 L24,15.6216216 L24,17.3513514 L11.8918919,17.3513514 L11.8918919,17.3513514 Z M9.2972973,10 C10.0137748,10 10.5945946,10.5808198 10.5945946,11.2972973 C10.5945946,12.0137748 10.0137748,12.5945946 9.2972973,12.5945946 C8.58081978,12.5945946 8,12.0137748 8,11.2972973 C8,10.5808198 8.58081978,10 9.2972973,10 L9.2972973,10 Z M9.2972973,15.1891892 C10.0137748,15.1891892 10.5945946,15.770009 10.5945946,16.4864865 C10.5945946,17.202964 10.0137748,17.7837838 9.2972973,17.7837838 C8.58081978,17.7837838 8,17.202964 8,16.4864865 C8,15.770009 8.58081978,15.1891892 9.2972973,15.1891892 L9.2972973,15.1891892 Z M11.8918919,22.5405405 L11.8918919,20.8108108 L24,20.8108108 L24,22.5405405 L11.8918919,22.5405405 L11.8918919,22.5405405 Z M9.2972973,20.3783784 C10.0137748,20.3783784 10.5945946,20.9591982 10.5945946,21.6756757 C10.5945946,22.3921532 10.0137748,22.972973 9.2972973,22.972973 C8.58081978,22.972973 8,22.3921532 8,21.6756757 C8,20.9591982 8.58081978,20.3783784 9.2972973,20.3783784 Z" id="Shape"></path>
                </g>
            </g>
        </g>
    </g>
</svg>