<svg width="15" height="15" viewBox="0 0 15 15" fill="none" xmlns="http://www.w3.org/2000/svg">
<path fill-rule="evenodd" clip-rule="evenodd" d="M7.5 15C11.64 15 15 11.64 15 7.5C15 3.36 11.64 0 7.5 0C3.36 0 0 3.36 0 7.5C0 11.64 3.36 15 7.5 15ZM7.5 1.5C10.815 1.5 13.5 4.185 13.5 7.5C13.5 8.8875 13.0275 10.1625 12.2325 11.175L3.825 2.7675C4.8375 1.9725 6.1125 1.5 7.5 1.5ZM11.175 12.2325L2.7675 3.825C1.9725 4.8375 1.5 6.1125 1.5 7.5C1.5 10.815 4.185 13.5 7.5 13.5C8.8875 13.5 10.1625 13.0275 11.175 12.2325Z" fill="#ACACAC"/>
</svg>
