<?xml version="1.0" encoding="UTF-8"?>
<svg width="16px" height="16px" viewBox="0 0 16 16" version="1.1" xmlns="http://www.w3.org/2000/svg" xmlns:xlink="http://www.w3.org/1999/xlink">
    <!-- Generator: Sketch 55.2 (78181) - https://sketchapp.com -->
    <title></title>
    <desc>Created with Sketch.</desc>
    <g id="Page-1" stroke="none" stroke-width="1" fill="none" fill-rule="evenodd">
        <g id="3.2-Profil---password" transform="translate(-1118.000000, -487.000000)" fill="#5F697A" fill-rule="nonzero">
            <g id="Group-6" transform="translate(200.000000, 189.000000)">
                <g id="Group-5" transform="translate(910.000000, 290.000000)">
                    <path d="M17.8311111,13.3333333 L18.6666667,14.1688889 L10.5955556,22.2222222 L9.77777778,22.2222222 L9.77777778,21.4044444 L17.8311111,13.3333333 L17.8311111,13.3333333 Z M21.0311111,8 C20.8088889,8 20.5777778,8.08888889 20.4088889,8.25777778 L18.7822222,9.88444444 L22.1155556,13.2177778 L23.7422222,11.5911111 C24.0888889,11.2444444 24.0888889,10.6666667 23.7422222,10.3377778 L21.6622222,8.25777778 C21.4844444,8.08 21.2622222,8 21.0311111,8 L21.0311111,8 Z M17.8311111,10.8355556 L8,20.6666667 L8,24 L11.3333333,24 L21.1644444,14.1688889 L17.8311111,10.8355556 Z" id="edit"/>
                </g>
            </g>
        </g>
    </g>
</svg>
