<?xml version="1.0" encoding="UTF-8"?>
<svg width="42px" height="24px" viewBox="0 0 42 24" version="1.1" xmlns="http://www.w3.org/2000/svg" xmlns:xlink="http://www.w3.org/1999/xlink">
    <!-- Generator: Sketch 55.2 (78181) - https://sketchapp.com -->
    <title>Shape</title>
    <desc>Created with Sketch.</desc>
    <g id="Page-1" stroke="none" stroke-width="1" fill="none" fill-rule="evenodd">
        <g id="3.3-wallet-deploy-mini" transform="translate(-495.000000, -712.000000)" fill="#FFFFFF" fill-rule="nonzero">
            <g id="Cards-/-Image-Top-/-Outlined-/-Avatar-Left-/-Resting-Copy-33" transform="translate(465.000000, 673.000000)">
                <path d="M67.7142857,63 L57.4285714,63 L57.4285714,56.1428571 L52.8342857,56.1428571 C50.88,60.2914286 46.6628571,63 42,63 C35.3828571,63 30,57.6171429 30,51 C30,44.3828571 35.3828571,39 42,39 C46.6628571,39 50.8628571,41.7085714 52.8342857,45.8571429 L71.1428571,45.8571429 L71.1428571,56.1428571 L67.7142857,56.1428571 L67.7142857,63 L67.7142857,63 Z M60.8571429,59.5714286 L64.2857143,59.5714286 L64.2857143,52.7142857 L67.7142857,52.7142857 L67.7142857,49.2857143 L50.4685714,49.2857143 L50.0742857,48.1371429 C48.8571429,44.7257143 45.6171429,42.4285714 42,42.4285714 C37.2661307,42.4285714 33.4285714,46.2661307 33.4285714,51 C33.4285714,55.7338693 37.2661307,59.5714286 42,59.5714286 C45.6171429,59.5714286 48.8571429,57.2742857 50.0742857,53.8628571 L50.4685714,52.7142857 L60.8571429,52.7142857 L60.8571429,59.5714286 L60.8571429,59.5714286 Z M42,56.1428571 C39.1596784,56.1428571 36.8571429,53.8403216 36.8571429,51 C36.8571429,48.1596784 39.1596784,45.8571429 42,45.8571429 C44.8403216,45.8571429 47.1428571,48.1596784 47.1428571,51 C47.1428571,53.8403216 44.8403216,56.1428571 42,56.1428571 L42,56.1428571 Z M42,49.2857143 C41.0532261,49.2857143 40.2857143,50.0532261 40.2857143,51 C40.2857143,51.9467739 41.0532261,52.7142857 42,52.7142857 C42.9467739,52.7142857 43.7142857,51.9467739 43.7142857,51 C43.7142857,50.0532261 42.9467739,49.2857143 42,49.2857143 Z" id="Shape"></path>
            </g>
        </g>
    </g>
</svg>