<svg width="15" height="15" viewBox="0 0 15 15" fill="none" xmlns="http://www.w3.org/2000/svg">
<path opacity="0.3" fill-rule="evenodd" clip-rule="evenodd" d="M13.5 1.5V10.5H4.5V1.5H13.5ZM12 3H6V4.5H12V3ZM6 5.25H12V6.75H6V5.25ZM9 7.5H6V9H9V7.5Z" fill="#6200EE"/>
<path fill-rule="evenodd" clip-rule="evenodd" d="M3 10.5V1.5C3 0.675 3.675 0 4.5 0H13.5C14.325 0 15 0.675 15 1.5V10.5C15 11.325 14.325 12 13.5 12H4.5C3.675 12 3 11.325 3 10.5ZM12 15H1.5C0.675 15 0 14.325 0 13.5V3H1.5V13.5H12V15ZM4.5 10.5V1.5H13.5V10.5H4.5ZM12 5.25H6V6.75H12V5.25ZM6 7.5H9V9H6V7.5ZM12 3H6V4.5H12V3Z" fill="#6200EE"/>
</svg>
