<?xml version="1.0" encoding="UTF-8"?>
<svg width="24px" height="24px" viewBox="0 0 24 24" version="1.1" xmlns="http://www.w3.org/2000/svg" xmlns:xlink="http://www.w3.org/1999/xlink">
    <!-- Generator: Sketch 55.2 (78181) - https://sketchapp.com -->
    <title>magicwand</title>
    <desc>Created with Sketch.</desc>
    <g id="Page-1" stroke="none" stroke-width="1" fill="none" fill-rule="evenodd">
        <g id="2.3-créer-rejoindre-orga" transform="translate(-740.000000, -499.000000)" fill="#5F697A" fill-rule="nonzero">
            <g id="Group-6-Copy-2" transform="translate(710.000000, 469.000000)">
                <path d="M37.431318,34.1142245 L34.5742177,35.7142007 L36.1741938,32.8571003 L34.5742177,30 L37.431318,31.5999762 L40.2884183,30 L38.6884421,32.8571003 L40.2884183,35.7142007 L37.431318,34.1142245 L37.431318,34.1142245 Z M51.1453997,45.3140579 L54.0025,43.7140817 L52.4025238,46.571182 L54.0025,49.4282823 L51.1453997,47.8283062 L48.2882993,49.4282823 L49.8882755,46.571182 L48.2882993,43.7140817 L51.1453997,45.3140579 L51.1453997,45.3140579 Z M54.0025,30 L52.4025238,32.8571003 L54.0025,35.7142007 L51.1453997,34.1142245 L48.2882993,35.7142007 L49.8882755,32.8571003 L48.2882993,30 L51.1453997,31.5999762 L54.0025,30 L54.0025,30 Z M44.1055044,42.3198167 L46.8940343,39.5312868 L44.4712132,37.1084657 L41.6826833,39.8969956 L44.1055044,42.3198167 L44.1055044,42.3198167 Z M45.2826297,36.0456243 L47.9568757,38.7198703 C48.4025833,39.1427211 48.4025833,39.8855672 47.9568757,40.3312748 L34.6199313,53.6682193 C34.1742236,54.1139269 33.4313775,54.1139269 33.0085267,53.6682193 L30.3342807,50.9939733 C29.8885731,50.5711225 29.8885731,49.8282764 30.3342807,49.3825687 L43.6712252,36.0456243 C44.1169328,35.5999167 44.8597789,35.5999167 45.2826297,36.0456243 Z" id="magicwand"/>
            </g>
        </g>
    </g>
</svg>