<?xml version="1.0" encoding="UTF-8"?>
<svg width="24px" height="24px" viewBox="0 0 24 24" version="1.1" xmlns="http://www.w3.org/2000/svg" xmlns:xlink="http://www.w3.org/1999/xlink">
    <!-- Generator: Sketch 55.2 (78181) - https://sketchapp.com -->
    <title>magnifyingglass</title>
    <desc>Created with Sketch.</desc>
    <g id="Page-1" stroke="none" stroke-width="1" fill="none" fill-rule="evenodd">
        <g id="2.3-créer-rejoindre-orga" transform="translate(-740.000000, -414.000000)" fill="#5F697A" fill-rule="nonzero">
            <g id="Group-6-Copy" transform="translate(710.000000, 384.000000)">
                <path d="M47.1526587,45.0943396 L46.0686106,45.0943396 L45.6843911,44.7238422 C47.0291595,43.1595197 47.838765,41.1286449 47.838765,38.9193825 C47.838765,33.9931389 43.8456261,30 38.9193825,30 C33.9931389,30 30,33.9931389 30,38.9193825 C30,43.8456261 33.9931389,47.838765 38.9193825,47.838765 C41.1286449,47.838765 43.1595197,47.0291595 44.7238422,45.6843911 L45.0943396,46.0686106 L45.0943396,47.1526587 L51.9554031,54 L54,51.9554031 L47.1526587,45.0943396 Z M38.9193825,45.0943396 C35.5025729,45.0943396 32.7444254,42.3361921 32.7444254,38.9193825 C32.7444254,35.5025729 35.5025729,32.7444254 38.9193825,32.7444254 C42.3361921,32.7444254 45.0943396,35.5025729 45.0943396,38.9193825 C45.0943396,42.3361921 42.3361921,45.0943396 38.9193825,45.0943396 Z" id="magnifyingglass"/>
            </g>
        </g>
    </g>
</svg>