<?xml version="1.0" encoding="UTF-8"?>
<svg width="19px" height="24px" viewBox="0 0 19 24" version="1.1" xmlns="http://www.w3.org/2000/svg" xmlns:xlink="http://www.w3.org/1999/xlink">
    <!-- Generator: Sketch 56.3 (81716) - https://sketch.com -->
    <title></title>
    <desc>Created with Sketch.</desc>
    <g id="Icons" stroke="none" stroke-width="1" fill="none" fill-rule="evenodd">
        <g id="Artboard" transform="translate(-584.000000, -273.000000)" fill="#5F697A" fill-rule="nonzero">
            <g id="Group-2-Copy-3" transform="translate(574.000000, 265.000000)">
                <g id="icon/40px/Bell">
                    <path d="M19.2643357,31.1170569 C20.5381818,31.1170569 21.5804196,30.0767893 21.5804196,28.8053512 L16.9482517,28.8053512 C16.9482517,30.0767893 17.9904895,31.1170569 19.2643357,31.1170569 Z M26.2125874,24.1819398 L26.2125874,18.4026756 C26.2125874,14.8542074 24.324979,11.8836656 21.0013986,11.0976856 L21.0013986,10.3117057 C21.0013986,9.35234783 20.2255105,8.57792642 19.2643357,8.57792642 C18.3031608,8.57792642 17.5272727,9.35234783 17.5272727,10.3117057 L17.5272727,11.0976856 C14.2152727,11.8836656 12.3160839,14.8426488 12.3160839,18.4026756 L12.3160839,24.1819398 L10,26.4936455 L10,27.6494983 L28.5286713,27.6494983 L28.5286713,26.4936455 L26.2125874,24.1819398 Z M23.8965035,25.3377926 L14.6321678,25.3377926 L14.6321678,18.4026756 C14.6321678,15.5361605 16.3808112,13.2013378 19.2643357,13.2013378 C22.1478601,13.2013378 23.8965035,15.5361605 23.8965035,18.4026756 L23.8965035,25.3377926 Z" id="Shape"/>
                </g>
            </g>
        </g>
    </g>
</svg>
