<svg width="15" height="18" viewBox="0 0 15 18" fill="none" xmlns="http://www.w3.org/2000/svg">
<path opacity="0.3" d="M7.19998 4.05005C4.95898 4.05005 3.59998 5.86805 3.59998 8.10005V13.5H10.8V8.10005C10.8 5.86805 9.44098 4.05005 7.19998 4.05005Z" fill="#1A48F5"/>
<path fill-rule="evenodd" clip-rule="evenodd" d="M12.6 12.6V8.09995C12.6 5.33695 11.133 3.02395 8.55 2.41195V1.79995C8.55 1.05295 7.947 0.449951 7.2 0.449951C6.453 0.449951 5.85 1.05295 5.85 1.79995V2.41195C3.276 3.02395 1.8 5.32795 1.8 8.09995V12.6L0 14.4V15.3H14.4V14.4L12.6 12.6ZM7.2 18C8.19 18 9 17.19 9 16.2H5.4C5.4 17.19 6.21 18 7.2 18ZM3.6 13.5H10.8V8.09995C10.8 5.86795 9.441 4.04995 7.2 4.04995C4.959 4.04995 3.6 5.86795 3.6 8.09995V13.5Z" fill="#1A48F5"/>
</svg>
