<svg width="15" height="15" viewBox="0 0 15 15" fill="none" xmlns="http://www.w3.org/2000/svg">
<path opacity="0.3" d="M7.5 1.5C4.1925 1.5 1.5 4.1925 1.5 7.5C1.5 10.8075 4.1925 13.5 7.5 13.5C10.8075 13.5 13.5 10.8075 13.5 7.5C13.5 4.1925 10.8075 1.5 7.5 1.5Z" fill="var(--warn)"/>
<path fill-rule="evenodd" clip-rule="evenodd" d="M0 7.5C0 3.36 3.36 0 7.5 0C11.64 0 15 3.36 15 7.5C15 11.64 11.64 15 7.5 15C3.36 15 0 11.64 0 7.5ZM1.5 7.5C1.5 10.8075 4.1925 13.5 7.5 13.5C10.8075 13.5 13.5 10.8075 13.5 7.5C13.5 4.1925 10.8075 1.5 7.5 1.5C4.1925 1.5 1.5 4.1925 1.5 7.5Z" fill="var(--warn)"/>
<path fill-rule="evenodd" clip-rule="evenodd" d="M8.8446 6.16657C8.81694 5.59018 8.5126 5.19824 7.69183 5.19824C7.50738 5.19824 7.33677 5.22129 7.18922 5.25818L6.49294 4.5619C6.65433 4.49274 6.82033 4.43279 7.00016 4.3959V3.3999H8.38349V4.40974C9.34722 4.6449 9.83138 5.37346 9.86366 6.16657H8.8446ZM3.80005 4.47429L4.45022 3.82412L11.1917 10.5656L10.5415 11.2157L9.51783 10.1921C9.22733 10.4549 8.82616 10.6255 8.38349 10.7085V11.6999H7.00016V10.6993C6.11483 10.5102 5.3586 9.94307 5.30327 8.93324H6.31772C6.36844 9.47735 6.74194 9.90157 7.69183 9.90157C8.32355 9.90157 8.65094 9.7079 8.80772 9.48196L7.18922 7.86346C6.1056 7.54529 5.38627 7.01962 5.38627 6.06051L3.80005 4.47429Z" fill="var(--warn)"/>
</svg>
