<svg width="15" height="15" viewBox="0 0 15 15" fill="none" xmlns="http://www.w3.org/2000/svg">
<path opacity="0.3" d="M7.5 1C3.91687 1 1 3.91687 1 7.5C1 11.0831 3.91687 14 7.5 14C11.0831 14 14 11.0831 14 7.5C14 3.91687 11.0831 1 7.5 1Z" fill="#542EFF"/>
<path fill-rule="evenodd" clip-rule="evenodd" d="M0 7.5C0 3.36 3.36 0 7.5 0C11.64 0 15 3.36 15 7.5C15 11.64 11.64 15 7.5 15C3.36 15 0 11.64 0 7.5ZM1.5 7.5C1.5 10.8075 4.1925 13.5 7.5 13.5C10.8075 13.5 13.5 10.8075 13.5 7.5C13.5 4.1925 10.8075 1.5 7.5 1.5C4.1925 1.5 1.5 4.1925 1.5 7.5Z" fill="#542EFF"/>
<path fill-rule="evenodd" clip-rule="evenodd" d="M4.5 4.5V5.1H5.1L6.18 7.377L5.775 8.112C5.727 8.196 5.7 8.295 5.7 8.4C5.7 8.73 5.97 9 6.3 9H9.9V8.4H6.426C6.384 8.4 6.351 8.367 6.351 8.325L6.36 8.289L6.63 7.8H8.865C9.09 7.8 9.288 7.677 9.39 7.491L10.464 5.544C10.488 5.502 10.5 5.451 10.5 5.4C10.5 5.235 10.365 5.1 10.2 5.1H5.763L5.481 4.5H4.5ZM6.3 9.3C5.97 9.3 5.703 9.57 5.703 9.9C5.703 10.23 5.97 10.5 6.3 10.5C6.63 10.5 6.9 10.23 6.9 9.9C6.9 9.57 6.63 9.3 6.3 9.3ZM8.703 9.9C8.703 9.57 8.97 9.3 9.3 9.3C9.63 9.3 9.9 9.57 9.9 9.9C9.9 10.23 9.63 10.5 9.3 10.5C8.97 10.5 8.703 10.23 8.703 9.9Z" fill="#542EFF"/>
</svg>
