<?xml version="1.0" encoding="UTF-8"?>
<svg width="16px" height="20px" viewBox="0 0 16 20" version="1.1" xmlns="http://www.w3.org/2000/svg" xmlns:xlink="http://www.w3.org/1999/xlink">
    <!-- Generator: Sketch 56.3 (81716) - https://sketch.com -->
    <title></title>
    <desc>Created with Sketch.</desc>
    <g id="Icons" stroke="none" stroke-width="1" fill="none" fill-rule="evenodd">
        <g id="Artboard" transform="translate(-586.000000, -1437.000000)" fill="#5F697A" fill-rule="nonzero">
            <g id="Group-2-Copy-38" transform="translate(574.000000, 1427.000000)">
                <g id="icon/40px/PDF">
                    <path d="M22,10 L28,16 L28,28 C28,29.1045695 27.1045695,30 26,30 L14,30 C12.8954305,30 12,29.1045695 12,28 L12,12 C12,10.8954305 12.8954305,10 14,10 L22,10 L22,10 Z M26,28 L26,17 L21,17 L21,12 L14,12 L14,28 L26,28 L26,28 Z M18.92,20.31 C18.68,19.54 18.15,17.08 19.55,17.04 C20.95,17 20.03,20.16 20.03,20.16 C20.42,21.65 22.05,22.72 22.05,22.72 C22.55,22.57 25.4,22.24 25,23.72 C24.57,25.2 21.5,23.81 21.5,23.81 C19.55,23.95 18.09,24.47 18.09,24.47 C16.96,26.58 15.64,27.5 15.1,26.61 C14.43,25.5 17.23,24.07 17.23,24.07 C18.68,21.72 18.9,20.35 18.92,20.31 L18.92,20.31 Z M19.57,21.15 C19.17,22.45 18.37,23.84 18.37,23.84 C19.22,23.5 21.08,23.11 21.08,23.11 C19.94,22.11 19.59,21.16 19.57,21.15 L19.57,21.15 Z M22.71,23.32 C22.71,23.32 24.46,23.97 24.5,23.71 C24.57,23.44 23.17,23.2 22.71,23.32 L22.71,23.32 Z M17.05,24.81 C16.28,25.11 15.54,26.39 15.72,26.39 C15.9,26.4 16.63,25.79 17.05,24.81 L17.05,24.81 Z M19.57,19.26 C19.57,19.21 20,17.58 19.57,17.53 C19.27,17.5 19.56,19.22 19.57,19.26 Z" id="Shape"></path>
                </g>
            </g>
        </g>
    </g>
</svg>
