<svg width="15" height="15" viewBox="0 0 15 15" fill="none" xmlns="http://www.w3.org/2000/svg">
<path d="M1.5 3H0V13.5C0 14.325 0.675 15 1.5 15H12V13.5H1.5V3Z" fill="#6200EE"/>
<path opacity="0.3" fill-rule="evenodd" clip-rule="evenodd" d="M4.5 10.5H13.5V1.5H4.5V10.5ZM6.75 5.25H6V6H6.75V5.25ZM9.75 5.25H9V7.5H9.75V5.25ZM12.75 4.5H11.25V8.25H12V6.75H12.75V6H12V5.25H12.75V4.5ZM8.25 4.5H9.75C10.1625 4.5 10.5 4.8375 10.5 5.25V7.5C10.5 7.9125 10.1625 8.25 9.75 8.25H8.25V4.5ZM6.75 4.5H5.25V8.25H6V6.75H6.75C7.1625 6.75 7.5 6.4125 7.5 6V5.25C7.5 4.8375 7.1625 4.5 6.75 4.5Z" fill="#6200EE"/>
<path fill-rule="evenodd" clip-rule="evenodd" d="M13.5 0H4.5C3.675 0 3 0.675 3 1.5V10.5C3 11.325 3.675 12 4.5 12H13.5C14.325 12 15 11.325 15 10.5V1.5C15 0.675 14.325 0 13.5 0ZM4.5 10.5V1.5H13.5V10.5H4.5ZM10.5 5.25V7.5C10.5 7.9125 10.1625 8.25 9.75 8.25H8.25V4.5H9.75C10.1625 4.5 10.5 4.8375 10.5 5.25ZM9 5.25H9.75V7.5H9V5.25ZM12.75 6.75H12V8.25H11.25V4.5H12.75V5.25H12V6H12.75V6.75ZM6 6.75H6.75C7.1625 6.75 7.5 6.4125 7.5 6V5.25C7.5 4.8375 7.1625 4.5 6.75 4.5H5.25V8.25H6V6.75ZM6.75 5.25H6V6H6.75V5.25Z" fill="#6200EE"/>
</svg>
