<?xml version="1.0" encoding="UTF-8"?>
<svg width="14px" height="16px" viewBox="0 0 14 16" version="1.1" xmlns="http://www.w3.org/2000/svg" xmlns:xlink="http://www.w3.org/1999/xlink">
    <!-- Generator: Sketch 55.2 (78181) - https://sketchapp.com -->
    <title>signatory</title>
    <desc>Created with Sketch.</desc>
    <g id="Page-1" stroke="none" stroke-width="1" fill="none" fill-rule="evenodd">
        <g id="5.4-orga-teamwork" transform="translate(-1004.000000, -628.000000)" fill="#B9C2CB" fill-rule="nonzero">
            <g id="Group-6-Copy-3" transform="translate(200.000000, 604.000000)">
                <path d="M807.047619,31.6190476 L813.142857,31.6190476 L813.142857,33.1428571 L807.047619,33.1428571 L807.047619,31.6190476 L807.047619,31.6190476 Z M808.571429,37.7142857 L805.52381,37.7142857 L805.52381,25.5238095 L810.857143,25.5238095 L810.857143,29.3333333 L814.666667,29.3333333 L814.666667,31.6952381 L816.190476,30.1714286 L816.190476,28.5714286 L811.619048,24 L805.52381,24 C804.682233,24 804,24.6822328 804,25.5238095 L804,37.7142857 C804,38.5558625 804.682233,39.2380952 805.52381,39.2380952 L808.571429,39.2380952 L808.571429,37.7142857 L808.571429,37.7142857 Z M807.047619,36.1904762 L810.171429,36.1904762 L810.857143,35.5047619 L810.857143,34.6666667 L807.047619,34.6666667 L807.047619,36.1904762 L807.047619,36.1904762 Z M816.342857,32.3809524 C816.419048,32.3809524 816.571429,32.4571429 816.647619,32.5333333 L817.638095,33.5238095 C817.790476,33.6761905 817.790476,33.9809524 817.638095,34.1333333 L816.87619,34.8952381 L815.27619,33.2952381 L816.038095,32.5333333 C816.114286,32.4571429 816.190476,32.3809524 816.342857,32.3809524 L816.342857,32.3809524 Z M816.342857,35.352381 L811.695238,40 L810.095238,40 L810.095238,38.4 L814.742857,33.752381 L816.342857,35.352381 Z" id="signatory"/>
            </g>
        </g>
    </g>
</svg>