<svg width="33" height="45" viewBox="0 0 33 45" fill="none" xmlns="http://www.w3.org/2000/svg">
<path fill-rule="evenodd" clip-rule="evenodd" d="M8.73529 0C8.47795 0 8.23103 0.103072 8.04905 0.286525L0.284344 8.11262C0.102358 8.29606 0 8.54489 0 8.80435V44.0217C0 44.5619 0.434591 45 0.970588 45H32.0294C32.5654 45 33 44.5619 33 44.0217V0.978261C33 0.437975 32.5654 0 32.0294 0H8.73529ZM9.73333 2H31V43H2V9.80952H8.76667C9.3005 9.80952 9.73333 9.37248 9.73333 8.83333V2ZM8 8H4L8 4V8ZM24.7615 16.6644C25.1079 16.2516 25.0729 15.6195 24.6831 15.2526C24.293 14.8857 23.6963 14.9229 23.3497 15.3357L13.8529 26.648L9.51124 23.2C9.09389 22.8686 8.50176 22.9582 8.18888 23.4C7.87599 23.8418 7.96061 24.4686 8.37772 24.8L13.4149 28.8C13.8078 29.112 14.361 29.053 14.6874 28.6644L24.7615 16.6644Z" fill="#30D19F"/>
</svg>
