<?xml version="1.0" encoding="UTF-8"?>
<svg width="15px" height="16px" viewBox="0 0 15 16" version="1.1" xmlns="http://www.w3.org/2000/svg" xmlns:xlink="http://www.w3.org/1999/xlink">
    <!-- Generator: Sketch 56.3 (81716) - https://sketch.com -->
    <title>icon/32px/Trash</title>
    <desc>Created with Sketch.</desc>
    <g id="Icons" stroke="none" stroke-width="1" fill="none" fill-rule="evenodd">
        <g id="Artboard" transform="translate(-1001.000000, -407.000000)" fill="#5F697A" fill-rule="nonzero">
            <g id="Group-2-Copy-14" transform="translate(992.000000, 399.000000)">
                <g id="icon/32px/Trash">
                    <path d="M13.4444444,8 L13.4444444,8.88888889 L9,8.88888889 L9,10.6666667 L9.88888889,10.6666667 L9.88888889,22.2222222 C9.88888889,23.2040618 10.6848271,24 11.6666667,24 L20.5555556,24 C21.5373951,24 22.3333333,23.2040618 22.3333333,22.2222222 L22.3333333,10.6666667 L23.2222222,10.6666667 L23.2222222,8.88888889 L18.7777778,8.88888889 L18.7777778,8 L13.4444444,8 L13.4444444,8 Z M11.6666667,10.6666667 L20.5555556,10.6666667 L20.5555556,22.2222222 L11.6666667,22.2222222 L11.6666667,10.6666667 L11.6666667,10.6666667 Z M13.4444444,12.4444444 L13.4444444,20.4444444 L15.2222222,20.4444444 L15.2222222,12.4444444 L13.4444444,12.4444444 L13.4444444,12.4444444 Z M17,12.4444444 L17,20.4444444 L18.7777778,20.4444444 L18.7777778,12.4444444 L17,12.4444444 Z" id="Shape"/>
                </g>
            </g>
        </g>
    </g>
</svg>