<?xml version="1.0" encoding="UTF-8"?>
<svg width="24px" height="24px" viewBox="0 0 24 24" version="1.1" xmlns="http://www.w3.org/2000/svg" xmlns:xlink="http://www.w3.org/1999/xlink">
    <!-- Generator: Sketch 56.3 (81716) - https://sketch.com -->
    <title>icon/40px/Menu</title>
    <desc>Created with Sketch.</desc>
    <g id="Icons" stroke="none" stroke-width="1" fill="none" fill-rule="evenodd">
        <g id="Artboard" transform="translate(-582.000000, -107.000000)" fill="#5F697A" fill-rule="nonzero">
            <g id="Group-2" transform="translate(574.000000, 99.000000)">
                <g id="icon/40px/Menu">
                    <path d="M11,14 C9.34314575,14 8,12.6568542 8,11 C8,9.34314575 9.34314575,8 11,8 C12.6568542,8 14,9.34314575 14,11 C14,12.6568542 12.6568542,14 11,14 Z M11,32 C9.34314575,32 8,30.6568542 8,29 C8,27.3431458 9.34314575,26 11,26 C12.6568542,26 14,27.3431458 14,29 C14,30.6568542 12.6568542,32 11,32 Z M11,23 C9.34314575,23 8,21.6568542 8,20 C8,18.3431458 9.34314575,17 11,17 C12.6568542,17 14,18.3431458 14,20 C14,21.6568542 12.6568542,23 11,23 Z M20,14 C18.3431458,14 17,12.6568542 17,11 C17,9.34314575 18.3431458,8 20,8 C21.6568542,8 23,9.34314575 23,11 C23,12.6568542 21.6568542,14 20,14 Z M20,32 C18.3431458,32 17,30.6568542 17,29 C17,27.3431458 18.3431458,26 20,26 C21.6568542,26 23,27.3431458 23,29 C23,30.6568542 21.6568542,32 20,32 Z M20,23 C18.3431458,23 17,21.6568542 17,20 C17,18.3431458 18.3431458,17 20,17 C21.6568542,17 23,18.3431458 23,20 C23,21.6568542 21.6568542,23 20,23 Z M29,14 C27.3431458,14 26,12.6568542 26,11 C26,9.34314575 27.3431458,8 29,8 C30.6568542,8 32,9.34314575 32,11 C32,12.6568542 30.6568542,14 29,14 Z M29,32 C27.3431458,32 26,30.6568542 26,29 C26,27.3431458 27.3431458,26 29,26 C30.6568542,26 32,27.3431458 32,29 C32,30.6568542 30.6568542,32 29,32 Z M29,23 C27.3431458,23 26,21.6568542 26,20 C26,18.3431458 27.3431458,17 29,17 C30.6568542,17 32,18.3431458 32,20 C32,21.6568542 30.6568542,23 29,23 Z" id="Combined-Shape"/>
                </g>
            </g>
        </g>
    </g>
</svg>