<svg width="63" height="51" viewBox="0 0 63 51" fill="none" xmlns="http://www.w3.org/2000/svg">
  <path
    d="M12.4277 49V44.0234H13.8975C14.3372 44.0234 14.7269 44.1214 15.0664 44.3174C15.4082 44.5133 15.6725 44.7913 15.8594 45.1514C16.0462 45.5114 16.1396 45.9238 16.1396 46.3887V46.6382C16.1396 47.1099 16.0451 47.5246 15.856 47.8823C15.6691 48.2401 15.4014 48.5158 15.0527 48.7095C14.7064 48.9032 14.3088 49 13.8599 49H12.4277ZM13.2925 44.7207V48.3096H13.8564C14.3099 48.3096 14.6574 48.1683 14.8989 47.8857C15.1427 47.6009 15.2669 47.193 15.2715 46.6621V46.3853C15.2715 45.8452 15.1541 45.4328 14.9194 45.1479C14.6847 44.8631 14.3441 44.7207 13.8975 44.7207H13.2925ZM18.5493 49.0684C18.0229 49.0684 17.5957 48.9032 17.2676 48.5728C16.9417 48.2401 16.7788 47.798 16.7788 47.2466V47.144C16.7788 46.7749 16.8494 46.4456 16.9907 46.1562C17.1343 45.8646 17.3348 45.6379 17.5923 45.4761C17.8498 45.3143 18.1369 45.2334 18.4536 45.2334C18.9572 45.2334 19.3457 45.394 19.6191 45.7153C19.8949 46.0366 20.0327 46.4912 20.0327 47.0791V47.4141H17.6162C17.6413 47.7194 17.7427 47.9609 17.9204 48.1387C18.1004 48.3164 18.326 48.4053 18.5972 48.4053C18.9777 48.4053 19.2876 48.2515 19.5269 47.9438L19.9746 48.3711C19.8265 48.5921 19.6283 48.7642 19.3799 48.8872C19.1338 49.008 18.8569 49.0684 18.5493 49.0684ZM18.4502 45.8999C18.2223 45.8999 18.0378 45.9797 17.8965 46.1392C17.7575 46.2987 17.6686 46.5208 17.6299 46.8057H19.2124V46.7441C19.1942 46.4661 19.1201 46.2565 18.9902 46.1152C18.8604 45.9717 18.6803 45.8999 18.4502 45.8999ZM21.564 49H20.7334V43.75H21.564V49ZM23.355 49H22.5244V45.3018H23.355V49ZM22.4731 44.3413C22.4731 44.2137 22.513 44.1077 22.5928 44.0234C22.6748 43.9391 22.791 43.897 22.9414 43.897C23.0918 43.897 23.208 43.9391 23.29 44.0234C23.3721 44.1077 23.4131 44.2137 23.4131 44.3413C23.4131 44.4666 23.3721 44.5715 23.29 44.6558C23.208 44.7378 23.0918 44.7788 22.9414 44.7788C22.791 44.7788 22.6748 44.7378 22.5928 44.6558C22.513 44.5715 22.4731 44.4666 22.4731 44.3413ZM25.5664 47.9473L26.3491 45.3018H27.207L25.9253 49H25.2041L23.9121 45.3018H24.7734L25.5664 47.9473ZM29.3091 49.0684C28.7827 49.0684 28.3555 48.9032 28.0273 48.5728C27.7015 48.2401 27.5386 47.798 27.5386 47.2466V47.144C27.5386 46.7749 27.6092 46.4456 27.7505 46.1562C27.894 45.8646 28.0946 45.6379 28.3521 45.4761C28.6095 45.3143 28.8966 45.2334 29.2134 45.2334C29.717 45.2334 30.1055 45.394 30.3789 45.7153C30.6546 46.0366 30.7925 46.4912 30.7925 47.0791V47.4141H28.376C28.401 47.7194 28.5024 47.9609 28.6802 48.1387C28.8602 48.3164 29.0858 48.4053 29.3569 48.4053C29.7375 48.4053 30.0474 48.2515 30.2866 47.9438L30.7344 48.3711C30.5863 48.5921 30.388 48.7642 30.1396 48.8872C29.8936 49.008 29.6167 49.0684 29.3091 49.0684ZM29.21 45.8999C28.9821 45.8999 28.7975 45.9797 28.6562 46.1392C28.5173 46.2987 28.4284 46.5208 28.3896 46.8057H29.9722V46.7441C29.9539 46.4661 29.8799 46.2565 29.75 46.1152C29.6201 45.9717 29.4401 45.8999 29.21 45.8999ZM33.3765 46.0605C33.2671 46.0423 33.1543 46.0332 33.0381 46.0332C32.6576 46.0332 32.4012 46.179 32.269 46.4707V49H31.4385V45.3018H32.2314L32.252 45.7153C32.4525 45.394 32.7305 45.2334 33.0859 45.2334C33.2044 45.2334 33.3024 45.2493 33.3799 45.2812L33.3765 46.0605ZM35.2563 47.8105L36.0083 45.3018H36.8936L35.4238 49.5605C35.1982 50.1826 34.8154 50.4937 34.2754 50.4937C34.1546 50.4937 34.0213 50.4731 33.8755 50.4321V49.7896L34.0327 49.7998C34.2424 49.7998 34.3996 49.7611 34.5044 49.6836C34.6115 49.6084 34.6958 49.4808 34.7573 49.3008L34.877 48.9829L33.5781 45.3018H34.4736L35.2563 47.8105ZM41.9829 47.8413H40.0552L39.6519 49H38.7529L40.6328 44.0234H41.4087L43.292 49H42.3896L41.9829 47.8413ZM40.2979 47.144H41.7402L41.019 45.0796L40.2979 47.144ZM46.8535 47.1885C46.8535 47.7604 46.7236 48.2173 46.4639 48.5591C46.2041 48.8986 45.8555 49.0684 45.418 49.0684C45.0124 49.0684 44.6877 48.9351 44.4438 48.6685V50.4219H43.6133V45.3018H44.3789L44.4131 45.6777C44.6569 45.3815 44.9884 45.2334 45.4077 45.2334C45.8589 45.2334 46.2121 45.402 46.4673 45.7393C46.7248 46.0742 46.8535 46.5402 46.8535 47.1372V47.1885ZM46.0264 47.1167C46.0264 46.7476 45.9523 46.4548 45.8042 46.2383C45.6584 46.0218 45.4487 45.9136 45.1753 45.9136C44.8358 45.9136 44.592 46.0537 44.4438 46.334V47.9746C44.5942 48.2617 44.8403 48.4053 45.1821 48.4053C45.4465 48.4053 45.6527 48.2993 45.8008 48.0874C45.9512 47.8732 46.0264 47.5496 46.0264 47.1167ZM50.7979 47.1885C50.7979 47.7604 50.668 48.2173 50.4082 48.5591C50.1484 48.8986 49.7998 49.0684 49.3623 49.0684C48.9567 49.0684 48.632 48.9351 48.3882 48.6685V50.4219H47.5576V45.3018H48.3232L48.3574 45.6777C48.6012 45.3815 48.9328 45.2334 49.3521 45.2334C49.8032 45.2334 50.1564 45.402 50.4116 45.7393C50.6691 46.0742 50.7979 46.5402 50.7979 47.1372V47.1885ZM49.9707 47.1167C49.9707 46.7476 49.8966 46.4548 49.7485 46.2383C49.6027 46.0218 49.3931 45.9136 49.1196 45.9136C48.7801 45.9136 48.5363 46.0537 48.3882 46.334V47.9746C48.5386 48.2617 48.7847 48.4053 49.1265 48.4053C49.3908 48.4053 49.597 48.2993 49.7451 48.0874C49.8955 47.8732 49.9707 47.5496 49.9707 47.1167Z"
    fill="#1A48F5"/>
  <path
    d="M48.5 18.5C48.5 27.8888 40.8888 35.5 31.5 35.5C22.1112 35.5 14.5 27.8888 14.5 18.5C14.5 9.11116 22.1112 1.5 31.5 1.5C40.8888 1.5 48.5 9.11116 48.5 18.5Z"
    stroke="#1A48F5" stroke-width="3"/>
  <path
    d="M23.7402 23V14.4688H26.4883C27.2422 14.4688 27.9199 14.6406 28.5215 14.9844C29.123 15.3242 29.5918 15.8066 29.9277 16.4316C30.2676 17.0527 30.4395 17.75 30.4434 18.5234V18.916C30.4434 19.6973 30.2773 20.3984 29.9453 21.0195C29.6172 21.6367 29.1523 22.1211 28.5508 22.4727C27.9531 22.8203 27.2852 22.9961 26.5469 23H23.7402ZM25.7969 16.0566V21.418H26.5117C27.1016 21.418 27.5547 21.209 27.8711 20.791C28.1875 20.3691 28.3457 19.7441 28.3457 18.916V18.5469C28.3457 17.7227 28.1875 17.1016 27.8711 16.6836C27.5547 16.2656 27.0938 16.0566 26.4883 16.0566H25.7969ZM36.2148 21.4062H33.3965L32.9043 23H30.707L33.8359 14.4688H35.7695L38.9219 23H36.7129L36.2148 21.4062ZM33.8887 19.8184H35.7227L34.8027 16.8594L33.8887 19.8184Z"
    fill="#1A48F5"/>
</svg>
