<svg width="39" height="51" viewBox="0 0 39 51" fill="none" xmlns="http://www.w3.org/2000/svg">
  <path
    d="M5.80762 49H4.94629V44.0234H5.80762V49ZM7.73535 47.1509V49H6.87061V44.0234H8.77441C9.3304 44.0234 9.77132 44.1681 10.0972 44.4575C10.4253 44.7469 10.5894 45.1297 10.5894 45.606C10.5894 46.0936 10.4287 46.473 10.1074 46.7441C9.78841 47.0153 9.34066 47.1509 8.76416 47.1509H7.73535ZM7.73535 46.457H8.77441C9.08203 46.457 9.31673 46.3853 9.47852 46.2417C9.6403 46.0959 9.72119 45.8862 9.72119 45.6128C9.72119 45.3439 9.63916 45.1297 9.4751 44.9702C9.31104 44.8084 9.08545 44.7253 8.79834 44.7207H7.73535V46.457ZM16.7314 44.0234V47.3491C16.7314 47.8778 16.5617 48.297 16.2222 48.6069C15.8849 48.9146 15.4349 49.0684 14.8721 49.0684C14.3024 49.0684 13.8501 48.9168 13.5151 48.6138C13.1802 48.3084 13.0127 47.8857 13.0127 47.3457V44.0234H13.874V47.3525C13.874 47.6852 13.9583 47.9393 14.127 48.1147C14.2956 48.2902 14.5439 48.3779 14.8721 48.3779C15.5374 48.3779 15.8701 48.027 15.8701 47.3252V44.0234H16.7314ZM20.8159 47.1885C20.8159 47.7604 20.686 48.2173 20.4263 48.5591C20.1665 48.8986 19.8179 49.0684 19.3804 49.0684C18.9748 49.0684 18.6501 48.9351 18.4062 48.6685V50.4219H17.5757V45.3018H18.3413L18.3755 45.6777C18.6193 45.3815 18.9508 45.2334 19.3701 45.2334C19.8213 45.2334 20.1745 45.402 20.4297 45.7393C20.6872 46.0742 20.8159 46.5402 20.8159 47.1372V47.1885ZM19.9888 47.1167C19.9888 46.7476 19.9147 46.4548 19.7666 46.2383C19.6208 46.0218 19.4111 45.9136 19.1377 45.9136C18.7982 45.9136 18.5544 46.0537 18.4062 46.334V47.9746C18.5566 48.2617 18.8027 48.4053 19.1445 48.4053C19.4089 48.4053 19.6151 48.2993 19.7632 48.0874C19.9136 47.8732 19.9888 47.5496 19.9888 47.1167ZM22.4053 49H21.5747V43.75H22.4053V49ZM23.1572 47.1167C23.1572 46.7544 23.229 46.4285 23.3726 46.1392C23.5161 45.8475 23.7178 45.6242 23.9775 45.4692C24.2373 45.312 24.5358 45.2334 24.873 45.2334C25.3721 45.2334 25.7765 45.394 26.0864 45.7153C26.3986 46.0366 26.5672 46.4627 26.5923 46.9937L26.5957 47.1885C26.5957 47.5531 26.5251 47.8789 26.3838 48.166C26.2448 48.4531 26.0443 48.6753 25.7822 48.8325C25.5225 48.9897 25.2217 49.0684 24.8799 49.0684C24.3581 49.0684 23.9399 48.8952 23.6255 48.5488C23.3133 48.2002 23.1572 47.7365 23.1572 47.1577V47.1167ZM23.9878 47.1885C23.9878 47.569 24.0664 47.8675 24.2236 48.084C24.3809 48.2982 24.5996 48.4053 24.8799 48.4053C25.1602 48.4053 25.3778 48.2959 25.5327 48.0771C25.6899 47.8584 25.7686 47.5382 25.7686 47.1167C25.7686 46.743 25.6877 46.4468 25.5259 46.228C25.3664 46.0093 25.1488 45.8999 24.873 45.8999C24.6019 45.8999 24.3866 46.0081 24.2271 46.2246C24.0675 46.4388 23.9878 46.7601 23.9878 47.1885ZM29.5078 49C29.4714 48.9294 29.4395 48.8143 29.4121 48.6548C29.1478 48.9305 28.8242 49.0684 28.4414 49.0684C28.07 49.0684 27.7669 48.9624 27.5322 48.7505C27.2975 48.5386 27.1802 48.2765 27.1802 47.9644C27.1802 47.5701 27.326 47.2682 27.6177 47.0586C27.9116 46.8467 28.3309 46.7407 28.8755 46.7407H29.3848V46.498C29.3848 46.3066 29.3312 46.154 29.2241 46.04C29.117 45.9238 28.9541 45.8657 28.7354 45.8657C28.5462 45.8657 28.3913 45.9136 28.2705 46.0093C28.1497 46.1027 28.0894 46.2223 28.0894 46.3682H27.2588C27.2588 46.1654 27.326 45.9762 27.4604 45.8008C27.5949 45.623 27.7772 45.484 28.0073 45.3838C28.2397 45.2835 28.4984 45.2334 28.7832 45.2334C29.2161 45.2334 29.5614 45.3428 29.8188 45.5615C30.0763 45.778 30.2085 46.0833 30.2153 46.4775V48.1455C30.2153 48.4782 30.262 48.7437 30.3555 48.9419V49H29.5078ZM28.5952 48.4019C28.7593 48.4019 28.9131 48.362 29.0566 48.2822C29.2025 48.2025 29.3118 48.0954 29.3848 47.9609V47.2637H28.937C28.6294 47.2637 28.3981 47.3172 28.2432 47.4243C28.0882 47.5314 28.0107 47.6829 28.0107 47.8789C28.0107 48.0384 28.0632 48.166 28.168 48.2617C28.2751 48.3551 28.4175 48.4019 28.5952 48.4019ZM30.9297 47.1235C30.9297 46.5539 31.0618 46.097 31.3262 45.7529C31.5905 45.4066 31.9448 45.2334 32.3892 45.2334C32.7811 45.2334 33.0978 45.3701 33.3394 45.6436V43.75H34.1699V49H33.418L33.377 48.6172C33.1286 48.918 32.797 49.0684 32.3823 49.0684C31.9494 49.0684 31.5985 48.894 31.3296 48.5454C31.063 48.1968 30.9297 47.7228 30.9297 47.1235ZM31.7603 47.1953C31.7603 47.5713 31.832 47.8652 31.9756 48.0771C32.1214 48.2868 32.3276 48.3916 32.5942 48.3916C32.9338 48.3916 33.1821 48.2401 33.3394 47.937V46.3579C33.1867 46.0617 32.9406 45.9136 32.6011 45.9136C32.3322 45.9136 32.1248 46.0207 31.979 46.2349C31.8332 46.4468 31.7603 46.7669 31.7603 47.1953Z"
    fill="#6200EE"/>
  <path
    d="M36.5 18.5C36.5 27.8888 28.8888 35.5 19.5 35.5C10.1112 35.5 2.5 27.8888 2.5 18.5C2.5 9.11116 10.1112 1.5 19.5 1.5C28.8888 1.5 36.5 9.11116 36.5 18.5Z"
    stroke="#6200EE" stroke-width="3"/>
  <path
    d="M16.0352 23H13.9844V14.4688H16.0352V23ZM24.1562 14.4688V20.0527C24.1562 20.6855 24.0215 21.2344 23.752 21.6992C23.4824 22.1602 23.0957 22.5117 22.5918 22.7539C22.0879 22.9961 21.4922 23.1172 20.8047 23.1172C19.7656 23.1172 18.9473 22.8477 18.3496 22.3086C17.752 21.7695 17.4473 21.0312 17.4355 20.0938V14.4688H19.5039V20.1348C19.5273 21.0684 19.9609 21.5352 20.8047 21.5352C21.2305 21.5352 21.5527 21.418 21.7715 21.1836C21.9902 20.9492 22.0996 20.5684 22.0996 20.041V14.4688H24.1562Z"
    fill="#6200EE"/>
</svg>
