<svg width="45" height="58" viewBox="0 0 45 58" fill="none" xmlns="http://www.w3.org/2000/svg">
  <g>
    <path
      d="M5.56055 44.0234L6.99609 47.8379L8.42822 44.0234H9.5459V49H8.68457V47.3594L8.77002 45.165L7.30029 49H6.68164L5.21533 45.1685L5.30078 47.3594V49H4.43945V44.0234H5.56055ZM10.3354 47.1167C10.3354 46.7544 10.4072 46.4285 10.5508 46.1392C10.6943 45.8475 10.896 45.6242 11.1558 45.4692C11.4155 45.312 11.714 45.2334 12.0513 45.2334C12.5503 45.2334 12.9548 45.394 13.2646 45.7153C13.5768 46.0366 13.7454 46.4627 13.7705 46.9937L13.7739 47.1885C13.7739 47.5531 13.7033 47.8789 13.562 48.166C13.423 48.4531 13.2225 48.6753 12.9604 48.8325C12.7007 48.9897 12.3999 49.0684 12.0581 49.0684C11.5363 49.0684 11.1182 48.8952 10.8037 48.5488C10.4915 48.2002 10.3354 47.7365 10.3354 47.1577V47.1167ZM11.166 47.1885C11.166 47.569 11.2446 47.8675 11.4019 48.084C11.5591 48.2982 11.7778 48.4053 12.0581 48.4053C12.3384 48.4053 12.556 48.2959 12.7109 48.0771C12.8682 47.8584 12.9468 47.5382 12.9468 47.1167C12.9468 46.743 12.8659 46.4468 12.7041 46.228C12.5446 46.0093 12.327 45.8999 12.0513 45.8999C11.7801 45.8999 11.5648 46.0081 11.4053 46.2246C11.2458 46.4388 11.166 46.7601 11.166 47.1885ZM15.7256 47.9473L16.5083 45.3018H17.3662L16.0845 49H15.3633L14.0713 45.3018H14.9326L15.7256 47.9473ZM18.771 49H17.9404V45.3018H18.771V49ZM17.8892 44.3413C17.8892 44.2137 17.929 44.1077 18.0088 44.0234C18.0908 43.9391 18.207 43.897 18.3574 43.897C18.5078 43.897 18.624 43.9391 18.7061 44.0234C18.7881 44.1077 18.8291 44.2137 18.8291 44.3413C18.8291 44.4666 18.7881 44.5715 18.7061 44.6558C18.624 44.7378 18.5078 44.7788 18.3574 44.7788C18.207 44.7788 18.0908 44.7378 18.0088 44.6558C17.929 44.5715 17.8892 44.4666 17.8892 44.3413ZM21.3071 49.0684C20.7808 49.0684 20.3535 48.9032 20.0254 48.5728C19.6995 48.2401 19.5366 47.798 19.5366 47.2466V47.144C19.5366 46.7749 19.6073 46.4456 19.7485 46.1562C19.8921 45.8646 20.0926 45.6379 20.3501 45.4761C20.6076 45.3143 20.8947 45.2334 21.2114 45.2334C21.715 45.2334 22.1035 45.394 22.377 45.7153C22.6527 46.0366 22.7905 46.4912 22.7905 47.0791V47.4141H20.374C20.3991 47.7194 20.5005 47.9609 20.6782 48.1387C20.8582 48.3164 21.0838 48.4053 21.355 48.4053C21.7355 48.4053 22.0454 48.2515 22.2847 47.9438L22.7324 48.3711C22.5843 48.5921 22.3861 48.7642 22.1377 48.8872C21.8916 49.008 21.6147 49.0684 21.3071 49.0684ZM21.208 45.8999C20.9801 45.8999 20.7956 45.9797 20.6543 46.1392C20.5153 46.2987 20.4264 46.5208 20.3877 46.8057H21.9702V46.7441C21.952 46.4661 21.8779 46.2565 21.748 46.1152C21.6182 45.9717 21.4382 45.8999 21.208 45.8999ZM28.1294 46.8911H26.1265V49H25.2617V44.0234H28.4233V44.7207H26.1265V46.2007H28.1294V46.8911ZM28.7993 47.1167C28.7993 46.7544 28.8711 46.4285 29.0146 46.1392C29.1582 45.8475 29.3599 45.6242 29.6196 45.4692C29.8794 45.312 30.1779 45.2334 30.5151 45.2334C31.0142 45.2334 31.4186 45.394 31.7285 45.7153C32.0407 46.0366 32.2093 46.4627 32.2344 46.9937L32.2378 47.1885C32.2378 47.5531 32.1672 47.8789 32.0259 48.166C31.8869 48.4531 31.6864 48.6753 31.4243 48.8325C31.1646 48.9897 30.8638 49.0684 30.522 49.0684C30.0002 49.0684 29.582 48.8952 29.2676 48.5488C28.9554 48.2002 28.7993 47.7365 28.7993 47.1577V47.1167ZM29.6299 47.1885C29.6299 47.569 29.7085 47.8675 29.8657 48.084C30.0229 48.2982 30.2417 48.4053 30.522 48.4053C30.8022 48.4053 31.0199 48.2959 31.1748 48.0771C31.332 47.8584 31.4106 47.5382 31.4106 47.1167C31.4106 46.743 31.3298 46.4468 31.168 46.228C31.0085 46.0093 30.7909 45.8999 30.5151 45.8999C30.244 45.8999 30.0286 46.0081 29.8691 46.2246C29.7096 46.4388 29.6299 46.7601 29.6299 47.1885ZM34.8765 46.0605C34.7671 46.0423 34.6543 46.0332 34.5381 46.0332C34.1576 46.0332 33.9012 46.179 33.769 46.4707V49H32.9385V45.3018H33.7314L33.752 45.7153C33.9525 45.394 34.2305 45.2334 34.5859 45.2334C34.7044 45.2334 34.8024 45.2493 34.8799 45.2812L34.8765 46.0605ZM36.1821 45.3018L36.2061 45.688C36.4658 45.3849 36.8213 45.2334 37.2725 45.2334C37.7669 45.2334 38.1053 45.4225 38.2876 45.8008C38.5565 45.4225 38.9347 45.2334 39.4224 45.2334C39.8302 45.2334 40.1333 45.3462 40.3315 45.5718C40.5321 45.7974 40.6346 46.13 40.6392 46.5698V49H39.8086V46.5938C39.8086 46.359 39.7573 46.187 39.6548 46.0776C39.5522 45.9683 39.3825 45.9136 39.1455 45.9136C38.9564 45.9136 38.8014 45.9648 38.6807 46.0674C38.5622 46.1676 38.479 46.2998 38.4312 46.4639L38.4346 49H37.604V46.5664C37.5926 46.1312 37.3704 45.9136 36.9375 45.9136C36.6048 45.9136 36.369 46.0492 36.23 46.3203V49H35.3994V45.3018H36.1821Z"
      fill="#6200EE"/>
    <path
      d="M39.5 18.5C39.5 27.8888 31.8888 35.5 22.5 35.5C13.1112 35.5 5.5 27.8888 5.5 18.5C5.5 9.11116 13.1112 1.5 22.5 1.5C31.8888 1.5 39.5 9.11116 39.5 18.5Z"
      stroke="#6200EE" stroke-width="3"/>
    <path
      d="M16.8027 14.4688L18.707 20.4043L20.6055 14.4688H23.3125V23H21.25V21.0078L21.4492 16.9297L19.3867 23H18.0273L15.959 16.9238L16.1582 21.0078V23H14.1016V14.4688H16.8027ZM29.998 19.6016H26.6816V23H24.625V14.4688H30.332V16.0566H26.6816V18.0195H29.998V19.6016Z"
      fill="#6200EE"/>
  </g>
</svg>
