<?xml version="1.0" encoding="UTF-8" standalone="no"?>
<svg
   xmlns:dc="http://purl.org/dc/elements/1.1/"
   xmlns:cc="http://creativecommons.org/ns#"
   xmlns:rdf="http://www.w3.org/1999/02/22-rdf-syntax-ns#"
   xmlns:svg="http://www.w3.org/2000/svg"
   xmlns="http://www.w3.org/2000/svg"
   xmlns:sodipodi="http://sodipodi.sourceforge.net/DTD/sodipodi-0.dtd"
   xmlns:inkscape="http://www.inkscape.org/namespaces/inkscape"
   width="24px"
   height="20px"
   viewBox="0 0 24 20"
   version="1.1"
   id="svg11"
   sodipodi:docname="stories-and-more.svg"
   inkscape:version="0.92.3 (2405546, 2018-03-11)">
  <metadata
     id="metadata17">
    <rdf:RDF>
      <cc:Work
         rdf:about="">
        <dc:format>image/svg+xml</dc:format>
        <dc:type
           rdf:resource="http://purl.org/dc/dcmitype/StillImage" />
      </cc:Work>
    </rdf:RDF>
  </metadata>
  <defs
     id="defs15" />
  <sodipodi:namedview
     pagecolor="#ffffff"
     bordercolor="#666666"
     borderopacity="1"
     objecttolerance="10"
     gridtolerance="10"
     guidetolerance="10"
     inkscape:pageopacity="0"
     inkscape:pageshadow="2"
     inkscape:window-width="1920"
     inkscape:window-height="1052"
     id="namedview13"
     showgrid="false"
     inkscape:zoom="11.8"
     inkscape:cx="12"
     inkscape:cy="10"
     inkscape:window-x="1366"
     inkscape:window-y="0"
     inkscape:window-maximized="1"
     inkscape:current-layer="svg11" />
  <!-- Generator: Sketch 56.3 (81716) - https://sketch.com -->
  <title
     id="title2">icon/40px/ListMaterial</title>
  <desc
     id="desc4">Created with Sketch.</desc>
  <g
     id="Icons"
     stroke="none"
     stroke-width="1"
     fill="none"
     fill-rule="evenodd">
    <g
       id="Artboard"
       transform="translate(-582.000000, -1105.000000)"
       fill="#5F697A"
       fill-rule="nonzero">
      <g
         id="Group-2-Copy-23"
         transform="translate(574.000000, 1095.000000)">
        <g
           id="icon/40px/ListMaterial">
          <path
             d="M13.8378378,10.6486486 L32,10.6486486 L32,13.2432432 L13.8378378,13.2432432 L13.8378378,10.6486486 L13.8378378,10.6486486 Z M13.8378378,21.027027 L13.8378378,18.4324324 L32,18.4324324 L32,21.027027 L13.8378378,21.027027 L13.8378378,21.027027 Z M9.94594595,10 C11.0206622,10 11.8918919,10.8712297 11.8918919,11.9459459 C11.8918919,13.0206622 11.0206622,13.8918919 9.94594595,13.8918919 C8.87122968,13.8918919 8,13.0206622 8,11.9459459 C8,10.8712297 8.87122968,10 9.94594595,10 L9.94594595,10 Z M9.94594595,17.7837838 C11.0206622,17.7837838 11.8918919,18.6550135 11.8918919,19.7297297 C11.8918919,20.804446 11.0206622,21.6756757 9.94594595,21.6756757 C8.87122968,21.6756757 8,20.804446 8,19.7297297 C8,18.6550135 8.87122968,17.7837838 9.94594595,17.7837838 L9.94594595,17.7837838 Z M13.8378378,28.8108108 L13.8378378,26.2162162 L32,26.2162162 L32,28.8108108 L13.8378378,28.8108108 L13.8378378,28.8108108 Z M9.94594595,25.5675676 C11.0206622,25.5675676 11.8918919,26.4387972 11.8918919,27.5135135 C11.8918919,28.5882298 11.0206622,29.4594595 9.94594595,29.4594595 C8.87122968,29.4594595 8,28.5882298 8,27.5135135 C8,26.4387972 8.87122968,25.5675676 9.94594595,25.5675676 Z"
             id="Shape" />
        </g>
      </g>
    </g>
  </g>
  <path
     style="fill:#34e4b6;stroke:none;stroke-width:0.08474576;fill-opacity:1"
     d="M 5.8474576,1.9661017 V 0.69491525 h 9.0677964 9.067797 V 1.9661017 3.2372881 H 14.915254 5.8474576 Z"
     id="path824"
     inkscape:connector-curvature="0" />
  <path
     style="fill:#34e4b6;stroke:none;stroke-width:0.08474576;fill-opacity:1"
     d="M 5.8474576,1.9661017 V 0.69491525 h 9.0677964 9.067797 V 1.9661017 3.2372881 H 14.915254 5.8474576 Z"
     id="path830"
     inkscape:connector-curvature="0" />
  <path
     style="fill:#a0a0a0;stroke:none;stroke-width:0.08474576"
     d="M 5.8474576,9.720339 V 8.4915254 h 9.0677964 9.067797 V 9.720339 10.949153 H 14.915254 5.8474576 Z"
     id="path832"
     inkscape:connector-curvature="0" />
  <path
     style="fill:#34e4b6;stroke:none;stroke-width:0.08474576;fill-opacity:1"
     d="M 5.8474576,9.6779661 V 8.4067797 h 9.0677964 9.067797 V 9.6779661 10.949153 H 14.915254 5.8474576 Z"
     id="path834"
     inkscape:connector-curvature="0" />
  <path
     style="fill:#34e4b6;fill-opacity:1;stroke-width:0.08474576"
     d="m 5.8474576,17.516949 v -1.228813 h 9.0677964 9.067797 v 1.228813 1.228814 H 14.915254 5.8474576 Z"
     id="path838"
     inkscape:connector-curvature="0" />
  <path
     style="fill:#34e4b6;fill-opacity:1;stroke-width:0.08474576"
     d="M 1.110573,19.200417 C 0.02596806,18.659935 -0.27984839,17.300967 0.46374215,16.326069 0.76273669,15.934067 1.4367344,15.612101 1.9606617,15.610997 c 0.542608,-0.0011 1.223681,0.365237 1.5548403,0.836419 0.2348237,0.334113 0.2556844,0.421374 0.2556844,1.069533 0,0.648159 -0.020861,0.73542 -0.2556844,1.069533 -0.1596117,0.2271 -0.4259524,0.452744 -0.7088297,0.600521 -0.5937356,0.310171 -1.0926664,0.314117 -1.6960993,0.01341 z"
     id="path840"
     inkscape:connector-curvature="0" />
  <path
     style="fill:#34e4b6;fill-opacity:1;stroke-width:0.08474576"
     d="M 1.2914304,11.513994 C 0.56396256,11.250163 0.06053269,10.516569 0.06053269,9.720339 c 0,-1.8529323 2.40140871,-2.5816987 3.46236421,-1.0507394 0.2255358,0.3254483 0.2482895,0.4223485 0.2482895,1.05738 0,0.6391064 -0.021862,0.7306314 -0.2547617,1.0665674 -0.4745795,0.684536 -1.4516609,1.000912 -2.2249943,0.720447 z"
     id="path842"
     inkscape:connector-curvature="0" />
  <path
     style="fill:#34e4b6;fill-opacity:1;stroke-width:0.08474576"
     d="M 1.1864407,3.6953979 C 0.50646141,3.4008657 0.06842773,2.7287782 0.06386476,1.972998 0.06030392,1.3832042 0.22639196,0.9819128 0.64052222,0.57971461 1.8271404,-0.57271427 3.8179922,0.28223383 3.8116981,1.9415392 3.8085813,2.7632425 3.3870265,3.4078095 2.651027,3.716232 2.2919668,3.8666972 1.5578041,3.8562536 1.1864407,3.6953979 Z"
     id="path844"
     inkscape:connector-curvature="0" />
</svg>
