<?xml version="1.0" encoding="UTF-8" standalone="no"?>
<svg
   xmlns:dc="http://purl.org/dc/elements/1.1/"
   xmlns:cc="http://creativecommons.org/ns#"
   xmlns:rdf="http://www.w3.org/1999/02/22-rdf-syntax-ns#"
   xmlns:svg="http://www.w3.org/2000/svg"
   xmlns="http://www.w3.org/2000/svg"
   xmlns:sodipodi="http://sodipodi.sourceforge.net/DTD/sodipodi-0.dtd"
   xmlns:inkscape="http://www.inkscape.org/namespaces/inkscape"
   width="157px"
   height="32px"
   viewBox="0 0 157 32"
   version="1.1"
   id="svg11"
   sodipodi:docname="blockframes.svg"
   inkscape:version="0.92.3 (2405546, 2018-03-11)">
  <metadata
     id="metadata17">
    <rdf:RDF>
      <cc:Work
         rdf:about="">
        <dc:format>image/svg+xml</dc:format>
        <dc:type
           rdf:resource="http://purl.org/dc/dcmitype/StillImage" />
      </cc:Work>
    </rdf:RDF>
  </metadata>
  <defs
     id="defs15" />
  <sodipodi:namedview
     pagecolor="#ffffff"
     bordercolor="#666666"
     borderopacity="1"
     objecttolerance="10"
     gridtolerance="10"
     guidetolerance="10"
     inkscape:pageopacity="0"
     inkscape:pageshadow="2"
     inkscape:window-width="1317"
     inkscape:window-height="713"
     id="namedview13"
     showgrid="false"
     inkscape:zoom="1.999716"
     inkscape:cx="-14.285305"
     inkscape:cy="23.50398"
     inkscape:window-x="49"
     inkscape:window-y="27"
     inkscape:window-maximized="1"
     inkscape:current-layer="svg11" />
  <!-- Generator: Sketch 56.3 (81716) - https://sketch.com -->
  <title
     id="title2">icon/40px/Logo</title>
  <desc
     id="desc4">Created with Sketch.</desc>
  <g
     id="Icons"
     stroke="none"
     stroke-width="1"
     fill="none"
     fill-rule="evenodd">
    <g
       id="Artboard"
       transform="translate(-516.000000, -186.000000)"
       fill="#5F697A">
      <g
         id="Group-2-Copy"
         transform="translate(508.000000, 182.000000)">
        <g
           id="icon/40px/Logo">
          <path
             d="M8,4 L14.8208544,4 L14.8208544,5.28695367 L9.28695367,5.28695367 L9.28695367,10.8208544 L8,10.8208544 L8,4 Z M38.641955,29.1791456 L39.9289087,29.1791456 L39.9289087,36 L33.1080542,36 L33.1080542,34.7130463 L38.641955,34.7130463 L38.641955,29.1791456 Z M23.9582255,33.3827481 C30.9479282,33.3827481 36.6995816,27.9960748 37.2890064,21.1566882 L10.6274446,21.1566882 C11.2168694,27.9960748 16.9685227,33.3827481 23.9582255,33.3827481 Z M38.6294973,19.9984299 C38.6294973,28.1010902 32.0608858,34.6697017 23.9582255,34.6697017 C15.8555652,34.6697017 9.28695367,28.1010902 9.28695367,19.9984299 C9.28695367,11.8957696 15.8555652,5.3271581 23.9582255,5.3271581 C26.8929946,5.3271581 29.6239103,6.19199097 31.916747,7.67610594 L30.9386622,8.58366566 C29.0766976,7.44085081 26.9146155,6.74744017 24.6017023,6.63676215 L24.6017023,19.8697345 L37.3379106,19.8697345 C37.3137159,17.3298028 36.5806671,14.9576898 35.3240855,12.9418056 L36.2862121,12.0491745 C37.7667236,14.339952 38.6294973,17.067779 38.6294973,19.9984299 Z M29.5408761,12.5340986 L31.4224023,10.6525724 L33.3044434,12.5340986 L31.4224023,14.4156249 L29.5408761,12.5340986 Z M33.2958465,10.6608089 L33.2958465,9.26008851 L34.6965669,9.26008851 L34.6965669,10.6608089 L33.2958465,10.6608089 Z M56.7564456,21.1617331 C58.2899796,21.1617331 59.1110561,20.6871046 59.1110561,19.5916496 C59.1110561,18.5147268 58.2899796,18.0035488 56.7564456,18.0035488 L53.3063802,18.0035488 L53.3063802,21.1617331 L56.7564456,21.1617331 Z M53.3063802,12.8377168 L53.3063802,15.8497031 L56.2452676,15.8497031 C57.6876853,15.8497031 58.4722123,15.3380103 58.4722123,14.3341865 C58.4722123,13.3303626 57.6876853,12.8377168 56.2452676,12.8377168 L53.3063802,12.8377168 Z M59.7498999,16.7438785 C61.1743002,17.2004897 62.0864929,18.2959446 62.0864929,19.9020628 C62.0864929,22.1109901 60.3341768,23.3886777 56.9757425,23.3886777 L50.3669781,23.3886777 L50.3669781,10.6102573 L56.6107625,10.6102573 C59.8049815,10.6102573 61.4476491,11.9430266 61.4476491,13.9326569 C61.4476491,15.2103445 60.790788,16.196151 59.7498999,16.7438785 Z M63.2195784,23.3882659 L63.2195784,9.84333591 L66.0673495,9.84333591 L66.0673495,23.3882659 L63.2195784,23.3882659 Z M72.4748859,21.1981796 C73.8992862,21.1981796 74.9756943,20.1758236 74.9756943,18.4780743 C74.9756943,16.7803251 73.8992862,15.7584838 72.4748859,15.7584838 C71.0504856,15.7584838 69.9555454,16.7803251 69.9555454,18.4780743 C69.9555454,20.1758236 71.0504856,21.1981796 72.4748859,21.1981796 Z M72.4748859,13.4218908 C75.5960059,13.4218908 77.8600148,15.5211696 77.8600148,18.4780743 C77.8600148,21.4354939 75.5960059,23.5347727 72.4748859,23.5347727 C69.3537659,23.5347727 67.0712248,21.4354939 67.0712248,18.4780743 C67.0712248,15.5211696 69.3537659,13.4218908 72.4748859,13.4218908 Z M83.5743465,15.7582779 C82.1319288,15.7582779 81.0004392,16.7621018 81.0004392,18.4783832 C81.0004392,20.1941498 82.1319288,21.1979737 83.5743465,21.1979737 C84.4685219,21.1979737 85.2535637,20.7964441 85.7832738,19.8471871 L87.9922011,21.0522905 C87.2802583,22.6218592 85.655608,23.5345668 83.5923639,23.5345668 C80.3981449,23.5345668 78.1156038,21.4352879 78.1156038,18.4783832 C78.1156038,15.5209637 80.3981449,13.4216848 83.5923639,13.4216848 C85.655608,13.4216848 87.2802583,14.3158603 87.9922011,15.9224932 L85.7832738,17.1090645 C85.2535637,16.1778248 84.4685219,15.7582779 83.5743465,15.7582779 Z M99.0550092,13.5676769 L94.9661,17.729685 L99.4199893,23.3886777 L95.9704387,23.3886777 L92.8668212,19.5370828 L91.4975025,20.8878693 L91.4975025,23.3886777 L88.6497314,23.3886777 L88.6497314,9.84374774 L91.4975025,9.84374774 L91.4975025,17.5109029 L95.6595107,13.5676769 L99.0550092,13.5676769 Z M99.9865063,23.3887807 L99.9865063,10.6103603 L109.643292,10.6103603 L109.643292,12.9835029 L102.943926,12.9835029 L102.943926,16.3604693 L108.85825,16.3604693 L108.85825,18.7341266 L102.943926,18.7341266 L102.943926,23.3887807 L99.9865063,23.3887807 Z M113.075752,14.8636907 C113.769677,13.9144337 114.937716,13.4217878 116.453233,13.4217878 L116.453233,16.050262 C116.215919,16.0322446 116.033171,16.0137125 115.813874,16.0137125 C114.244306,16.0137125 113.203418,16.8718532 113.203418,18.7518351 L113.203418,23.3889866 L110.356161,23.3889866 L110.356161,13.567471 L113.075752,13.567471 L113.075752,14.8636907 Z M123.025499,20.2854721 L123.025499,19.2811334 L121.071904,19.2811334 C119.739134,19.2811334 119.319588,19.7742941 119.319588,20.43167 C119.319588,21.1436128 119.921882,21.6177265 120.926221,21.6177265 C121.875478,21.6177265 122.696554,21.1796475 123.025499,20.2854721 Z M121.145003,13.4218908 C124.138972,13.4218908 125.872756,14.808712 125.872756,17.7846637 L125.872756,23.3885747 L123.207732,23.3885747 L123.207732,22.165454 C122.678537,23.0601442 121.656181,23.5347727 120.213763,23.5347727 C117.913719,23.5347727 116.544915,22.2570851 116.544915,20.5593358 C116.544915,18.825037 117.768036,17.6199336 120.762005,17.6199336 L123.025499,17.6199336 C123.025499,16.3973276 122.295024,15.6848701 120.762005,15.6848701 C119.721117,15.6848701 118.64368,16.0318328 117.931737,16.5980924 L116.909896,14.6079473 C117.986818,13.8414377 119.574919,13.4218908 121.145003,13.4218908 Z M140.112332,13.4216334 C142.448925,13.4216334 144.128657,14.7724199 144.128657,17.766389 L144.128657,23.3888321 L141.280886,23.3888321 L141.280886,18.204468 C141.280886,16.6163672 140.568943,15.8858923 139.418406,15.8858923 C138.140719,15.8858923 137.246543,16.7074835 137.246543,18.4597996 L137.246543,23.3888321 L134.398257,23.3888321 L134.398257,18.204468 C134.398257,16.6163672 133.722864,15.8858923 132.536293,15.8858923 C131.277137,15.8858923 130.382447,16.7074835 130.382447,18.4597996 L130.382447,23.3888321 L127.534676,23.3888321 L127.534676,13.5678313 L130.254781,13.5678313 L130.254781,14.699321 C130.985256,13.8597124 132.079682,13.4216334 133.339867,13.4216334 C134.708671,13.4216334 135.87671,13.9508287 136.570635,15.0282663 C137.356192,14.0239277 138.633879,13.4216334 140.112332,13.4216334 Z M147.980869,17.6200881 L152.818271,17.6200881 C152.618021,16.3789499 151.686781,15.5753761 150.409094,15.5753761 C149.112874,15.5753761 148.182149,16.3604178 147.980869,17.6200881 Z M150.391076,13.4215304 C153.274882,13.4215304 155.501827,15.3565939 155.501827,18.5147782 C155.501827,18.7340752 155.465792,19.0439736 155.44726,19.2812879 L148.017419,19.2812879 C148.291797,20.5044086 149.332171,21.2529009 150.828641,21.2529009 C151.869529,21.2529009 152.618021,20.9424876 153.292899,20.3036438 L154.808416,21.9468263 C153.895708,22.9871996 152.52639,23.5349271 150.756056,23.5349271 C147.360558,23.5349271 145.15163,21.3990988 145.15163,18.4782288 C145.15163,15.5393414 147.396592,13.4215304 150.391076,13.4215304 Z M158.496671,16.4884954 C158.496671,18.1677126 164.429012,16.5430623 164.429012,20.4131893 C164.429012,22.2386044 162.731778,23.5348242 159.792891,23.5348242 C158.131691,23.5348242 156.451959,23.078213 155.539251,22.4759187 L156.488508,20.4317215 C157.365181,20.9974663 158.697436,21.3804637 159.902024,21.3804637 C161.216261,21.3804637 161.709422,21.0340158 161.709422,20.4862883 C161.709422,18.8801701 155.776566,20.5228378 155.776566,16.5981439 C155.776566,14.7361793 157.456297,13.4214275 160.322086,13.4214275 C161.672872,13.4214275 163.169857,13.7318407 164.101097,14.2795682 L163.15184,16.3062628 C162.18405,15.7585353 161.216261,15.5757879 160.322086,15.5757879 C159.043884,15.5757879 158.496671,15.9773174 158.496671,16.4884954 Z M51.4196032,31.6533912 C52.0949965,31.6533912 52.6066893,31.1525088 52.6066893,30.4163713 C52.6066893,29.6797191 52.0949965,29.1788367 51.4196032,29.1788367 C50.7447247,29.1788367 50.2386945,29.6797191 50.2386945,30.4163713 C50.2386945,31.1525088 50.7447247,31.6533912 51.4196032,31.6533912 Z M51.436591,28.9255642 C52.26333,28.9255642 52.8877599,29.5330063 52.8877599,30.4163713 C52.8877599,31.293559 52.26333,31.9066637 51.436591,31.9066637 C50.9079104,31.9066637 50.463654,31.6425808 50.2330319,31.192147 L50.2330319,31.8840133 L49.9632864,31.8840133 L49.9632864,27.7111947 L50.2443571,27.7111947 L50.2443571,29.6174305 C50.4806418,29.1788367 50.9192356,28.9255642 51.436591,28.9255642 Z M54.5681096,31.57499 L55.7438705,28.9480602 L56.0306038,28.9480602 L54.5233236,32.2838441 C54.2870389,32.8238498 53.9946431,32.997846 53.6064978,32.997846 C53.3419002,32.997846 53.0948051,32.9077592 52.9259567,32.7332483 L53.0664921,32.519614 C53.2183526,32.6771371 53.3928635,32.7502361 53.6126752,32.7502361 C53.8819059,32.7502361 54.0790672,32.6266885 54.2587259,32.2277329 L54.4162491,31.8725337 L53.0948051,28.9480602 L53.3928635,28.9480602 L54.5681096,31.57499 Z M59.8536798,28.1836612 C58.8467673,28.1836612 58.0874646,28.9254613 58.0874646,29.9159008 C58.0874646,30.9053108 58.8467673,31.6476257 59.8536798,31.6476257 C60.314924,31.6476257 60.7257196,31.5076051 61.0629015,31.175571 L61.2425602,31.3608924 C60.8997157,31.726902 60.3993482,31.9122233 59.8428694,31.9122233 C58.6727711,31.9122233 57.8012461,31.0633487 57.8012461,29.9159008 C57.8012461,28.7684529 58.6727711,27.9190635 59.8428694,27.9190635 C60.3993482,27.9190635 60.8997157,28.099237 61.2425602,28.4647318 L61.0629015,28.6500532 C60.7257196,28.3185339 60.314924,28.1836612 59.8536798,28.1836612 Z M63.9020757,31.0179964 L63.9020757,30.4671803 L62.9013405,30.4671803 C62.2933836,30.4671803 62.0802641,30.719938 62.0802641,31.0571198 C62.0802641,31.4396025 62.3778078,31.6758872 62.8956779,31.6758872 C63.3903829,31.6758872 63.7332274,31.4396025 63.9020757,31.0179964 Z M63.0532011,28.9259246 C63.7785281,28.9259246 64.1836612,29.297082 64.1836612,30.0224091 L64.1836612,31.8843736 L63.9128861,31.8843736 L63.9128861,31.3608409 C63.7280796,31.6985375 63.3682473,31.907024 62.8565545,31.907024 C62.1976343,31.907024 61.7986786,31.5688126 61.7986786,31.0689598 C61.7986786,30.6241886 62.0802641,30.2478834 62.8956779,30.2478834 L63.9020757,30.2478834 L63.9020757,30.0115987 C63.9020757,29.4654155 63.6040172,29.1730197 63.0305507,29.1730197 C62.6254177,29.1730197 62.2604376,29.3248802 62.0179755,29.5446919 L61.8769254,29.341868 C62.1698361,29.0834477 62.5971047,28.9259246 63.0532011,28.9259246 Z M65.2961039,29.724505 C65.2961039,30.60787 67.2419779,29.9834401 67.2419779,31.102575 C67.2419779,31.5802922 66.8311822,31.9066637 66.0832048,31.9066637 C65.599825,31.9066637 65.1385808,31.7439927 64.9079587,31.5298437 L65.0371688,31.3043694 C65.2626431,31.4958681 65.6615988,31.6595686 66.0950447,31.6595686 C66.7132973,31.6595686 66.9603924,31.4397569 66.9603924,31.1082376 C66.9603924,30.2526708 65.0150332,30.8832781 65.0150332,29.7301676 C65.0150332,29.2853965 65.3861907,28.9255642 66.1279908,28.9255642 C66.499663,28.9255642 66.9042812,29.0383013 67.1349033,29.2128123 L67.0056932,29.437257 C66.7585981,29.2575983 66.4378892,29.1731741 66.1228429,29.1731741 C65.5488616,29.1731741 65.2961039,29.4094588 65.2961039,29.724505 Z M69.1926393,29.1790426 C68.500773,29.1790426 67.9947428,29.6737476 67.9947428,30.4160625 C67.9947428,31.1588921 68.500773,31.6535971 69.1926393,31.6535971 C69.5586489,31.6535971 69.8845056,31.512547 70.0986547,31.2150033 L70.3066264,31.3668638 C70.0641643,31.7205187 69.6595461,31.9068696 69.1926393,31.9068696 C68.3319247,31.9068696 67.7074947,31.2881023 67.7074947,30.4160625 C67.7074947,29.5388748 68.3319247,28.9257701 69.1926393,28.9257701 C69.6595461,28.9257701 70.0641643,29.1054289 70.3066264,29.4657759 L70.0986547,29.6176364 C69.8845056,29.3195779 69.5586489,29.1790426 69.1926393,29.1790426 Z M72.988123,31.0179964 L72.988123,30.4671803 L71.9873879,30.4671803 C71.3794309,30.4671803 71.1663114,30.719938 71.1663114,31.0571198 C71.1663114,31.4396025 71.4638551,31.6758872 71.9817253,31.6758872 C72.4764302,31.6758872 72.8192747,31.4396025 72.988123,31.0179964 Z M72.1392484,28.9259246 C72.8645755,28.9259246 73.2697085,29.297082 73.2697085,30.0224091 L73.2697085,31.8843736 L72.9989334,31.8843736 L72.9989334,31.3608409 C72.8141269,31.6985375 72.4542946,31.907024 71.9426019,31.907024 C71.2836816,31.907024 70.884726,31.5688126 70.884726,31.0689598 C70.884726,30.6241886 71.1663114,30.2478834 71.9817253,30.2478834 L72.988123,30.2478834 L72.988123,30.0115987 C72.988123,29.4654155 72.6900646,29.1730197 72.116598,29.1730197 C71.711465,29.1730197 71.3464849,29.3248802 71.1040229,29.5446919 L70.9629727,29.341868 C71.2558834,29.0834477 71.683152,28.9259246 72.1392484,28.9259246 Z M75.5801507,31.6533912 C76.2550292,31.6533912 76.7610594,31.1525088 76.7610594,30.4163713 C76.7610594,29.6797191 76.2550292,29.1788367 75.5801507,29.1788367 C74.9047574,29.1788367 74.3987272,29.6797191 74.3987272,30.4163713 C74.3987272,31.1525088 74.9047574,31.6533912 75.5801507,31.6533912 Z M76.7610594,29.6287557 L76.7610594,27.7111947 L77.04213,27.7111947 L77.04213,31.8840133 L76.766722,31.8840133 L76.766722,31.192147 C76.5360999,31.6477286 76.0918434,31.9066637 75.5631629,31.9066637 C74.7364238,31.9066637 74.1119939,31.293559 74.1119939,30.4163713 C74.1119939,29.5330063 74.7364238,28.9255642 75.5631629,28.9255642 C76.0856661,28.9255642 76.5247747,29.1844993 76.7610594,29.6287557 Z M78.1882395,30.2644078 L80.4383493,30.2644078 C80.3987111,29.6291675 79.9374669,29.1730711 79.3135518,29.1730711 C78.6891219,29.1730711 78.2335403,29.6235049 78.1882395,30.2644078 Z M79.3135518,28.9254613 C80.1176404,28.9254613 80.7137574,29.5329034 80.7137574,30.4044284 C80.7137574,30.4275936 80.7080948,30.4559066 80.7080948,30.4842195 L78.1830917,30.4842195 C78.2114047,31.1807189 78.7230974,31.6532882 79.4257741,31.6532882 C79.7969316,31.6532882 80.139776,31.5189303 80.3652503,31.2430074 L80.5279213,31.4288435 C80.269501,31.7438898 79.864368,31.9065607 79.4201115,31.9065607 C78.5315987,31.9065607 77.9071688,31.2877934 77.9071688,30.4162684 C77.9071688,29.5447434 78.5089483,28.9254613 79.3135518,28.9254613 Z M84.2047479,31.664459 C84.9645653,31.664459 85.4144843,31.332425 85.4144843,30.8042592 C85.4144843,30.2807264 84.9645653,29.9492072 84.2047479,29.9492072 C83.4454452,29.9492072 83.0073662,30.2807264 83.0073662,30.8042592 C83.0073662,31.332425 83.4454452,31.664459 84.2047479,31.664459 Z M83.1479015,28.9428094 C83.1479015,29.4153788 83.535532,29.7129225 84.2047479,29.7129225 C84.8744786,29.7129225 85.2734342,29.4153788 85.2734342,28.948472 C85.2734342,28.4645774 84.8574908,28.1665189 84.2047479,28.1665189 C83.5525198,28.1665189 83.1479015,28.4645774 83.1479015,28.9428094 Z M84.8518282,29.8256596 C85.391834,29.9661949 85.7007028,30.3152168 85.7007028,30.8042592 C85.7007028,31.4904629 85.1328989,31.9120689 84.2047479,31.9120689 C83.2765969,31.9120689 82.7201181,31.4904629 82.7201181,30.8042592 C82.7201181,30.3090394 83.0238392,29.9661949 83.5581824,29.8256596 C83.1082634,29.6799764 82.8611683,29.370078 82.8611683,28.9371468 C82.8611683,28.3075691 83.389334,27.9194238 84.2047479,27.9194238 C85.0206765,27.9194238 85.5606823,28.3075691 85.5606823,28.9371468 C85.5606823,29.370078 85.3079246,29.6799764 84.8518282,29.8256596 Z"
             id="Combined-Shape" />
        </g>
      </g>
    </g>
  </g>
  <path
     style="fill:none;stroke-width:0.25003549"
     d="M 14.228256,30.41842 C 8.867371,29.832264 4.0238557,25.934112 2.2232953,20.756602 -0.6361204,12.534354 4.3909354,3.6937965 13.017106,1.7746556 c 3.114643,-0.6929422 7.398691,-0.079083 9.810468,1.4057367 0.757447,0.4663247 0.807709,0.5627184 0.469677,0.9007509 -0.338033,0.3380323 -0.48232,0.3263509 -1.34829,-0.1091577 C 20.663807,3.3256629 19.430486,2.9380256 17.878912,2.6927549 L 16.603593,2.4911541 v 6.7136172 6.7136167 h 6.375905 6.375906 l -0.0061,-0.937633 c -0.0087,-1.327666 -0.419845,-2.957004 -1.166663,-4.622896 -0.534231,-1.1916824 -0.588766,-1.5006348 -0.321689,-1.822444 0.283471,-0.3415602 0.376689,-0.3048338 0.786287,0.3097835 0.255579,0.3835065 0.759393,1.5974125 1.119589,2.6975685 0.818634,2.50038 0.91618,5.931023 0.234306,8.240493 -2.081726,7.050751 -8.566326,11.423117 -15.772852,10.63516 z m 4.967941,-1.375138 c 0.79612,-0.207362 2.082946,-0.685555 2.859615,-1.062651 1.758059,-0.853588 4.41677,-3.331032 5.472462,-5.099356 0.908392,-1.521592 1.985437,-4.939522 1.749921,-5.553264 -0.142788,-0.372097 -1.356977,-0.409481 -13.299691,-0.409481 -14.8452648,0 -13.6666414,-0.186707 -13.1572269,2.084253 1.0885569,4.852764 5.0072664,8.83266 9.9067659,10.06145 1.741707,0.436819 4.748043,0.42708 6.468154,-0.02095 z"
     id="path3728"
     inkscape:connector-curvature="0" />
  <path
     style="fill:none;stroke-width:0.25003549"
     d="M 14.228256,30.41842 C 8.867371,29.832264 4.0238557,25.934112 2.2232953,20.756602 -0.6361204,12.534354 4.3909354,3.6937965 13.017106,1.7746556 c 3.114643,-0.6929422 7.398691,-0.079083 9.810468,1.4057367 0.757447,0.4663247 0.807709,0.5627184 0.469677,0.9007509 -0.338033,0.3380323 -0.48232,0.3263509 -1.34829,-0.1091577 C 20.663807,3.3256629 19.430486,2.9380256 17.878912,2.6927549 L 16.603593,2.4911541 v 6.7136172 6.7136167 h 6.375905 6.375906 l -0.0061,-0.937633 c -0.0087,-1.327666 -0.419845,-2.957004 -1.166663,-4.622896 -0.534231,-1.1916824 -0.588766,-1.5006348 -0.321689,-1.822444 0.283471,-0.3415602 0.376689,-0.3048338 0.786287,0.3097835 0.255579,0.3835065 0.759393,1.5974125 1.119589,2.6975685 0.818634,2.50038 0.91618,5.931023 0.234306,8.240493 -2.081726,7.050751 -8.566326,11.423117 -15.772852,10.63516 z m 4.967941,-1.375138 c 0.79612,-0.207362 2.082946,-0.685555 2.859615,-1.062651 1.758059,-0.853588 4.41677,-3.331032 5.472462,-5.099356 0.908392,-1.521592 1.985437,-4.939522 1.749921,-5.553264 -0.142788,-0.372097 -1.356977,-0.409481 -13.299691,-0.409481 -14.8452648,0 -13.6666414,-0.186707 -13.1572269,2.084253 1.0885569,4.852764 5.0072664,8.83266 9.9067659,10.06145 1.741707,0.436819 4.748043,0.42708 6.468154,-0.02095 z"
     id="path3730"
     inkscape:connector-curvature="0" />
  <path
     style="fill:#1a48f5;stroke-width:0.25003549;fill-opacity:1"
     d=""
     id="path3734"
     inkscape:connector-curvature="0" />
  <path
     style="fill:#1a48f5;fill-opacity:1;stroke-width:0.25003549"
     d="M 14.128241,30.40129 C 11.444518,30.097662 8.4200158,28.727172 6.201441,26.809425 5.6234876,26.309839 4.5857053,25.056475 3.895258,24.024171 -1.8174923,15.4829 2.8894315,4.0334122 13.04211,1.7746556 16.183261,1.0758158 20.707633,1.7636371 23.045426,3.2954175 23.613563,3.6676748 23.644617,3.7587802 23.315539,4.0878587 22.98646,4.4169372 22.831357,4.4023659 21.96644,3.9611182 20.806,3.3691057 18.601275,2.7233327 17.378703,2.6173511 l -0.875124,-0.075862 -0.06659,6.6884497 -0.06659,6.6884492 h 6.505007 6.505007 l -0.003,-0.937633 c -0.0037,-1.156207 -0.48945,-3.011279 -1.248237,-4.766608 -0.507353,-1.1736703 -0.531128,-1.3718252 -0.203877,-1.6990779 0.327254,-0.3272527 0.460723,-0.1723025 1.144445,1.3286204 1.078603,2.3677755 1.351652,3.5810185 1.362726,6.0550295 0.0186,4.1555 -1.280892,7.266292 -4.294137,10.279539 -3.364315,3.36432 -7.316609,4.754037 -12.010111,4.223032 z M 19.2212,29.043282 c 0.79612,-0.207362 2.085564,-0.682744 2.865432,-1.056405 1.895385,-0.908141 4.954328,-3.969457 5.86471,-5.869259 0.795013,-1.659044 1.528782,-4.328544 1.331274,-4.843246 C 29.166889,16.972797 27.123939,16.91853 15.886337,16.91853 H 2.6266081 v 0.704725 c 0,0.387599 0.1795056,1.315856 0.3989014,2.062793 1.3105963,4.461951 4.8401593,8.006845 9.2274655,9.267544 1.883456,0.541212 5.076903,0.582318 6.968225,0.08969 z"
     id="path4541"
     inkscape:connector-curvature="0" />
  <path
     style="fill:#1a48f5;fill-opacity:1;stroke-width:0.25003549"
     d="M 1.219925,4.0417019 C 1.2204891,2.5289871 1.261671,1.9423865 1.311441,2.7381449 1.361211,3.5339034 1.360749,4.7715793 1.310411,5.4885356 1.260077,6.2054919 1.219357,5.5544166 1.219921,4.0417019 Z"
     id="path4543"
     inkscape:connector-curvature="0" />
  <path
     style="fill:#1a48f5;fill-opacity:1;stroke-width:0.25003549"
     d="M 0.12625301,3.4166131 V 0.16615155 H 3.3767146 c 3.0837711,0 3.2504616,0.0256447 3.2504616,0.50007102 0,0.46976363 -0.1666905,0.50007103 -2.7503906,0.50007103 H 1.126395 v 2.7503905 c 0,2.5837002 -0.030307,2.7503906 -0.50007098,2.7503906 -0.47442635,0 -0.50007101,-0.1666904 -0.50007101,-3.2504616 z"
     id="path4545"
     inkscape:connector-curvature="0" />
  <path
     style="fill:#1a48f5;fill-opacity:1;stroke-width:0.0884009"
     d="m 25.119189,31.372134 v -0.573347 l 2.762528,-0.02336 2.762528,-0.02336 0.02336,-2.762528 0.02336,-2.762528 h 0.617547 0.617546 v 3.359234 3.359234 h -3.403434 -3.403435 z"
     id="path4547"
     inkscape:connector-curvature="0" />
  <path
     style="fill:#1a48f5;fill-opacity:1;stroke-width:0.0884009"
     d=""
     id="path4549"
     inkscape:connector-curvature="0" />
  <path
     style="fill:#1a48f5;fill-opacity:1;stroke-width:0.0884009"
     d="m 22.492175,9.464568 -0.895366,-0.9178945 0.921903,-0.9187652 0.921902,-0.9187652 0.905062,0.9050616 0.905061,0.9050617 -0.931598,0.9315981 -0.931598,0.9315985 z"
     id="path4551"
     inkscape:connector-curvature="0" />
  <path
     style="fill:#1a48f5;fill-opacity:1;stroke-width:0.0884009"
     d="M 25.295991,5.9998156 V 5.3368089 h 0.663007 0.663006 v 0.6630067 0.6630068 h -0.663006 -0.663007 z"
     id="path4553"
     inkscape:connector-curvature="0" />
  <path
     style="fill:#1a48f5;fill-opacity:1;stroke-width:0.1768018"
     d="M 42.387356,12.988464 V 6.6235989 l 3.226632,0.00134 c 3.828173,0.00158 5.240682,0.19111 6.301976,0.8455764 1.812448,1.1176785 1.928099,3.5343517 0.23522,4.9152107 l -0.453199,0.369668 0.69294,0.393706 c 0.857937,0.487452 1.246117,1.000002 1.506848,1.98963 0.366675,1.391746 -0.287859,2.833136 -1.587638,3.496234 -1.079189,0.550561 -2.558039,0.718369 -6.330814,0.718369 h -3.591965 z m 7.8429,3.999788 c 1.150186,-0.480578 1.276428,-1.878695 0.239355,-2.650834 -0.427759,-0.318482 -0.8061,-0.375942 -2.87303,-0.436342 l -2.380397,-0.06956 v 1.700096 1.700096 h 2.215702 c 1.481579,0 2.408755,-0.08066 2.79837,-0.243455 z m -0.595922,-5.370277 c 1.166139,-0.584342 1.166139,-1.9787346 0,-2.5630765 -0.472583,-0.236807 -1.061566,-0.3091928 -2.51753,-0.3094032 l -1.90062,-2.747e-4 v 1.5912164 1.591216 l 1.90062,-2.83e-4 c 1.455964,-2.12e-4 2.044947,-0.0726 2.51753,-0.309403 z"
     id="path4557"
     inkscape:connector-curvature="0" />
  <path
     style="fill:#1a48f5;fill-opacity:1;stroke-width:0.1768018"
     d="M 55.293887,12.63486 V 5.9163917 h 1.326014 1.326013 v 6.7184683 6.718469 h -1.326013 -1.326014 z"
     id="path4559"
     inkscape:connector-curvature="0" />
  <path
     style="fill:#1a48f5;fill-opacity:1;stroke-width:0.1768018"
     d="m 63.482956,19.355094 c -2.637826,-0.453351 -4.265344,-2.312273 -4.265344,-4.8718 0,-2.018468 1.103697,-3.726355 2.920342,-4.5190082 1.289511,-0.5626494 3.381406,-0.5612866 4.655978,0.00303 1.035502,0.4584712 2.231255,1.6466242 2.650867,2.6340172 0.365594,0.860284 0.355594,2.922966 -0.01834,3.783981 -0.611976,1.409107 -2.148184,2.652335 -3.556674,2.878356 -1.359043,0.218088 -1.596824,0.227195 -2.386824,0.09142 z m 2.587771,-2.668451 c 1.348178,-1.243202 1.208455,-3.772204 -0.2556,-4.626389 -0.84394,-0.492386 -2.180781,-0.413961 -2.873052,0.168547 -1.470175,1.237071 -1.375803,3.563807 0.187277,4.617326 0.826423,0.55701 2.247966,0.479933 2.941375,-0.159484 z"
     id="path4561"
     inkscape:connector-curvature="0" />
  <path
     style="fill:#1a48f5;fill-opacity:1;stroke-width:0.1768018"
     d="m 74.526232,19.350216 c -1.621626,-0.229296 -2.95387,-1.129782 -3.721687,-2.515548 -0.448118,-0.80877 -0.51472,-1.111993 -0.51472,-2.343389 0,-1.256697 0.06135,-1.522845 0.550202,-2.386824 0.689352,-1.218337 1.783575,-2.024759 3.260924,-2.4032386 2.040512,-0.522755 3.947984,-0.032619 5.17531,1.3298246 0.372213,0.41319 0.644708,0.783298 0.605544,0.822462 -0.03916,0.03916 -0.502587,0.307109 -1.02983,0.595433 l -0.958624,0.524228 -0.573164,-0.555532 c -0.481314,-0.466509 -0.736388,-0.566008 -1.59174,-0.620906 -1.204971,-0.07734 -1.971351,0.305633 -2.457658,1.22812 -0.412652,0.782767 -0.388254,2.239718 0.05022,2.999092 0.827179,1.432548 3.046814,1.617562 4.194296,0.349609 l 0.329376,-0.363957 1.047944,0.529 1.047943,0.529 -0.342045,0.479863 c -1.027646,1.441707 -2.905545,2.109139 -5.072292,1.802763 z"
     id="path4563"
     inkscape:connector-curvature="0" />
  <path
     style="fill:#1a48f5;fill-opacity:1;stroke-width:0.1768018"
     d="M 80.809532,12.63486 V 5.9163917 h 1.322566 1.322565 l 0.04765,3.8382777 0.04765,3.8382776 2.067478,-1.981859 2.067478,-1.9818584 h 1.512758 c 0.832018,0 1.512759,0.061092 1.512759,0.1357602 0,0.074668 -0.835388,0.9683062 -1.856419,1.9858612 -1.02103,1.017556 -1.856419,1.917687 -1.856419,2.000291 0,0.08261 0.952594,1.356999 2.116874,2.831988 l 2.116874,2.681798 -1.439088,0.05183 c -0.791499,0.0285 -1.536583,0.01441 -1.655744,-0.03131 -0.167694,-0.06435 -1.521324,-1.672916 -3.206391,-3.810265 -0.03335,-0.0423 -0.37742,0.232417 -0.764599,0.610488 -0.693631,0.677312 -0.703962,0.706332 -0.703962,1.977532 v 1.290132 h -1.326013 -1.326014 z"
     id="path4565"
     inkscape:connector-curvature="0" />
  <path
     style="fill:#1a48f5;fill-opacity:1;stroke-width:0.1768018"
     d="M 92.124848,12.988464 V 6.6235989 h 4.685247 4.685245 v 1.1492117 1.1492118 h -3.27083 -3.270834 v 1.7680176 1.768018 h 2.91723 2.917234 v 1.060811 1.060811 h -2.917234 -2.91723 v 2.386824 2.386825 h -1.414414 -1.414414 z"
     id="path4567"
     inkscape:connector-curvature="0" />
  <path
     style="fill:#1a48f5;fill-opacity:1;stroke-width:0.1768018"
     d="M 102.37935,14.491279 V 9.6292296 h 1.32602 1.32601 v 0.6496254 0.649625 l 0.3978,-0.363741 c 0.56533,-0.51692 1.34014,-0.8740115 2.21003,-1.0185444 l 0.7514,-0.1248478 V 10.6745 11.927653 l -0.5746,0.01 c -0.96645,0.01678 -1.77579,0.396053 -2.2039,1.032777 -0.37974,0.564781 -0.40393,0.773862 -0.40393,3.491836 v 2.891084 h -1.41441 -1.41442 z"
     id="path4569"
     inkscape:connector-curvature="0" />
  <path
     style="fill:#1a48f5;fill-opacity:1;stroke-width:0.1768018"
     d="m 111.01588,19.284762 c -1.1835,-0.318794 -1.72663,-0.737429 -2.12493,-1.63785 -0.48892,-1.105286 -0.31211,-2.059605 0.5392,-2.91028 0.77808,-0.777492 1.81489,-1.040961 4.09642,-1.040961 1.77892,0 1.89228,-0.108601 1.23631,-1.184426 -0.60616,-0.994133 -2.62166,-1.192225 -4.15848,-0.408712 l -0.62829,0.320325 -0.43915,-0.749341 c -0.24153,-0.412137 -0.43914,-0.844629 -0.43914,-0.961093 0,-0.303544 1.40637,-0.8638521 2.75987,-1.0995538 2.34014,-0.4075185 4.47092,0.2935233 5.32905,1.7532958 0.48044,0.817278 0.48662,0.867451 0.5432,4.406926 l 0.0572,3.580237 h -1.25064 -1.25065 V 18.701444 18.04956 l -0.4862,0.45348 c -0.26741,0.249414 -0.64533,0.5321 -0.83981,0.628193 -0.62046,0.306564 -2.09113,0.38326 -2.94399,0.153529 z m 2.56788,-1.714738 c 0.91096,-0.25294 1.52532,-0.93369 1.52532,-1.690148 v -0.592989 h -1.59121 c -1.35548,0 -1.64361,0.05239 -1.94482,0.353604 -0.66805,0.668045 -0.35604,1.642433 0.61901,1.933147 0.70739,0.210913 0.61825,0.211144 1.3917,-0.0036 z"
     id="path4571"
     inkscape:connector-curvature="0" />
  <path
     style="fill:#1a48f5;fill-opacity:1;stroke-width:0.1768018"
     d=""
     id="path4573"
     inkscape:connector-curvature="0" />
  <path
     style="fill:#1a48f5;fill-opacity:1;stroke-width:0.1768018"
     d="M 119.52913,14.491279 V 9.6292296 h 1.32601 1.32601 v 0.5304054 c 0,0.620382 0.17375,0.668583 0.62253,0.172694 0.47665,-0.5266947 2.06861,-0.9399447 3.0632,-0.7951637 0.88684,0.1290968 2.2142,0.8085167 2.46897,1.2637677 0.13504,0.241304 0.27233,0.192925 0.97532,-0.343676 2.11383,-1.6135248 5.15012,-1.137553 6.20143,0.972141 0.44779,0.898601 0.45909,1.007502 0.45909,4.422609 v 3.501322 h -1.32601 -1.32601 l -0.003,-3.049831 c -0.003,-3.442453 -0.0863,-3.759688 -1.12107,-4.266055 -0.57039,-0.279123 -0.78377,-0.30079 -1.3352,-0.135575 -0.36098,0.108152 -0.85047,0.403075 -1.08775,0.655385 -0.41928,0.445846 -0.43297,0.547844 -0.48677,3.62741 l -0.0554,3.168666 h -1.39232 -1.39233 l -0.0551,-3.257056 c -0.053,-3.131956 -0.071,-3.273913 -0.46791,-3.69597 -0.86506,-0.919838 -2.51458,-0.691003 -3.20713,0.44492 -0.3203,0.525365 -0.35688,0.888248 -0.35747,3.546675 l -6.6e-4,2.961431 h -1.41442 -1.41441 z"
     id="path4575"
     inkscape:connector-curvature="0" />
  <path
     style="fill:#1a48f5;fill-opacity:1;stroke-width:0.1768018"
     d="m 141.60648,19.348265 c -2.80059,-0.466458 -4.63882,-2.773198 -4.32664,-5.429373 0.20721,-1.762985 1.15464,-3.114059 2.72119,-3.880499 0.83789,-0.4099397 1.23086,-0.4915292 2.33451,-0.4846992 2.94635,0.018234 4.80145,1.7098112 5.0756,4.6281822 l 0.1038,1.105011 h -3.7384 c -4.06552,0 -4.10855,0.01216 -3.36919,0.952099 0.55909,0.71077 1.32597,1.028081 2.48466,1.028081 0.73382,0 1.21816,-0.108048 1.66431,-0.371283 0.3461,-0.204206 0.69098,-0.371284 0.76639,-0.371284 0.0754,0 0.39688,0.323266 0.7144,0.718369 0.54419,0.677173 0.56037,0.737068 0.28218,1.044461 -0.74013,0.817845 -3.05014,1.337866 -4.71281,1.060935 z m 3.2053,-6.026998 c 0,-0.205922 -0.30888,-0.683287 -0.6864,-1.060811 -0.62023,-0.620226 -0.77449,-0.686407 -1.6,-0.686407 -1.37944,0 -2.18925,0.544859 -2.56208,1.723818 l -0.12579,0.397804 h 2.48713 c 2.41533,0 2.48714,-0.01081 2.48714,-0.374404 z"
     id="path4577"
     inkscape:connector-curvature="0" />
  <path
     style="fill:#1a48f5;fill-opacity:1;stroke-width:0.1768018"
     d="m 150.5379,19.355287 c -0.98458,-0.146201 -2.67384,-0.664611 -2.78699,-0.855285 -0.0389,-0.0655 0.1139,-0.534701 0.33948,-1.042678 l 0.41015,-0.923595 0.85185,0.38018 c 0.56083,0.250297 1.34297,0.406922 2.2894,0.458456 1.28763,0.07011 1.47662,0.0392 1.81222,-0.296394 0.82985,-0.829856 0.43198,-1.163401 -1.92309,-1.612155 -2.58193,-0.491982 -3.46634,-1.117054 -3.64909,-2.57906 -0.14402,-1.152201 0.50173,-2.16851 1.78512,-2.809504 0.9393,-0.469135 1.22774,-0.5258778 2.65203,-0.5217064 1.58834,0.00465 3.63132,0.4626864 3.63132,0.8141374 0,0.137965 -0.66119,1.54634 -0.80058,1.705274 -0.0275,0.0313 -0.41825,-0.06815 -0.86845,-0.221002 -1.07242,-0.364094 -2.90085,-0.365526 -3.41888,-0.0027 -0.21612,0.151376 -0.39295,0.428005 -0.39295,0.614731 0,0.485648 0.62459,0.823018 1.94482,1.050483 2.83221,0.487969 3.88964,1.252761 3.88964,2.813213 0,1.165865 -0.53203,1.925503 -1.76802,2.524383 -1.0853,0.525869 -2.57913,0.713887 -3.99798,0.5032 z"
     id="path4579"
     inkscape:connector-curvature="0" />
  <path
     style="fill:#1a48f5;fill-opacity:1;stroke-width:0.06250887"
     d="m 42.012336,25.811099 c 0,-1.791921 0.01231,-2.062793 0.09376,-2.062793 0.07924,0 0.09376,0.147388 0.09376,0.951438 v 0.951437 l 0.229971,-0.236767 c 0.403234,-0.415149 0.807762,-0.541873 1.329907,-0.416613 0.687647,0.164964 1.081122,0.67709 1.081122,1.407132 0,1.035565 -0.850194,1.679125 -1.851102,1.401206 -0.147032,-0.04083 -0.348757,-0.177417 -0.515699,-0.349188 l -0.274199,-0.28213 v 0.349535 c 0,0.269026 -0.0216,0.349536 -0.09376,0.349536 -0.08145,0 -0.09376,-0.270872 -0.09376,-2.062793 z m 1.909107,1.75777 c 0.915444,-0.415828 0.95918,-1.815019 0.0709,-2.268186 -0.979828,-0.499871 -2.030515,0.405864 -1.727264,1.488972 0.148761,0.531321 0.616771,0.893965 1.153708,0.893965 0.137519,0 0.363715,-0.05164 0.502657,-0.114751 z"
     id="path4581"
     inkscape:connector-curvature="0" />
  <path
     style="fill:#1a48f5;fill-opacity:1;stroke-width:0.06250887"
     d="m 45.341319,28.938118 c -0.28422,-0.06747 -0.411994,-0.18233 -0.322627,-0.29001 0.05849,-0.07047 0.09169,-0.06911 0.202206,0.0083 0.07272,0.05094 0.252547,0.09262 0.399607,0.09262 0.314856,0 0.441902,-0.10517 0.669417,-0.554149 l 0.156269,-0.308383 -0.645621,-1.428373 c -0.489114,-1.082115 -0.623363,-1.433582 -0.553803,-1.449862 0.0505,-0.01182 0.114678,0.0022 0.142616,0.03125 0.02794,0.02901 0.296495,0.608291 0.596792,1.287294 0.300297,0.679003 0.562773,1.23415 0.583279,1.23366 0.02051,-4.9e-4 0.290445,-0.576404 0.599864,-1.279809 0.420763,-0.956525 0.590156,-1.279328 0.671971,-1.280542 0.06016,-8.92e-4 0.10939,0.01426 0.10939,0.03368 0,0.145143 -1.594024,3.522286 -1.729059,3.663232 -0.140278,0.146419 -0.519719,0.319789 -0.646278,0.295292 -0.01719,-0.0033 -0.1225,-0.02771 -0.234023,-0.05419 z"
     id="path4583"
     inkscape:connector-curvature="0" />
  <path
     style="fill:#1a48f5;fill-opacity:1;stroke-width:0.06250887"
     d="m 51.26365,27.815438 c -0.522417,-0.159488 -0.997787,-0.563116 -1.256306,-1.066706 -0.201913,-0.393324 -0.210132,-1.213284 -0.01637,-1.632882 0.192615,-0.417111 0.544134,-0.77622 0.950044,-0.970558 0.646942,-0.309739 1.687295,-0.20867 2.148511,0.208724 0.08605,0.07787 0.09512,0.12055 0.03978,0.187221 -0.06001,0.07231 -0.09331,0.06603 -0.204713,-0.03863 -0.200724,-0.188571 -0.631207,-0.31674 -1.06384,-0.31674 -1.111322,0 -1.848929,0.778143 -1.770691,1.868001 0.0357,0.497354 0.196341,0.838096 0.542573,1.150896 0.367602,0.332106 0.649142,0.43633 1.198987,0.443855 0.420066,0.0057 0.519492,-0.01685 0.870732,-0.197929 0.236546,-0.121949 0.419336,-0.181602 0.453078,-0.14786 0.08276,0.08276 -0.333787,0.378377 -0.679982,0.482567 -0.311719,0.09381 -0.951002,0.109661 -1.211807,0.03004 z"
     id="path4585"
     inkscape:connector-curvature="0" />
  <path
     style="fill:#1a48f5;fill-opacity:1;stroke-width:0.06250887"
     d="m 56.164645,26.905004 c 7.9e-5,-0.550078 0.0096,-0.766742 0.02125,-0.481476 0.01161,0.285267 0.01154,0.735331 -1.44e-4,1.000143 -0.01169,0.264811 -0.02119,0.03141 -0.02111,-0.518667 z"
     id="path4587"
     inkscape:connector-curvature="0" />
  <path
     style="fill:#1a48f5;fill-opacity:1;stroke-width:0.06250887"
     d="m 57.400768,27.754957 c -0.380839,-0.131532 -0.503762,-0.226171 -0.412414,-0.317519 0.04019,-0.04019 0.151939,-0.01661 0.32355,0.0683 0.324455,0.160527 0.921745,0.221181 1.217358,0.12362 0.289703,-0.09561 0.42966,-0.258932 0.43679,-0.509708 0.0079,-0.277372 -0.223738,-0.466557 -0.683584,-0.558336 -0.666558,-0.133035 -0.834259,-0.192811 -1.028938,-0.366757 -0.159128,-0.142181 -0.193603,-0.220428 -0.193603,-0.439424 0,-0.166742 0.04603,-0.328918 0.123001,-0.433409 0.174494,-0.23687 0.653861,-0.395119 1.084104,-0.357885 0.368327,0.03187 0.810227,0.185585 0.810227,0.281829 0,0.113043 -0.123652,0.131806 -0.295081,0.04478 -0.445374,-0.226105 -1.132455,-0.168944 -1.377031,0.114559 -0.321998,0.373248 -0.08782,0.729892 0.578207,0.880581 0.967946,0.219 1.218923,0.394311 1.218923,0.851439 0,0.611604 -0.913042,0.924785 -1.801509,0.617933 z"
     id="path4589"
     inkscape:connector-curvature="0" />
  <path
     style="fill:#1a48f5;fill-opacity:1;stroke-width:0.06250887"
     d="m 54.283848,27.752413 c -0.421405,-0.191324 -0.5641,-0.603523 -0.358741,-1.036285 0.150571,-0.317304 0.420619,-0.411864 1.290699,-0.451952 l 0.75039,-0.03457 -0.03883,-0.283327 c -0.07458,-0.54414 -0.351603,-0.781102 -0.913146,-0.781102 -0.264678,0 -0.453002,0.04347 -0.684368,0.157973 -0.311251,0.154036 -0.462632,0.133539 -0.316265,-0.04282 0.259461,-0.312633 1.300856,-0.41553 1.701217,-0.168093 0.378596,0.233985 0.424542,0.413808 0.424542,1.661574 0,0.936181 -0.01397,1.100086 -0.09376,1.100086 -0.06772,0 -0.09376,-0.06945 -0.09376,-0.250036 0,-0.277898 -0.05431,-0.315095 -0.175875,-0.120446 -0.211119,0.338056 -1.004371,0.470436 -1.492092,0.249003 z m 1.164088,-0.189122 c 0.319849,-0.163176 0.503879,-0.469076 0.503879,-0.837564 v -0.289539 h -0.65835 c -0.93993,0 -1.216916,0.142278 -1.216916,0.625088 0,0.256373 0.08922,0.414082 0.298489,0.52765 0.248087,0.134632 0.783839,0.121831 1.072898,-0.02564 z"
     id="path4591"
     inkscape:connector-curvature="0" />
  <path
     style="fill:#1a48f5;fill-opacity:1;stroke-width:0.06250887"
     d=""
     id="path4593"
     inkscape:connector-curvature="0" />
  <path
     style="fill:#1a48f5;fill-opacity:1;stroke-width:0.06250887"
     d="m 60.510932,27.701992 c -0.221892,-0.112518 -0.403826,-0.265414 -0.526673,-0.442613 -0.161938,-0.233585 -0.190734,-0.337977 -0.20995,-0.761126 -0.01996,-0.439574 -0.0045,-0.523019 0.148932,-0.804968 0.284539,-0.522792 0.871505,-0.813909 1.462402,-0.725307 0.338118,0.0507 0.476388,0.115412 0.707824,0.331276 0.231909,0.216305 0.09178,0.302532 -0.168738,0.103828 -0.519387,-0.396155 -1.411272,-0.272566 -1.72584,0.239152 -0.308611,0.502027 -0.293756,1.150132 0.03628,1.582829 0.397296,0.520882 1.203022,0.603325 1.711867,0.175161 0.150406,-0.126559 0.190249,-0.136485 0.251517,-0.06266 0.05823,0.07017 0.03153,0.11837 -0.133423,0.240882 -0.465549,0.345764 -1.02783,0.39046 -1.554196,0.123546 z"
     id="path4595"
     inkscape:connector-curvature="0" />
  <path
     style="fill:#1a48f5;fill-opacity:1;stroke-width:0.06250887"
     d="m 63.416325,27.785041 c -0.421763,-0.183635 -0.609549,-0.637541 -0.421658,-1.019202 0.183594,-0.372932 0.407639,-0.461243 1.271086,-0.501025 l 0.74985,-0.03455 v -0.211591 c 0,-0.326892 -0.153317,-0.623902 -0.385757,-0.747299 -0.31588,-0.167695 -0.850141,-0.142954 -1.236001,0.05724 -0.174362,0.09046 -0.329342,0.136445 -0.349568,0.103717 -0.05785,-0.0936 0.01167,-0.159524 0.329671,-0.312658 0.402043,-0.193604 1.080207,-0.205049 1.391102,-0.02348 0.413672,0.241597 0.466654,0.421591 0.491032,1.668164 0.02135,1.091888 0.01961,1.109533 -0.10939,1.109533 -0.112241,0 -0.131089,-0.03763 -0.131089,-0.261731 v -0.26173 l -0.1719,0.164651 c -0.352319,0.337464 -0.993724,0.458772 -1.427378,0.269959 z m 1.097961,-0.208163 c 0.318079,-0.159809 0.501317,-0.468292 0.501317,-0.843974 V 26.42302 l -0.73448,0.02414 c -0.780361,0.02565 -0.95234,0.08139 -1.07383,0.348027 -0.142795,0.313402 -0.0302,0.644344 0.269525,0.79221 0.262199,0.129351 0.769307,0.12421 1.037468,-0.01052 z"
     id="path4597"
     inkscape:connector-curvature="0" />
  <path
     style="fill:#1a48f5;fill-opacity:1;stroke-width:0.06250887"
     d="m 66.984632,27.756448 c -0.489536,-0.224565 -0.769858,-0.621219 -0.826435,-1.1694 -0.09375,-0.908381 0.513588,-1.61417 1.389015,-1.61417 0.443367,0 0.810982,0.166064 1.056071,0.477062 l 0.161466,0.204887 6.93e-4,-0.953261 c 6.63e-4,-0.911356 0.0062,-0.95326 0.125711,-0.95326 0.122492,0 0.125018,0.04167 0.125018,2.062793 0,2.02112 -0.0025,2.062793 -0.125018,2.062793 -0.109959,0 -0.125018,-0.04167 -0.125018,-0.345974 v -0.345974 l -0.202618,0.230769 c -0.386732,0.440463 -1.052199,0.585341 -1.578885,0.343735 z m 1.280645,-0.280923 c 0.644629,-0.426596 0.677792,-1.544077 0.06122,-2.062889 -0.107297,-0.09028 -0.270272,-0.179904 -0.362167,-0.199155 -0.0919,-0.01925 -0.21831,-0.04526 -0.280923,-0.0578 -0.19596,-0.03925 -0.727958,0.131656 -0.894942,0.287501 -0.540862,0.504783 -0.524562,1.595973 0.02963,1.983801 0.430395,0.301191 1.034768,0.321465 1.447179,0.04854 z"
     id="path4599"
     inkscape:connector-curvature="0" />
  <path
     style="fill:#1a48f5;fill-opacity:1;stroke-width:0.06250887"
     d="m 70.884253,27.787653 c -0.589603,-0.2107 -0.930449,-0.717225 -0.930449,-1.38272 0,-1.77176 2.426275,-1.981075 2.71714,-0.234408 l 0.04424,0.265663 H 71.4632 c -0.68859,0 -1.26607,0.02279 -1.283289,0.05065 -0.07634,0.123513 0.120019,0.608016 0.332536,0.820533 0.447373,0.447373 1.159047,0.496797 1.702915,0.118262 0.239207,-0.166489 0.316268,-0.01431 0.08581,0.169454 -0.339363,0.270598 -0.96183,0.355193 -1.416917,0.192562 z m 1.569906,-1.61302 c 0,-0.213696 -0.24326,-0.662741 -0.431724,-0.796939 -0.272117,-0.193764 -0.692082,-0.276208 -0.993521,-0.195039 -0.512283,0.137944 -0.897382,0.638591 -0.831994,1.081633 0.0038,0.02578 0.513241,0.04688 1.132079,0.04688 1.115128,0 1.12516,-0.0012 1.12516,-0.136537 z"
     id="path4601"
     inkscape:connector-curvature="0" />
  <path
     style="fill:#1a48f5;fill-opacity:1;stroke-width:0.06250887"
     d="m 75.488615,27.774547 c -0.46292,-0.169502 -0.721628,-0.52163 -0.721628,-0.982212 0,-0.356613 0.19885,-0.657757 0.552331,-0.836466 L 75.58935,25.81935 75.412577,25.7274 c -0.315752,-0.16424 -0.473925,-0.38828 -0.502144,-0.711249 -0.05674,-0.649425 0.437578,-1.050121 1.29259,-1.047771 0.838466,0.0023 1.313597,0.348659 1.314121,0.95795 3e-4,0.346497 -0.142712,0.586657 -0.453285,0.761208 l -0.245998,0.138259 0.242954,0.108774 c 0.133624,0.05983 0.319145,0.199321 0.412267,0.309991 0.142355,0.169179 0.169314,0.260142 0.169314,0.571295 0,0.336049 -0.02038,0.392633 -0.22162,0.615384 -0.134866,0.14928 -0.334981,0.283933 -0.511207,0.343979 -0.357729,0.121891 -1.087168,0.121545 -1.420954,-6.73e-4 z m 1.515605,-0.275864 c 0.599372,-0.336866 0.578931,-1.10994 -0.03746,-1.416536 -0.329443,-0.163868 -1.20104,-0.160611 -1.536244,0.0057 -0.482635,0.239517 -0.588997,0.915527 -0.201346,1.279706 0.373307,0.350704 1.266878,0.416696 1.775045,0.13109 z m -0.125322,-1.89944 c 0.270512,-0.139888 0.403875,-0.363007 0.399657,-0.668637 -0.0069,-0.50336 -0.380865,-0.77226 -1.073864,-0.77226 -0.704914,0 -1.06265,0.28061 -1.06265,0.833548 0,0.484209 0.465188,0.779059 1.159238,0.734758 0.207833,-0.01327 0.467761,-0.0706 0.577619,-0.127409 z"
     id="path4603"
     inkscape:connector-curvature="0" />
</svg>
