<?xml version="1.0" encoding="utf-8"?>
<!-- Generator: Adobe Illustrator 23.0.3, SVG Export Plug-In . SVG Version: 6.00 Build 0)  -->
<svg version="1.1" id="Calque_1" xmlns="http://www.w3.org/2000/svg" xmlns:xlink="http://www.w3.org/1999/xlink" x="0px" y="0px"
	 viewBox="0 0 512 512" style="enable-background:new 0 0 512 512;" xml:space="preserve">
<style type="text/css">
	.st0{fill:#1948F5;}
</style>
<polygon class="st0" points="15.2,179.7 10.8,179.7 10.8,136.3 54.3,136.3 54.3,140.7 15.2,140.7 "/>
<polygon class="st0" points="501,374 457.6,374 457.6,369.6 496.6,369.6 496.6,330.5 501,330.5 "/>
<path class="st0" d="M108.7,219.2c6.5-3.4,10.2-9.2,10.2-16.5c0-11.7-9.8-19.9-29.8-19.9H50.2v76.1h41.1c20.4,0,31.3-7.7,31.3-20.9
	C122.6,228.8,117.3,222.3,108.7,219.2z M71.5,198.4h14.8c7.2,0,10.9,2.5,10.9,7.3c0,4.9-3.7,7.4-10.9,7.4H71.5V198.4z M89.6,243.4
	H71.5v-15.4h18.1c7.4,0,11.3,2.5,11.3,7.7C100.9,240.9,97,243.4,89.6,243.4z"/>
<polygon class="st0" points="158.1,182.8 136.5,182.8 136.5,258.9 194.4,258.9 194.4,241.9 158.1,241.9 "/>
<polygon class="st0" points="286.5,205.9 260.7,205.9 260.7,182.4 210,182.4 210,258.9 286.5,258.9 "/>
<path class="st0" d="M376.7,246.1L363,233.7c-4.8,5.8-10.7,8.9-17.9,8.9c-12.5,0-21.2-8.7-21.2-21.7c0-13.1,8.7-21.7,21.2-21.7
	c7.3,0,13.2,3.2,17.9,8.9l13.7-12.4c-7.4-9.2-18.7-14.4-32.7-14.4c-24.1,0-41.9,16.4-41.9,39.6c0,23.2,17.7,39.6,41.9,39.6
	C358,260.5,369.3,255.4,376.7,246.1z"/>
<polygon class="st0" points="465.1,258.9 432.4,216.5 463.5,182.8 439.8,182.8 410.3,214.5 410.3,182.8 389,182.8 389,258.9
	410.3,258.9 410.3,239.9 418.3,231.3 440.1,258.9 "/>
<polygon class="st0" points="50.2,326.2 55.2,326.2 55.2,312 73,312 73,307.6 55.2,307.6 55.2,295.3 75.1,295.3 75.1,290.9
	50.2,290.9 "/>
<path class="st0" d="M151.4,303.2c0-7.7-5.6-12.3-14.7-12.3h-13.8v35.4h5.1v-10.8h8.7c0.8,0,1.5,0,2.2-0.1l7.6,10.9h5.5l-8.4-11.9
	C148.6,312.6,151.4,308.7,151.4,303.2z M136.5,311.2h-8.6v-15.9h8.6c6.5,0,9.8,2.9,9.8,7.9C146.4,308.3,143,311.2,136.5,311.2z"/>
<path class="st0" d="M210.9,290.9l-16,35.4h5.2l3.9-8.8h18.8l3.9,8.8h5.3l-16.1-35.4H210.9z M205.7,313.4l7.6-17.3l7.6,17.3H205.7z"
	/>
<polygon class="st0" points="311.2,290.9 296.7,315.7 281.9,290.9 277.8,290.9 277.8,326.2 282.7,326.2 282.7,300.6 295.4,322
	297.8,322 310.5,300.5 310.6,326.2 315.4,326.2 315.4,290.9 "/>
<polygon class="st0" points="371.7,310.4 389.4,310.4 389.4,306.1 371.7,306.1 371.7,295.3 391.6,295.3 391.6,290.9 366.7,290.9
	366.7,326.2 392.3,326.2 392.3,321.9 371.7,321.9 "/>
<path class="st0" d="M443.7,300.4c0-3.1,2.6-5.6,8.6-5.6c3.1,0,6.6,0.9,9.7,2.9l1.7-4c-2.9-2-7.2-3.1-11.4-3.1
	c-9.3,0-13.5,4.6-13.5,10.1c0,13.1,21.4,7.7,21.4,16.3c0,3.1-2.6,5.5-8.7,5.5c-4.5,0-9-1.7-11.7-4.1l-1.9,3.9
	c2.8,2.6,8.1,4.4,13.5,4.4c9.3,0,13.7-4.6,13.7-10.1C465.1,303.6,443.7,309,443.7,300.4z"/>
<g>
	<polygon class="st0" points="283.1,180.8 274,182.4 265.6,183.9 268.7,201.5 286.3,198.3 283.4,182.4 	"/>

		<rect x="281.7" y="170.2" transform="matrix(0.9951 -9.899398e-02 9.899398e-02 0.9951 -15.6909 28.9794)" class="st0" width="4.9" height="4.9"/>
	<polygon class="st0" points="291.2,180.3 290.7,180.1 288.2,188 291.2,188.9 296.1,190.5 298.6,182.6 	"/>
</g>
</svg>
