<?xml version="1.0" encoding="UTF-8"?>
<svg width="24px" height="24px" viewBox="0 0 24 24" version="1.1" xmlns="http://www.w3.org/2000/svg" xmlns:xlink="http://www.w3.org/1999/xlink">
    <!-- Generator: Sketch 55.2 (78181) - https://sketchapp.com -->
    <title>adjustablewrench</title>
    <desc>Created with Sketch.</desc>
    <g id="Page-1" stroke="none" stroke-width="1" fill="none" fill-rule="evenodd">
        <g id="2.3-créer-rejoindre-orga" transform="translate(-740.000000, -329.000000)" fill="#5F697A" fill-rule="nonzero">
            <g id="Group-6" transform="translate(710.000000, 299.000000)">
                <path d="M53.5933438,49.6414093 L43.6807569,39.7179055 C44.6960328,37.1633401 44.1938533,34.1502631 42.1087166,32.0760433 C39.5978191,29.5651458 35.6895524,29.3358899 32.9057312,31.3664418 L37.0978385,35.569466 L35.5476321,37.0869215 L31.3664418,32.9275651 C29.3358899,35.7004694 29.5651458,39.619653 32.0760433,42.1196336 C34.1065953,44.1501855 37.0650876,44.6851159 39.5978191,43.7353416 L49.5431568,53.6806793 C49.9689177,54.1064402 50.6566853,54.1064402 51.0824462,53.6806793 L53.5933438,51.1697818 C54.0191047,50.7331039 54.0191047,50.0671702 53.5933438,49.6414093 L53.5933438,49.6414093 Z M50.31826,51.3772037 L39.9908291,41.0497729 C39.3248954,41.5410355 38.5825431,41.835793 37.8074399,41.9449625 C36.3227353,42.1633014 34.761612,41.7157066 33.6262496,40.5803442 C32.5891398,39.5541513 32.1087942,38.1786161 32.1852128,36.8249148 L35.5585491,40.1982511 L40.1873342,35.569466 L36.8139979,32.1742958 C38.1895331,32.1197111 39.5323174,32.6000567 40.5694273,33.6262496 C41.7484574,34.8052798 42.1960522,36.4319048 41.9231286,37.9493602 C41.7921252,38.7244634 41.4646168,39.4449818 40.9624373,40.0890816 L51.2898682,50.4055956 L50.31826,51.3772037 Z" id="adjustablewrench"/>
            </g>
        </g>
    </g>
</svg>
