<?xml version="1.0" encoding="UTF-8"?>
<svg width="19px" height="16px" viewBox="0 0 19 16" version="1.1" xmlns="http://www.w3.org/2000/svg" xmlns:xlink="http://www.w3.org/1999/xlink">
    <!-- Generator: Sketch 55.2 (78181) - https://sketchapp.com -->
    <title>Changepass</title>
    <desc>Created with Sketch.</desc>
    <g id="Page-1" stroke="none" stroke-width="1" fill="none" fill-rule="evenodd">
        <g id="3.2-Profil---password" transform="translate(-1076.000000, -487.000000)" fill="#1A48F5" fill-rule="nonzero">
            <g id="Group-6" transform="translate(200.000000, 189.000000)">
                <g id="Group-5-Copy" transform="translate(870.000000, 290.000000)">
                    <path d="M16.104,8 C20.528,8 24.112,11.6 24.112,16 C24.112,20.4 20.528,24 16.104,24 C13.296,24 10.84,22.544 9.408,20.344 L10.672,19.344 C11.8,21.176 13.808,22.4 16.112,22.4 C19.6466224,22.4 22.512,19.5346224 22.512,16 C22.512,12.4653776 19.6466224,9.6 16.112,9.6 C12.848,9.6 10.16,12.048 9.768,15.2 L11.976,15.2 L8.984,18.184 L6,15.2 L8.152,15.2 C8.552,11.16 11.96,8 16.104,8 L16.104,8 Z M18.472,14.592 C18.872,14.6 19.2,14.92 19.2,15.328 L19.2,19.016 C19.2,19.416 18.872,19.752 18.464,19.752 L14.04,19.752 C13.632,19.752 13.304,19.416 13.304,19.016 L13.304,15.328 C13.304,14.92 13.632,14.6 14.032,14.592 L14.032,13.784 C14.032,12.56 15.032,11.568 16.248,11.568 C17.472,11.568 18.472,12.56 18.472,13.784 L18.472,14.592 L18.472,14.592 Z M16.248,12.688 C15.648,12.688 15.152,13.176 15.152,13.784 L15.152,14.592 L17.352,14.592 L17.352,13.784 C17.352,13.176 16.856,12.688 16.248,12.688 Z" id="Changepass"/>
                </g>
            </g>
        </g>
    </g>
</svg>
