<svg width="15" height="15" viewBox="0 0 15 15" fill="none" xmlns="http://www.w3.org/2000/svg">
<path opacity="0.3" d="M7.5 1C3.91687 1 1 3.91687 1 7.5C1 11.0831 3.91687 14 7.5 14C11.0831 14 14 11.0831 14 7.5C14 3.91687 11.0831 1 7.5 1Z" fill="#FFB32E"/>
<path fill-rule="evenodd" clip-rule="evenodd" d="M0 7.5C0 3.36 3.36 0 7.5 0C11.64 0 15 3.36 15 7.5C15 11.64 11.64 15 7.5 15C3.36 15 0 11.64 0 7.5ZM1.5 7.5C1.5 10.8075 4.1925 13.5 7.5 13.5C10.8075 13.5 13.5 10.8075 13.5 7.5C13.5 4.1925 10.8075 1.5 7.5 1.5C4.1925 1.5 1.5 4.1925 1.5 7.5Z" fill="#FFB32E"/>
<path d="M4.00333 10.5L11 7.5L4.00333 4.5L4 6.83333L9 7.5L4 8.16667L4.00333 10.5Z" fill="#FFB32E"/>
</svg>
