<?xml version="1.0" encoding="UTF-8"?>
<svg width="24px" height="20px" viewBox="0 0 24 20" version="1.1" xmlns="http://www.w3.org/2000/svg" xmlns:xlink="http://www.w3.org/1999/xlink">
    <!-- Generator: Sketch 56.3 (81716) - https://sketch.com -->
    <title>icon/40px/ListMaterial</title>
    <desc>Created with Sketch.</desc>
    <g id="Icons" stroke="none" stroke-width="1" fill="none" fill-rule="evenodd">
        <g id="Artboard" transform="translate(-582.000000, -1105.000000)" fill="#5F697A" fill-rule="nonzero">
            <g id="Group-2-Copy-23" transform="translate(574.000000, 1095.000000)">
                <g id="icon/40px/ListMaterial">
                    <path d="M13.8378378,10.6486486 L32,10.6486486 L32,13.2432432 L13.8378378,13.2432432 L13.8378378,10.6486486 L13.8378378,10.6486486 Z M13.8378378,21.027027 L13.8378378,18.4324324 L32,18.4324324 L32,21.027027 L13.8378378,21.027027 L13.8378378,21.027027 Z M9.94594595,10 C11.0206622,10 11.8918919,10.8712297 11.8918919,11.9459459 C11.8918919,13.0206622 11.0206622,13.8918919 9.94594595,13.8918919 C8.87122968,13.8918919 8,13.0206622 8,11.9459459 C8,10.8712297 8.87122968,10 9.94594595,10 L9.94594595,10 Z M9.94594595,17.7837838 C11.0206622,17.7837838 11.8918919,18.6550135 11.8918919,19.7297297 C11.8918919,20.804446 11.0206622,21.6756757 9.94594595,21.6756757 C8.87122968,21.6756757 8,20.804446 8,19.7297297 C8,18.6550135 8.87122968,17.7837838 9.94594595,17.7837838 L9.94594595,17.7837838 Z M13.8378378,28.8108108 L13.8378378,26.2162162 L32,26.2162162 L32,28.8108108 L13.8378378,28.8108108 L13.8378378,28.8108108 Z M9.94594595,25.5675676 C11.0206622,25.5675676 11.8918919,26.4387972 11.8918919,27.5135135 C11.8918919,28.5882298 11.0206622,29.4594595 9.94594595,29.4594595 C8.87122968,29.4594595 8,28.5882298 8,27.5135135 C8,26.4387972 8.87122968,25.5675676 9.94594595,25.5675676 Z" id="Shape"></path>
                </g>
            </g>
        </g>
    </g>
</svg>