<?xml version="1.0" encoding="UTF-8"?>
<svg width="16px" height="16px" viewBox="0 0 16 16" version="1.1" xmlns="http://www.w3.org/2000/svg" xmlns:xlink="http://www.w3.org/1999/xlink">
    <!-- Generator: Sketch 57.1 (83088) - https://sketch.com -->
    <title></title>
    <desc>Created with Sketch.</desc>
    <g id="Icons" stroke="none" stroke-width="1" fill="none" fill-rule="evenodd">
        <g id="Icons-Light" transform="translate(-1000.000000, -2282.000000)" fill="#5F697A">
            <g id="Group-2-Copy-67" transform="translate(992.000000, 2274.000000)">
                <g id="icon/32px/Ordered">
                    <g id="Shape">
                        <path d="M8.4,8 L10.8,8 L10.8,10.4 L8.4,10.4 L8.4,8 L8.4,8 Z M10.8,12 L13.2,12 L13.2,14.4 L10.8,14.4 L10.8,12 L10.8,12 Z M12.4,8 L14.8,8 L14.8,10.4 L12.4,10.4 L12.4,8 L12.4,8 Z M19.6,15.2 L15.6,11.2 L18,11.2 L18,8 L21.2,8 L21.2,11.2 L23.6,11.2 L19.6,15.2 L19.6,15.2 Z M12,24 C11.376,24 10.832,23.64 10.568,23.12 L10.568,23.12 L8.48,17.152 L8.4,16.8 C8.4,16.3581722 8.7581722,16 9.2,16 L22,16 C22.4418278,16 22.8,16.3581722 22.8,16.8 L22.768,17.032 L20.632,23.12 C20.368,23.64 19.824,24 19.2,24 L12,24 L12,24 Z M12.088,22.4 L19.112,22.4 L20.856,17.6 L10.336,17.6 L12.088,22.4 Z"></path>
                    </g>
                </g>
            </g>
        </g>
    </g>
</svg>
