<?xml version="1.0" encoding="UTF-8"?>
<svg width="16px" height="12px" viewBox="0 0 16 12" version="1.1" xmlns="http://www.w3.org/2000/svg" xmlns:xlink="http://www.w3.org/1999/xlink">
    <!-- Generator: Sketch 57.1 (83088) - https://sketch.com -->
    <title></title>
    <desc>Created with Sketch.</desc>
    <g id="Icons" stroke="none" stroke-width="1" fill="none" fill-rule="evenodd">
        <g id="Icons-Light" transform="translate(-1000.000000, -2361.000000)" fill="#5F697A">
            <g id="Group-2-Copy-68" transform="translate(992.000000, 2351.000000)">
                <g id="icon/32px/Paid">
                    <g id="Shape">
                        <path d="M8,10.5 L24,10.5 L24,21.1666667 L8,21.1666667 L8,10.5 L8,10.5 Z M16,13.1666667 C17.4727593,13.1666667 18.6666667,14.360574 18.6666667,15.8333333 C18.6666667,17.3060927 17.4727593,18.5 16,18.5 C14.5272407,18.5 13.3333333,17.3060927 13.3333333,15.8333333 C13.3333333,14.360574 14.5272407,13.1666667 16,13.1666667 L16,13.1666667 Z M11.5555556,12.2777778 C11.5555556,13.2596173 10.7596173,14.0555556 9.77777778,14.0555556 L9.77777778,17.6111111 C10.7596173,17.6111111 11.5555556,18.4070493 11.5555556,19.3888889 L20.4444444,19.3888889 C20.4444444,18.4070493 21.2403827,17.6111111 22.2222222,17.6111111 L22.2222222,14.0555556 C21.2403827,14.0555556 20.4444444,13.2596173 20.4444444,12.2777778 L11.5555556,12.2777778 Z"></path>
                    </g>
                </g>
            </g>
        </g>
    </g>
</svg>
