<?xml version="1.0" encoding="UTF-8"?>
<svg width="16px" height="16px" viewBox="0 0 16 16" version="1.1" xmlns="http://www.w3.org/2000/svg" xmlns:xlink="http://www.w3.org/1999/xlink">
    <!-- Generator: Sketch 55.2 (78181) - https://sketchapp.com -->
    <title>refusemember</title>
    <desc>Created with Sketch.</desc>
    <g id="Page-1" stroke="none" stroke-width="1" fill="none" fill-rule="evenodd">
        <g id="5.4-orga-teamwork" transform="translate(-1150.000000, -248.000000)" fill="#5F697A" fill-rule="nonzero">
            <g id="Group-6" transform="translate(200.000000, 224.000000)">
                <g id="Group-5" transform="translate(942.000000, 16.000000)">
                    <path d="M16,8 C11.584,8 8,11.584 8,16 C8,20.416 11.584,24 16,24 C20.416,24 24,20.416 24,16 C24,11.584 20.416,8 16,8 Z M9.6,16 C9.6,12.464 12.464,9.6 16,9.6 C17.48,9.6 18.84,10.104 19.92,10.952 L10.952,19.92 C10.104,18.84 9.6,17.48 9.6,16 Z M16,22.4 C14.52,22.4 13.16,21.896 12.08,21.048 L21.048,12.08 C21.896,13.16 22.4,14.52 22.4,16 C22.4,19.536 19.536,22.4 16,22.4 Z" id="refusemember"/>
                </g>
            </g>
        </g>
    </g>
</svg>