<?xml version="1.0" encoding="UTF-8"?>
<svg width="16px" height="16px" viewBox="0 0 16 16" version="1.1" xmlns="http://www.w3.org/2000/svg" xmlns:xlink="http://www.w3.org/1999/xlink">
    <!-- Generator: Sketch 55.2 (78181) - https://sketchapp.com -->
    <title>Save</title>
    <desc>Created with Sketch.</desc>
    <g id="Profil-/Wallet" stroke="none" stroke-width="1" fill="none" fill-rule="evenodd">
        <g id="3.1-Profil---identity-orga-pending" transform="translate(-1648.000000, -144.000000)" fill="#5F697A" fill-rule="nonzero">
            <g id="Group-3" transform="translate(1220.000000, 128.000000)">
                <g id="Group-4-Copy">
                    <g id="Group-5-Copy-2" transform="translate(420.000000, 8.000000)">
                        <path d="M18.6666667,9.77777778 L18.6666667,13.3333333 L9.77777778,13.3333333 L9.77777778,22.2222222 L13.6444444,22.2222222 C12.8888889,21.5733333 12.4444444,20.6133333 12.4444444,19.5555556 C12.4444444,17.5918764 14.0363209,16 16,16 C17.9636791,16 19.5555556,17.5918764 19.5555556,19.5555556 C19.5555556,20.6133333 19.1111111,21.5733333 18.3555556,22.2222222 L22.2222222,22.2222222 L22.2222222,12.2933333 L19.7066667,9.77777778 L18.6666667,9.77777778 L18.6666667,9.77777778 Z M9.77777778,11.5555556 L16.8888889,11.5555556 L16.8888889,9.77777778 L9.77777778,9.77777778 L9.77777778,11.5555556 L9.77777778,11.5555556 Z M20.4444444,8 L24,11.5555556 L24,22.2222222 C24,23.2040618 23.2040618,24 22.2222222,24 L9.77777778,24 C8.79111111,24 8,23.2 8,22.2222222 L8,9.77777778 C8,8.79593822 8.79593822,8 9.77777778,8 L20.4444444,8 L20.4444444,8 Z M16,17.7777778 C15.0181604,17.7777778 14.2222222,18.573716 14.2222222,19.5555556 C14.2222222,20.5373951 15.0181604,21.3333333 16,21.3333333 C16.9818396,21.3333333 17.7777778,20.5373951 17.7777778,19.5555556 C17.7777778,18.573716 16.9818396,17.7777778 16,17.7777778 Z" id="Save"/>
                    </g>
                </g>
            </g>
        </g>
    </g>
</svg>
