<?xml version="1.0" encoding="UTF-8"?>
<svg width="20px" height="20px" viewBox="0 0 20 20" version="1.1" xmlns="http://www.w3.org/2000/svg" xmlns:xlink="http://www.w3.org/1999/xlink">
    <!-- Generator: Sketch 56.3 (81716) - https://sketch.com -->
    <title></title>
    <desc>Created with Sketch.</desc>
    <g id="Icons" stroke="none" stroke-width="1" fill="none" fill-rule="evenodd">
        <g id="Artboard" transform="translate(-584.000000, -1520.000000)" fill="#5F697A" fill-rule="nonzero">
            <g id="Group-2-Copy-39" transform="translate(574.000000, 1510.000000)">
                <g id="icon/40px/DocumentToSigned">
                    <path d="M18.1577516,29.8355477 C20.0314168,29.0575741 19.6208946,26.9125898 18.6735358,25.556693 C17.7367033,24.1674545 16.4419796,23.2116584 15.1367297,22.289204 C14.2104233,21.6668252 13.3578004,20.8888516 12.6735968,19.9997389 C12.378863,19.63298 11.7788691,18.9550316 12.3893892,18.8216647 C13.0104355,18.6882978 14.0841088,19.3329044 14.6314717,19.5774104 C15.5893567,19.9997389 16.5367155,20.4887509 17.420917,21.0666741 L18.4840641,19.1773097 C16.8419755,18.0325772 14.7367338,17.0212115 12.7788589,16.721136 C11.6630808,16.5433135 10.4841454,16.7878194 10.1052019,18.0659189 C9.76836323,19.1661958 10.3051999,20.2775866 10.91572,21.1444715 C12.3578106,23.1783167 14.5998931,24.1563406 16.2735602,25.9123381 C16.6314513,26.2790971 17.0630259,26.7125395 17.2735501,27.2237793 C17.4946005,27.7127912 17.4419694,27.746133 16.9472376,27.746133 C15.6419877,27.746133 14.0104254,26.6680839 12.9472783,25.9567937 L11.8841312,27.8461581 C13.4946411,28.8908655 16.1893506,30.52461 18.1577516,29.8355477 L18.1577516,29.8355477 Z M29.8313171,12.4978509 C30.0628937,12.2533449 30.0628937,11.8532442 29.8313171,11.6198521 L28.46291,10.1750441 C28.2418596,9.94165198 27.8629161,9.94165198 27.6418657,10.1750441 L26.5681924,11.3086627 L28.7576438,13.6203556 L29.8313171,12.4978509 Z M19.4735277,18.7994368 L19.4735277,21.1111297 L21.6629791,21.1111297 L28.1365975,14.2760762 L25.9471461,11.9643833 L19.4735277,18.7994368 Z" id="Shape"></path>
                </g>
            </g>
        </g>
    </g>
</svg>
