<?xml version="1.0" encoding="UTF-8"?>
<svg width="24px" height="24px" viewBox="0 0 24 24" version="1.1" xmlns="http://www.w3.org/2000/svg" xmlns:xlink="http://www.w3.org/1999/xlink">
    <!-- Generator: Sketch 56.3 (81716) - https://sketch.com -->
    <title></title>
    <desc>Created with Sketch.</desc>
    <g id="Icons" stroke="none" stroke-width="1" fill="none" fill-rule="evenodd">
        <g id="Artboard" transform="translate(-582.000000, -1020.000000)" fill="#5F697A" fill-rule="nonzero">
            <g id="Group-2-Copy-22" transform="translate(574.000000, 1012.000000)">
                <g id="icon/40px/Template">
                    <path d="M10.6666667,8 C9.18666667,8 8,9.18666667 8,10.6666667 L8,29.3333333 C8,30.8133333 9.18666667,32 10.6666667,32 L29.3333333,32 C30.8133333,32 32,30.8133333 32,29.3333333 L32,10.6666667 C32,9.18666667 30.8133333,8 29.3333333,8 L10.6666667,8 L10.6666667,8 Z M10.6666667,10.6666667 L29.3333333,10.6666667 L29.3333333,29.3333333 L10.6666667,29.3333333 L10.6666667,10.6666667 L10.6666667,10.6666667 Z M13.3333333,13.3333333 L13.3333333,16 L26.6666667,16 L26.6666667,13.3333333 L13.3333333,13.3333333 L13.3333333,13.3333333 Z M13.3333333,18.6666667 L13.3333333,21.3333333 L26.6666667,21.3333333 L26.6666667,18.6666667 L13.3333333,18.6666667 L13.3333333,18.6666667 Z M13.3333333,24 L13.3333333,26.6666667 L22.6666667,26.6666667 L22.6666667,24 L13.3333333,24 Z" id="Shape"></path>
                </g>
            </g>
        </g>
    </g>
</svg>
