<svg width="15" height="15" viewBox="0 0 15 15" fill="none" xmlns="http://www.w3.org/2000/svg">
<path opacity="0.3" fill-rule="evenodd" clip-rule="evenodd" d="M1.5 7.5C1.5 4.1925 4.1925 1.5 7.5 1.5C10.8075 1.5 13.5 4.1925 13.5 7.5C13.5 10.8075 10.8075 13.5 7.5 13.5C4.1925 13.5 1.5 10.8075 1.5 7.5ZM3 8.25L6 11.25L12 5.25L10.9425 4.185L6 9.1275L4.0575 7.1925L3 8.25Z" fill="#63C6F2"/>
<path fill-rule="evenodd" clip-rule="evenodd" d="M7.5 0C3.36 0 0 3.36 0 7.5C0 11.64 3.36 15 7.5 15C11.64 15 15 11.64 15 7.5C15 3.36 11.64 0 7.5 0ZM7.5 13.5C4.1925 13.5 1.5 10.8075 1.5 7.5C1.5 4.1925 4.1925 1.5 7.5 1.5C10.8075 1.5 13.5 4.1925 13.5 7.5C13.5 10.8075 10.8075 13.5 7.5 13.5ZM6 9.1275L10.9425 4.185L12 5.25L6 11.25L3 8.25L4.0575 7.1925L6 9.1275Z" fill="#63C6F2"/>
</svg>
