<svg width="18" height="10" viewBox="0 0 18 10" fill="none" xmlns="http://www.w3.org/2000/svg">
<path fill-rule="evenodd" clip-rule="evenodd" d="M4.25757 0C3.24105 0 2.414 0.860633 2.414 1.91843C2.414 2.97623 3.24105 3.83662 4.25757 3.83662C5.27409 3.83662 6.10114 2.97623 6.10114 1.91843C6.10114 0.860633 5.27409 0 4.25757 0ZM0.710523 1.18091H2.12565C2.05128 1.41307 2.00936 1.66051 2.00936 1.91831C2.00936 2.17758 2.05175 2.42651 2.12707 2.65966H0.710523C0.307893 2.65966 0 2.33926 0 1.92028C0 1.5013 0.307893 1.18091 0.710523 1.18091ZM6.38959 1.18091H17.2895C17.6921 1.18091 18 1.5013 18 1.92028C18 2.33926 17.6921 2.65966 17.2895 2.65966H6.38817C6.46324 2.42651 6.50564 2.17758 6.50564 1.91831C6.50564 1.66051 6.46396 1.41307 6.38959 1.18091ZM11.1314 7.34237H17.2895C17.6921 7.34237 18 7.66276 18 8.08174C18 8.50072 17.6921 8.82112 17.2895 8.82112H11.1314C11.206 8.58846 11.2481 8.34027 11.2481 8.08174C11.2481 7.82321 11.206 7.57502 11.1314 7.34237ZM6.86883 7.34237H0.710736C0.307869 7.34237 0.000213157 7.66276 0.000213157 8.08174C0.000213157 8.50072 0.307869 8.82112 0.710736 8.82112H6.86883C6.79399 8.58846 6.75184 8.34027 6.75184 8.08174C6.75184 7.82321 6.79399 7.57502 6.86883 7.34237ZM7.15648 8.08181C7.15648 7.02401 7.98353 6.16338 9.00005 6.16338C10.0166 6.16338 10.8436 7.02401 10.8436 8.08181C10.8436 9.13961 10.0166 10 9.00005 10C7.98353 10 7.15648 9.13961 7.15648 8.08181Z" fill="var(--primary)"/>
</svg>
