<svg width="15" height="15" viewBox="0 0 15 15" fill="none" xmlns="http://www.w3.org/2000/svg">
<path opacity="0.3" fill-rule="evenodd" clip-rule="evenodd" d="M1.5 7.5C1.5 4.1925 4.1925 1.5 7.5 1.5C10.8075 1.5 13.5 4.1925 13.5 7.5C13.5 10.8075 10.8075 13.5 7.5 13.5C4.1925 13.5 1.5 10.8075 1.5 7.5ZM8.4225 12.75V11.4975C9.57 11.28 10.47 10.62 10.4775 9.42C10.4775 7.77 9.06 7.2 7.7325 6.855C6.405 6.5175 5.9775 6.15 5.9775 5.6025C5.9775 4.9725 6.57 4.53 7.5525 4.53C8.5875 4.53 8.9775 5.0325 9.0075 5.76H10.29C10.2525 4.755 9.645 3.825 8.4225 3.5325V2.25H6.6675V3.525C5.5425 3.7725 4.6275 4.5 4.6275 5.6325C4.6275 6.975 5.745 7.6425 7.3725 8.04C8.835 8.385 9.1275 8.895 9.1275 9.4425C9.1275 9.84 8.835 10.485 7.5525 10.485C6.3525 10.485 5.88 9.945 5.8125 9.255H4.53C4.5975 10.5225 5.55 11.25 6.675 11.4825V12.75H8.4225Z" fill="#30D19F"/>
<path fill-rule="evenodd" clip-rule="evenodd" d="M7.5 0C3.36 0 0 3.36 0 7.5C0 11.64 3.36 15 7.5 15C11.64 15 15 11.64 15 7.5C15 3.36 11.64 0 7.5 0ZM7.5 13.5C4.1925 13.5 1.5 10.8075 1.5 7.5C1.5 4.1925 4.1925 1.5 7.5 1.5C10.8075 1.5 13.5 4.1925 13.5 7.5C13.5 10.8075 10.8075 13.5 7.5 13.5ZM5.9775 5.6025C5.9775 6.15 6.405 6.5175 7.7325 6.855C9.0525 7.2 10.47 7.77 10.4775 9.42C10.47 10.6275 9.57 11.28 8.43 11.4975V12.75H6.675V11.475C5.55 11.2425 4.605 10.5225 4.53 9.2475H5.82C5.8875 9.9375 6.36 10.4775 7.56 10.4775C8.8425 10.4775 9.135 9.8325 9.135 9.435C9.135 8.895 8.8425 8.3775 7.38 8.0325C5.7525 7.6425 4.635 6.9675 4.635 5.625C4.635 4.4925 5.5425 3.7575 6.675 3.5175V2.25H8.4225V3.5325C9.6375 3.8325 10.2525 4.755 10.29 5.76H9.0075C8.9775 5.025 8.5875 4.53 7.5525 4.53C6.57 4.53 5.9775 4.9725 5.9775 5.6025Z" fill="#30D19F"/>
</svg>
