<svg width="15" height="18" viewBox="0 0 15 18" fill="none" xmlns="http://www.w3.org/2000/svg">
<path opacity="0.3" fill-rule="evenodd" clip-rule="evenodd" d="M1.66675 9.99984C1.66675 6.77484 4.27508 4.1665 7.50008 4.1665C10.7251 4.1665 13.3334 6.77484 13.3334 9.99984C13.3334 13.2248 10.7251 15.8332 7.50008 15.8332C4.27508 15.8332 1.66675 13.2248 1.66675 9.99984ZM6.66675 5.83317V10.8332H8.33341V5.83317H6.66675Z" fill="#ACACAC"/>
<path fill-rule="evenodd" clip-rule="evenodd" d="M10 0H5V1.66667H10V0ZM6.66667 5.83333V10.8333H8.33333V5.83333H6.66667ZM13.3583 5.31667L14.5417 4.13333C14.1833 3.70833 13.7917 3.30833 13.3667 2.95833L12.1833 4.14167C10.8917 3.10833 9.26667 2.49167 7.5 2.49167C3.35833 2.49167 0 5.85 0 9.99167C0 14.1333 3.35 17.4917 7.5 17.4917C11.65 17.4917 15 14.1333 15 9.99167C15 8.23333 14.3833 6.6 13.3583 5.31667ZM1.66667 10C1.66667 13.225 4.275 15.8333 7.5 15.8333C10.725 15.8333 13.3333 13.225 13.3333 10C13.3333 6.775 10.725 4.16667 7.5 4.16667C4.275 4.16667 1.66667 6.775 1.66667 10Z" fill="#ACACAC"/>
</svg>
