<svg width="17" height="12" viewBox="0 0 17 12" fill="none" xmlns="http://www.w3.org/2000/svg">
<path opacity="0.3" fill-rule="evenodd" clip-rule="evenodd" d="M1.63501 6C2.87251 3.4725 5.40751 1.875 8.25001 1.875C11.0925 1.875 13.6275 3.4725 14.865 6C13.6275 8.5275 11.1 10.125 8.25001 10.125C5.40001 10.125 2.87251 8.5275 1.63501 6ZM4.87501 6C4.87501 7.86 6.39001 9.375 8.25001 9.375C10.11 9.375 11.625 7.86 11.625 6C11.625 4.14 10.11 2.625 8.25001 2.625C6.39001 2.625 4.87501 4.14 4.87501 6Z" fill="#6200EE"/>
<path fill-rule="evenodd" clip-rule="evenodd" d="M0 6C1.2975 2.7075 4.5 0.375 8.25 0.375C12 0.375 15.2025 2.7075 16.5 6C15.2025 9.2925 12 11.625 8.25 11.625C4.5 11.625 1.2975 9.2925 0 6ZM1.635 6C2.8725 8.5275 5.4075 10.125 8.25 10.125C11.0925 10.125 13.6275 8.5275 14.865 6C13.6275 3.4725 11.0925 1.875 8.25 1.875C5.4075 1.875 2.8725 3.4725 1.635 6ZM8.25 2.625C6.39 2.625 4.875 4.14 4.875 6C4.875 7.86 6.39 9.375 8.25 9.375C10.11 9.375 11.625 7.86 11.625 6C11.625 4.14 10.11 2.625 8.25 2.625ZM6.375 6C6.375 7.035 7.215 7.875 8.25 7.875C9.285 7.875 10.125 7.035 10.125 6C10.125 4.965 9.285 4.125 8.25 4.125C7.215 4.125 6.375 4.965 6.375 6Z" fill="#6200EE"/>
</svg>
