<svg xmlns="http://www.w3.org/2000/svg" viewBox="0 0 166.78 80.87"><title>logoBFdark</title><g id="Calque_2" data-name="Calque 2"><g id="Calque_1-2" data-name="Calque 1"><polygon points="1.5 14.78 0 14.78 0 0 14.78 0 14.78 1.5 1.5 1.5 1.5 14.78"/><polygon points="166.78 80.87 152 80.87 152 79.37 165.28 79.37 165.28 66.09 166.78 66.09 166.78 80.87"/><path d="M33.3,28.22a6.12,6.12,0,0,0,3.47-5.63c0-4-3.33-6.77-10.13-6.77H13.39v25.9h14c7,0,10.65-2.62,10.65-7.1A6.53,6.53,0,0,0,33.3,28.22ZM20.64,21.11h5c2.45,0,3.7.85,3.7,2.48s-1.25,2.52-3.7,2.52h-5Zm6.14,15.32H20.64V31.18h6.14c2.52,0,3.85.85,3.85,2.63S29.3,36.43,26.78,36.43Z"/><polygon points="50.09 15.82 42.77 15.82 42.77 41.73 62.45 41.73 62.45 35.91 50.09 35.91 50.09 15.82"/><polygon points="93.79 23.67 85.01 23.67 85.01 15.7 67.76 15.7 67.76 41.73 93.79 41.73 93.79 23.67"/><path d="M124.48,37.36l-4.66-4.22a7.65,7.65,0,0,1-6.1,3c-4.26,0-7.22-3-7.22-7.4s3-7.4,7.22-7.4a7.66,7.66,0,0,1,6.1,3l4.66-4.22C122,17,118.12,15.3,113.35,15.3c-8.22,0-14.25,5.59-14.25,13.47s6,13.47,14.25,13.47C118.12,42.24,122,40.5,124.48,37.36Z"/><polygon points="154.56 41.73 143.43 27.29 154.01 15.82 145.94 15.82 135.92 26.59 135.92 15.82 128.66 15.82 128.66 41.73 135.92 41.73 135.92 35.25 138.65 32.33 146.06 41.73 154.56 41.73"/><polygon points="13.39 64.63 15.11 64.63 15.11 59.76 21.14 59.76 21.14 58.29 15.11 58.29 15.11 54.09 21.88 54.09 21.88 52.6 13.39 52.6 13.39 64.63"/><path d="M47.83,56.79c0-2.61-1.89-4.19-5-4.19H38.12v12h1.72V61h3c.26,0,.52,0,.76,0l2.59,3.7H48l-2.86-4A3.79,3.79,0,0,0,47.83,56.79Zm-5.07,2.72H39.84V54.09h2.92c2.2,0,3.35,1,3.35,2.7S45,59.51,42.76,59.51Z"/><path d="M68.06,52.6l-5.44,12h1.76l1.33-3H72.1l1.32,3h1.81l-5.47-12Zm-1.75,7.64,2.59-5.89,2.6,5.89Z"/><polygon points="102.21 52.6 97.26 61.05 92.25 52.6 90.84 52.6 90.84 64.63 92.49 64.63 92.49 55.91 96.83 63.17 97.62 63.17 101.97 55.86 101.99 64.63 103.64 64.63 103.62 52.6 102.21 52.6"/><polygon points="122.79 59.25 128.82 59.25 128.82 57.79 122.79 57.79 122.79 54.09 129.56 54.09 129.56 52.6 121.07 52.6 121.07 64.63 129.8 64.63 129.8 63.13 122.79 63.13 122.79 59.25"/><path d="M147.28,55.83c0-1,.88-1.91,2.92-1.91a6.21,6.21,0,0,1,3.3,1l.57-1.37a7.08,7.08,0,0,0-3.87-1.07c-3.16,0-4.6,1.58-4.6,3.44,0,4.47,7.28,2.61,7.28,5.55,0,1-.89,1.85-3,1.85a6.16,6.16,0,0,1-4-1.39l-.64,1.34a7.13,7.13,0,0,0,4.61,1.51c3.18,0,4.66-1.58,4.66-3.42C154.57,56.93,147.28,58.77,147.28,55.83Z"/><polygon points="92.64 15.14 89.53 15.7 86.67 16.21 87.75 22.17 93.71 21.1 92.74 15.7 92.64 15.14"/><rect x="92.17" y="11.52" width="1.66" height="1.66" transform="translate(-0.77 9.27) rotate(-5.68)"/><polygon points="95.38 14.96 95.21 14.9 94.38 17.59 95.38 17.9 97.06 18.42 97.9 15.74 95.38 14.96"/></g></g></svg>
