<?xml version="1.0" encoding="utf-8"?>
<!-- Generator: Adobe Illustrator 23.0.6, SVG Export Plug-In . SVG Version: 6.00 Build 0)  -->
<svg version="1.1" id="Calque_1" xmlns="http://www.w3.org/2000/svg" xmlns:xlink="http://www.w3.org/1999/xlink" x="0px" y="0px"
	 viewBox="0 0 170 40" style="enable-background:new 0 0 170 40;" xml:space="preserve">
<style type="text/css">
	.st0{fill-rule:evenodd;clip-rule:evenodd;fill:#1A49F5;}
</style>
<path class="st0" d="M33.5,9.3v1.4h-1.4V9.3H33.5z M13.6,4v1.3H8.1v5.5H6.8V4H13.6z M30.2,10.7l1.9,1.9l-1.9,1.9l-1.9-1.9L30.2,10.7
	z M55,12.8h-2.9v3H55c1.4,0,2.2-0.5,2.2-1.5C57.3,13.3,56.5,12.8,55,12.8z M149.2,15.6c-1.2,0-2.1,0.7-2.4,1.9l0,0.2h4.8
	C151.4,16.4,150.5,15.6,149.2,15.6z M55.5,18h-3.5v3.2h3.5c1.5,0,2.4-0.5,2.4-1.6C57.9,18.5,57.1,18,55.5,18z M71.3,15.8
	c-1.4,0-2.5,1-2.5,2.7c0,1.7,1.1,2.7,2.5,2.7s2.5-1,2.5-2.7C73.8,16.8,72.7,15.8,71.3,15.8z M121.8,19.3h-2c-1.3,0-1.8,0.5-1.8,1.2
	c0,0.7,0.6,1.2,1.6,1.2c0.9,0,1.7-0.4,2-1.2l0.1-0.2V19.3z M90.3,9.8v7.7l4.2-3.9h3.4l-4.1,4.2l4.5,5.7h-3.4l-3.1-3.9l-1.4,1.4v2.5
	h-2.8V9.8H90.3z M115.2,13.4v2.6c-0.2,0-0.4,0-0.6,0c-1.5,0-2.5,0.8-2.6,2.5l0,0.2v4.6h-2.8v-9.8h2.7v1.3
	C112.6,13.9,113.7,13.4,115.2,13.4z M64.9,9.8v13.5H62V9.8H64.9z M108.4,10.6V13h-6.7v3.4h5.9v2.4h-5.9v4.7h-3V10.6H108.4z
	 M55.4,10.6c3.2,0,4.8,1.3,4.8,3.3c0,1.3-0.7,2.3-1.7,2.8c1.4,0.5,2.3,1.6,2.3,3.2c0,2.1-1.7,3.4-4.8,3.5l-0.3,0h-6.6V10.6H55.4z
	 M138.9,13.4c2.3,0,3.9,1.3,4,4.1l0,0.3v5.6h-2.8v-5.2c0-1.6-0.7-2.3-1.9-2.3c-1.2,0-2.1,0.8-2.2,2.4l0,0.2v4.9h-2.8v-5.2
	c0-1.6-0.7-2.3-1.9-2.3c-1.2,0-2.1,0.8-2.1,2.4l0,0.2v4.9h-2.8v-9.8h2.7v1.1c0.7-0.8,1.8-1.3,3.1-1.3c1.4,0,2.5,0.5,3.2,1.6
	C136.1,14,137.4,13.4,138.9,13.4z M159.1,13.4c1.3,0,2.6,0.3,3.6,0.7l0.2,0.1l-0.9,2c-1-0.5-1.9-0.7-2.8-0.7c-1.3,0-1.8,0.4-1.8,0.9
	c0,1.7,5.9,0.1,5.9,3.9c0,1.8-1.7,3.1-4.6,3.1c-1.6,0-3.1-0.4-4.1-0.9l-0.2-0.1l0.9-2c0.9,0.6,2.2,0.9,3.4,0.9
	c1.3,0,1.8-0.3,1.8-0.9c0-1.6-5.9,0-5.9-3.9C154.6,14.7,156.2,13.4,159.1,13.4z M119.9,13.4c2.9,0,4.6,1.3,4.7,4.1l0,0.2v5.6H122
	v-1.2c-0.5,0.9-1.6,1.4-3,1.4c-2.3,0-3.7-1.3-3.7-3c0-1.7,1.1-2.9,3.9-2.9l0.3,0h2.3c0-1.2-0.7-1.9-2.3-1.9c-1,0-2,0.3-2.7,0.8
	l-0.2,0.1l-1-2C116.8,13.8,118.4,13.4,119.9,13.4z M71.3,13.4c3.1,0,5.4,2.1,5.4,5.1c0,3-2.3,5.1-5.4,5.1c-3.1,0-5.4-2.1-5.4-5.1
	C65.9,15.5,68.1,13.4,71.3,13.4z M82.4,13.4c2,0,3.6,0.8,4.3,2.3l0.1,0.2l-2.2,1.2c-0.5-0.9-1.3-1.4-2.2-1.4c-1.4,0-2.6,1-2.6,2.7
	c0,1.7,1.1,2.7,2.6,2.7c0.8,0,1.6-0.3,2.1-1.2l0.1-0.2l2.2,1.2c-0.7,1.6-2.3,2.5-4.4,2.5c-3.2,0-5.5-2.1-5.5-5.1
	C76.9,15.5,79.2,13.4,82.4,13.4z M149.2,13.4c2.9,0,5.1,1.9,5.1,5.1c0,0.2,0,0.4,0,0.6l0,0.2h-7.4c0.3,1.2,1.3,2,2.8,2
	c1,0,1.7-0.3,2.3-0.8l0.2-0.1l1.5,1.6c-0.9,1-2.3,1.6-4.1,1.6c-3.4,0-5.6-2.1-5.6-5.1C143.9,15.5,146.2,13.4,149.2,13.4z M83,28.2
	c-0.7,0-1.1,0.3-1.1,0.8c0,0.5,0.4,0.8,1.1,0.8c0.7,0,1.1-0.3,1.1-0.8C84.1,28.5,83.6,28.2,83,28.2z M78.1,29.2c-0.6,0-1,0.4-1.1,1
	l0,0.1h2.3C79.2,29.6,78.7,29.2,78.1,29.2z M50.2,29.2c-0.7,0-1.2,0.5-1.2,1.2c0,0.7,0.5,1.2,1.2,1.2c0.7,0,1.2-0.5,1.2-1.2
	C51.4,29.7,50.9,29.2,50.2,29.2z M74.4,29.2c-0.7,0-1.2,0.5-1.2,1.2c0,0.7,0.5,1.2,1.2,1.2c0.7,0,1.2-0.5,1.2-1.2
	C75.5,29.7,75,29.2,74.4,29.2z M83,29.9c-0.8,0-1.2,0.3-1.2,0.9c0,0.5,0.4,0.9,1.2,0.9c0.8,0,1.2-0.3,1.2-0.9
	C84.2,30.3,83.8,29.9,83,29.9z M71.8,30.5h-1c-0.6,0-0.8,0.3-0.8,0.6c0,0.4,0.3,0.6,0.8,0.6c0.4,0,0.8-0.2,1-0.5l0.1-0.1V30.5z
	 M62.7,30.5h-1c-0.6,0-0.8,0.3-0.8,0.6c0,0.4,0.3,0.6,0.8,0.6c0.4,0,0.8-0.2,1-0.5l0.1-0.1V30.5z M68,28.9c0.4,0,0.8,0.1,1,0.4
	l0.1,0.1l-0.2,0.2c-0.2-0.3-0.5-0.4-0.9-0.4c-0.7,0-1.2,0.5-1.2,1.2c0,0.7,0.5,1.2,1.2,1.2c0.3,0,0.6-0.1,0.8-0.3l0.1-0.1l0.2,0.2
	c-0.2,0.4-0.6,0.5-1.1,0.5c-0.9,0-1.5-0.6-1.5-1.5C66.5,29.5,67.1,28.9,68,28.9z M75.8,27.7v4.2h-0.3v-0.7c-0.2,0.5-0.7,0.7-1.2,0.7
	c-0.8,0-1.5-0.6-1.5-1.5c0-0.9,0.6-1.5,1.5-1.5c0.5,0,0.9,0.2,1.1,0.6l0.1,0.1v-1.9H75.8z M64.9,28.9c0.3,0,0.7,0.1,0.9,0.2l0.1,0.1
	l-0.1,0.2c-0.2-0.2-0.6-0.3-0.9-0.3c-0.6,0-0.8,0.2-0.8,0.6c0,0.9,1.9,0.3,1.9,1.4c0,0.5-0.4,0.8-1.2,0.8c-0.4,0-0.8-0.1-1.1-0.3
	l-0.1-0.1l0.1-0.2c0.2,0.2,0.6,0.4,1.1,0.4c0.6,0,0.9-0.2,0.9-0.6c0-0.9-1.9-0.2-1.9-1.4C63.8,29.3,64.2,28.9,64.9,28.9z M49,27.7
	v1.9c0.2-0.4,0.7-0.7,1.2-0.7c0.8,0,1.5,0.6,1.5,1.5c0,0.9-0.6,1.5-1.5,1.5c-0.5,0-0.9-0.2-1.1-0.6L49,31.2v0.7h-0.3v-4.2H49z
	 M78.1,28.9c0.8,0,1.4,0.6,1.4,1.5l0,0l0,0H77c0,0.7,0.5,1.2,1.2,1.2c0.3,0,0.6-0.1,0.8-0.3l0.1-0.1l0.2,0.2
	c-0.3,0.3-0.7,0.5-1.1,0.5c-0.9,0-1.5-0.6-1.5-1.5S77.3,28.9,78.1,28.9z M70.9,28.9c0.7,0,1.1,0.3,1.1,1l0,0.1v1.9h-0.3v-0.5
	c-0.2,0.3-0.5,0.5-1.1,0.5c-0.7,0-1.1-0.3-1.1-0.8c0-0.4,0.2-0.8,0.9-0.8l0.2,0h1V30c0-0.5-0.3-0.8-0.9-0.8c-0.4,0-0.7,0.1-0.9,0.3
	l-0.1,0.1l-0.1-0.2C70,29.1,70.5,28.9,70.9,28.9z M61.8,28.9c0.7,0,1.1,0.3,1.1,1l0,0.1v1.9h-0.3v-0.5c-0.2,0.3-0.5,0.5-1.1,0.5
	c-0.7,0-1.1-0.3-1.1-0.8c0-0.4,0.2-0.8,0.9-0.8l0.2,0h1V30c0-0.5-0.3-0.8-0.9-0.8c-0.4,0-0.7,0.1-0.9,0.3l-0.1,0.1l-0.1-0.2
	C61,29.1,61.4,28.9,61.8,28.9z M58.6,27.9c0.5,0,0.9,0.1,1.3,0.4l0.1,0.1l-0.2,0.2c-0.3-0.3-0.7-0.5-1.2-0.5c-1,0-1.8,0.7-1.8,1.7
	c0,1,0.8,1.7,1.8,1.7c0.4,0,0.8-0.1,1.1-0.4l0.1-0.1l0.2,0.2c-0.3,0.4-0.8,0.6-1.4,0.6c-1.2,0-2-0.8-2-2S57.5,27.9,58.6,27.9z
	 M83,27.9c0.8,0,1.4,0.4,1.4,1c0,0.4-0.3,0.7-0.7,0.9c0.5,0.1,0.8,0.5,0.8,1c0,0.7-0.6,1.1-1.5,1.1s-1.5-0.4-1.5-1.1
	c0-0.5,0.3-0.8,0.8-1c-0.4-0.1-0.7-0.5-0.7-0.9C81.6,28.3,82.2,27.9,83,27.9z M52.2,28.9l1.2,2.6l1.2-2.6h0.3l-1.5,3.3
	c-0.2,0.5-0.5,0.7-0.9,0.7c-0.2,0-0.4-0.1-0.6-0.2l-0.1-0.1l0.1-0.2c0.2,0.2,0.3,0.2,0.5,0.2c0.2,0,0.4-0.1,0.6-0.4l0.1-0.1l0.2-0.4
	l-1.3-2.9H52.2z M36.1,21.2H9.4C10,28,15.8,33.4,22.7,33.4S35.5,28,36.1,21.2z M22.7,5.3c2.8,0,5.4,0.8,7.6,2.1l0.3,0.2l-1,0.9
	C28,7.5,26,6.8,23.8,6.7l-0.4,0v13.2h12.7c0-2.4-0.7-4.6-1.8-6.6l-0.2-0.3l1-0.9c1.5,2.3,2.3,5,2.3,7.9c0,8.1-6.6,14.7-14.7,14.7
	S8.1,28.1,8.1,20S14.6,5.3,22.7,5.3z M38.7,29.2V36h-6.8v-1.3h5.5v-5.5H38.7z"/>
</svg>
