<?xml version="1.0" encoding="UTF-8"?>
<svg width="15px" height="15px" viewBox="0 0 15 15" version="1.1" xmlns="http://www.w3.org/2000/svg" xmlns:xlink="http://www.w3.org/1999/xlink">
    <!-- Generator: Sketch 54.1 (76490) - https://sketchapp.com -->
    <title>blacklister</title>
    <desc>Created with Sketch.</desc>
    <g id="Movie-Financing" stroke="none" stroke-width="1" fill="none" fill-rule="evenodd">
        <g id="sous-menus-delivery-list-copy-15" transform="translate(-1237.000000, -258.000000)" fill="#ABABAB" fill-rule="nonzero">
            <g id="Group-11-Copy" transform="translate(1226.000000, 240.000000)">
                <g id="blacklister" transform="translate(11.000000, 18.000000)">
                    <path d="M7.5,0 C3.365625,0 0,3.365625 0,7.5 C0,11.634375 3.365625,15 7.5,15 C11.634375,15 15,11.634375 15,7.5 C15,3.365625 11.634375,0 7.5,0 Z" id="Shape" fill-opacity="0.15"></path>
                    <path d="M11.2930769,7.78846154 C10.595,9.21423077 9.16923077,10.1153846 7.56153846,10.1153846 C5.95384615,10.1153846 4.52807692,9.21423077 3.83,7.78846154 C4.52807692,6.36269231 5.95807692,5.46153846 7.56153846,5.46153846 C9.165,5.46153846 10.595,6.36269231 11.2930769,7.78846154 Z M7.56153846,4.61538462 C5.44615385,4.61538462 3.63961538,5.93115385 2.90769231,7.78846154 C3.63961538,9.64576923 5.44615385,10.9615385 7.56153846,10.9615385 C9.67692308,10.9615385 11.4834615,9.64576923 12.2153846,7.78846154 C11.4834615,5.93115385 9.67692308,4.61538462 7.56153846,4.61538462 Z M8.61923077,7.78846154 C8.61923077,8.37230769 8.14538462,8.84615385 7.56153846,8.84615385 C6.97769231,8.84615385 6.50384615,8.37230769 6.50384615,7.78846154 C6.50384615,7.20461538 6.97769231,6.73076923 7.56153846,6.73076923 C8.14538462,6.73076923 8.61923077,7.20461538 8.61923077,7.78846154 Z M7.56153846,5.88461538 C6.51230769,5.88461538 5.65769231,6.73923077 5.65769231,7.78846154 C5.65769231,8.83769231 6.51230769,9.69230769 7.56153846,9.69230769 C8.61076923,9.69230769 9.46538462,8.83769231 9.46538462,7.78846154 C9.46538462,6.73923077 8.61076923,5.88461538 7.56153846,5.88461538 Z" id="Shape"></path>
                </g>
            </g>
        </g>
    </g>
</svg>