<?xml version="1.0" encoding="UTF-8"?>
<svg width="26px" height="26px" viewBox="0 0 26 26" version="1.1" xmlns="http://www.w3.org/2000/svg" xmlns:xlink="http://www.w3.org/1999/xlink">
    <!-- Generator: Sketch 54.1 (76490) - https://sketchapp.com -->
    <title>Group 13</title>
    <desc>Created with Sketch.</desc>
    <g id="Movie-Financing" stroke="none" stroke-width="1" fill="none" fill-rule="evenodd">
        <g id="Settings" transform="translate(-419.000000, -2205.000000)" fill="#30D19F" fill-rule="nonzero">
            <g id="Group-4-Copy-9" transform="translate(391.000000, 2186.000000)">
                <g id="Group-13" transform="translate(28.000000, 19.000000)">
                    <path d="M13,0 C5.83375,0 0,5.83375 0,13 C0,20.16625 5.83375,26 13,26 C20.16625,26 26,20.16625 26,13 C26,5.83375 20.16625,0 13,0 Z" id="Shape" opacity="0.15"></path>
                    <path d="M13.31,12.14 C11.54,11.69 10.97,11.2 10.97,10.47 C10.97,9.63 11.76,9.04 13.07,9.04 C14.45,9.04 14.97,9.7 15.01,10.68 L16.72,10.68 C16.67,9.34 15.85,8.11 14.23,7.71 L14.23,6 L11.9,6 L11.9,7.69 C10.39,8.01 9.18,8.99 9.18,10.5 C9.18,12.29 10.67,13.19 12.84,13.71 C14.79,14.17 15.18,14.86 15.18,15.58 C15.18,16.11 14.79,16.97 13.08,16.97 C11.48,16.97 10.85,16.25 10.76,15.33 L9.04,15.33 C9.14,17.03 10.4,17.99 11.9,18.3 L11.9,20 L14.24,20 L14.24,18.33 C15.76,18.04 16.96,17.17 16.97,15.56 C16.96,13.36 15.07,12.6 13.31,12.14 L13.31,12.14 Z" id="Shape"></path>
                </g>
            </g>
        </g>
    </g>
</svg>