<?xml version="1.0" encoding="UTF-8"?>
<svg width="251px" height="250px" viewBox="0 0 251 250" version="1.1" xmlns="http://www.w3.org/2000/svg" xmlns:xlink="http://www.w3.org/1999/xlink">
    <!-- Generator: Sketch 57.1 (83088) - https://sketch.com -->
    <title>Organisation</title>
    <desc>Created with Sketch.</desc>
    <defs>
        <circle id="path-1" cx="125.442109" cy="125" r="125"></circle>
        <path d="M70.991413,0 L58.5591848,2.09467391 L46.1265761,4.18896739 L45.7590761,15.7888043 C40.7788043,18.010163 36.0690217,20.93 31.7925543,24.5281522 L31.7925543,24.5281522 L21.2035326,19.80125 L13.8938587,30.0733696 L6.58380435,40.3451087 L14.5192935,48.8006522 C12.52125,54.0202174 11.3057609,59.4265761 10.838587,64.8599457 L10.838587,64.8599457 L0,69.0074457 L2.09467391,81.4400543 L4.18934783,93.872663 L15.7888043,94.2405435 C18.010163,99.2208152 20.9296196,103.930217 24.5277717,108.206685 L24.5277717,108.206685 L19.8008696,118.795707 L30.0733696,126.105761 L40.3454891,133.415435 L48.8002717,125.479946 C54.019837,127.47837 59.4265761,128.693859 64.8595652,129.161033 L64.8595652,129.161033 L69.0074457,139.99962 L81.4400543,137.904946 L93.8722826,135.810272 L94.240163,124.210815 C99.2204348,121.989457 103.930598,119.06962 108.207065,115.471467 L108.207065,115.471467 L118.795707,120.19837 L126.10538,109.92625 L133.415435,99.6541304 L125.479946,91.1989674 C127.477989,85.9797826 128.693478,80.5730435 129.160652,75.1400543 L129.160652,75.1400543 L139.999239,70.9917935 L137.904946,58.5591848 L135.810272,46.1269565 L124.210815,45.7590761 C121.989076,40.7791848 119.069239,36.0686413 115.471087,31.7925543 L115.471087,31.7925543 L120.19837,21.203913 L109.92625,13.8942391 L99.6545109,6.58418478 L91.198587,14.5196739 C85.9794022,12.52125 80.5730435,11.3057609 75.1396739,10.8389674 L75.1396739,10.8389674 L70.991413,0 Z M54.9258083,91.181621 C43.2274608,82.8568377 40.4928445,66.6248061 48.8176347,54.9261483 L48.8176347,54.9261483 C57.1427448,43.2274906 73.3747898,40.4928765 85.0734572,48.8176598 L85.0734572,48.8176598 C96.7718046,57.142763 99.5067409,73.3751146 91.1816308,85.0737724 L91.1816308,85.0737724 C86.1104165,92.1993824 78.104297,95.9997505 69.9772362,95.9997505 L69.9772362,95.9997505 C64.7623642,95.9997505 59.4985398,94.4358341 54.9258083,91.181621 L54.9258083,91.181621 Z" id="path-3"></path>
    </defs>
    <g id="Organisation" stroke="none" stroke-width="1" fill="none" fill-rule="evenodd" transform="translate(0.000000, 0.000000)">
        <g id="org" transform="translate(-0.442109, 0.000000)">
            <mask id="mask-2" fill="white">
                <use xlink:href="#path-1"></use>
            </mask>
            <use id="Oval" fill="#F1F2FF" fill-rule="nonzero" xlink:href="#path-1"></use>
            <g id="rock-1" mask="url(#mask-2)" fill="#E3E5FF" fill-rule="nonzero">
                <g transform="translate(-81.000000, 147.435897)" id="Path">
                    <path d="M0.0126222575,108.896576 C0.0126222575,84.6022682 38.5427574,0 104.270635,0 C168.479972,0 183.234747,26.9130109 236.519658,26.9130109 C276.319021,26.9130109 273.599247,8.97100362 310.950813,8.97100362 C387.263145,8.97100362 416.954014,78.1981125 416.954014,108.974359 L0.0126222575,108.896576 Z"></path>
                </g>
            </g>
            <g id="plant-2" mask="url(#mask-2)">
                <g transform="translate(48.369848, 153.520721) rotate(-32.000000) translate(-48.369848, -153.520721) translate(-16.630152, 65.020721)" id="Path">
                    <path d="M108.276033,0 C117.859504,0 128.420661,15.4603306 129.108264,20.8322314 C131.052893,35.9809917 125.014876,46.1231405 125.358678,52.2256198 C126.132231,65.8380165 131.181818,78.0107438 127.442975,85.4347107 C105.38595,129.37686 30.2008264,119.653719 21.2404959,134.770248 C18.9413223,139.067769 12.3338843,152.626446 12.3338843,152.626446 C8.84214876,149.134711 0,125.208264 0,115.871901 C0,106.535537 12.9570248,80.8578512 38.3768595,62.5396694 C51.8173554,52.8595041 76.5066116,0 108.276033,0 Z" stroke="none" fill="#FFCFC9" fill-rule="nonzero"></path>
                    <path d="M4.63057851,176.359504 C7.43471074,166.690083 34.7991736,83.9628099 103.226446,45.7256198" stroke="#FF6E61" stroke-width="2" fill="none" stroke-linecap="round"></path>
                    <path d="M79.6008264,61.8198347 C80.1380165,57.7909091 82.8884298,49.4214876 79.6008264,37.0446281" stroke="#FF6E61" stroke-width="2" fill="none" stroke-linecap="round"></path>
                    <path d="M63.0016529,77.0652893 C63.5710744,70.5330579 63.0016529,61.2504132 60.6595041,55.9752066" stroke="#FF6E61" stroke-width="2" fill="none" stroke-linecap="round"></path>
                    <path d="M47.6595041,94.7280992 C59.0609079,93.1476323 70.65884,93.7492226 81.8355372,96.5008264" stroke="#FF6E61" stroke-width="2" fill="none" stroke-linecap="round"></path>
                </g>
            </g>
            <g id="Group-3" mask="url(#mask-2)">
                <g transform="translate(57.442109, 84.000000)">
                    <mask id="mask-4" fill="white">
                        <use xlink:href="#path-3"></use>
                    </mask>
                    <g id="Clip-2" stroke="none" fill="none"></g>
                    <path d="M70.991413,0 L58.5591848,2.09467391 L46.1265761,4.18896739 L45.7590761,15.7888043 C40.7788043,18.010163 36.0690217,20.93 31.7925543,24.5281522 L31.7925543,24.5281522 L21.2035326,19.80125 L13.8938587,30.0733696 L6.58380435,40.3451087 L14.5192935,48.8006522 C12.52125,54.0202174 11.3057609,59.4265761 10.838587,64.8599457 L10.838587,64.8599457 L0,69.0074457 L2.09467391,81.4400543 L4.18934783,93.872663 L15.7888043,94.2405435 C18.010163,99.2208152 20.9296196,103.930217 24.5277717,108.206685 L24.5277717,108.206685 L19.8008696,118.795707 L30.0733696,126.105761 L40.3454891,133.415435 L48.8002717,125.479946 C54.019837,127.47837 59.4265761,128.693859 64.8595652,129.161033 L64.8595652,129.161033 L69.0074457,139.99962 L81.4400543,137.904946 L93.8722826,135.810272 L94.240163,124.210815 C99.2204348,121.989457 103.930598,119.06962 108.207065,115.471467 L108.207065,115.471467 L118.795707,120.19837 L126.10538,109.92625 L133.415435,99.6541304 L125.479946,91.1989674 C127.477989,85.9797826 128.693478,80.5730435 129.160652,75.1400543 L129.160652,75.1400543 L139.999239,70.9917935 L137.904946,58.5591848 L135.810272,46.1269565 L124.210815,45.7590761 C121.989076,40.7791848 119.069239,36.0686413 115.471087,31.7925543 L115.471087,31.7925543 L120.19837,21.203913 L109.92625,13.8942391 L99.6545109,6.58418478 L91.198587,14.5196739 C85.9794022,12.52125 80.5730435,11.3057609 75.1396739,10.8389674 L75.1396739,10.8389674 L70.991413,0 Z M52.0761957,95.1859239 C38.1663587,85.2873913 34.9147826,65.9867935 44.8133152,52.0765761 L44.8133152,52.0765761 C54.7122283,38.1663587 74.0128261,34.9147826 87.9230435,44.8133152 L87.9230435,44.8133152 C101.83288,54.7122283 105.084837,74.0132065 95.1859239,87.9234239 L95.1859239,87.9234239 C89.1560326,96.396087 79.636413,100.914891 69.9729891,100.914891 L69.9729891,100.914891 C63.7722826,100.914891 57.5133696,99.0553261 52.0761957,95.1859239 L52.0761957,95.1859239 Z" id="Fill-1" stroke="#1A49F5" stroke-width="2" fill="#C7CAFD" fill-rule="evenodd" mask="url(#mask-4)"></path>
                    <rect id="Rectangle" stroke="none" fill="#C7CAFD" fill-rule="evenodd" mask="url(#mask-4)" x="30" y="34" width="80" height="72"></rect>
                </g>
            </g>
        </g>
        <circle id="Oval" fill="#F1F2FF" fill-rule="nonzero" cx="206.525249" cy="44" r="29"></circle>
        <circle id="Oval" fill="#E3E5FF" fill-rule="nonzero" cx="208.5" cy="40.5" r="18.5"></circle>
        <circle id="Oval-Copy" fill="#E3E5FF" fill-rule="nonzero" cx="214" cy="57" r="11"></circle>
    </g>
</svg>