<?xml version="1.0" encoding="UTF-8"?>
<svg width="251px" height="250px" viewBox="0 0 251 250" version="1.1" xmlns="http://www.w3.org/2000/svg" xmlns:xlink="http://www.w3.org/1999/xlink">
    <!-- Generator: Sketch 57.1 (83088) - https://sketch.com -->
    <title>Avatar</title>
    <desc>Created with Sketch.</desc>
    <defs>
        <circle id="path-1" cx="125" cy="125" r="125"></circle>
    </defs>
    <g id="Avatar" stroke="none" stroke-width="1" fill="none" fill-rule="evenodd" transform="translate(0.000000, 0.000000)">
        <g id="avatar">
            <mask id="mask-2" fill="white">
                <use xlink:href="#path-1"></use>
            </mask>
            <use id="Oval" fill="#F1F2FF" fill-rule="nonzero" xlink:href="#path-1"></use>
            <g id="rock-1" mask="url(#mask-2)" fill="#E3E5FF" fill-rule="nonzero">
                <g transform="translate(-80.442109, 147.435897)" id="Path">
                    <path d="M0.0126222575,108.896576 C0.0126222575,84.6022682 38.5427574,0 104.270635,0 C168.479972,0 183.234747,26.9130109 236.519658,26.9130109 C276.319021,26.9130109 273.599247,8.97100362 310.950813,8.97100362 C387.263145,8.97100362 416.954014,78.1981125 416.954014,108.974359 L0.0126222575,108.896576 Z"></path>
                </g>
            </g>
            <g id="plant-1" mask="url(#mask-2)">
                <g transform="translate(169.871795, 52.884615)" id="Path">
                    <path d="M3.39989623,62.1750569 C-16.6270008,81.562943 57.8996415,151.62101 68.7389918,142.006363 C79.5783421,132.391716 22.9869639,43.2431232 3.39989623,62.1750569 Z" stroke="none" fill="#FFBFB9" fill-rule="nonzero"></path>
                    <path d="M11.9047619,71.4537756 C20.306573,78.8296782 58.798591,121.39974 68.7830688,141.584333" stroke="#FF6E61" stroke-width="2" fill="none" stroke-linecap="round"></path>
                    <path d="M41.3555246,0.515929029 C79.9110905,-9.86434851 94.1204894,139.781364 74.6535133,144.132792 C55.1865373,148.48422 19.2298874,6.47570815 41.3555246,0.515929029 Z" stroke="none" fill="#FFE4E1" fill-rule="nonzero"></path>
                    <path d="M51.5873016,25.1411433 C54.6360821,34.0953481 71.7286101,97.1764479 75.3968254,142.907551" stroke="#FF6E61" stroke-width="2" fill="none" stroke-linecap="round"></path>
                </g>
            </g>
            <g id="skating" mask="url(#mask-2)">
                <g transform="translate(-71.000000, 23.000000)">
                    <path d="M132.769634,115.963351 C143.693717,103.358639 239.170209,95.4428796 250.413613,104.198953 C273.102094,121.84555 257.136126,300.832461 255.455497,307.554974 C253.774869,310.91623 242.010471,304.193717 242.010471,304.193717 C240.329843,305.874346 156.298429,309.235602 124.366492,292.429319 C124.366492,284.026178 129.408377,248.732984 129.408377,248.732984 C122.685864,248.732984 104.198953,243.691099 100.837696,238.649215 C97.4764398,233.60733 119.912827,130.769686 132.769634,115.963351 Z" id="Path" stroke="none" fill="#C7CAFD" fill-rule="nonzero"></path>
                    <path d="M214.700262,235.792147 C161.340314,224.279843 135.946021,230.481361 152.937173,179.726387" id="Path" stroke="#1A49F5" stroke-width="1" fill="none" stroke-linecap="round"></path>
                    <path d="M244.783508,172.113141 C244.497801,176.902932 241.119738,304.36178 241.119738,304.36178" id="Path" stroke="#1A49F5" stroke-width="1" fill="none" stroke-linecap="round"></path>
                    <path d="M215.074188,78.0441885 L191.990776,78.0441885 L191.990773,106.822544 C191.984762,108.482604 197.047408,109.738988 203.523568,109.705105 C209.933348,109.671569 215.074188,108.379039 215.074188,106.820733 L215.074188,78.0441885 Z" id="Path" stroke="#1A49F5" stroke-width="1" fill="#FFF3EE" fill-rule="nonzero"></path>
                    <path d="M192.45,96.7665871 C192.45,94.1616133 200.365759,83.0190478 204.953874,84.5484196 C199.290157,82.5316656 194.584398,77.8259065 192.500419,79.2712468 L192.45,96.7665871 Z" id="Path" stroke="none" fill="#E9EAFF" fill-rule="nonzero"></path>
                    <circle id="Oval" stroke="#1A49F5" stroke-width="1" fill="#FFF3EE" fill-rule="nonzero" cx="214.868325" cy="57.8304188" r="30.7764921"></circle>
                    <ellipse id="Oval" stroke="none" fill="#FFC4C0" fill-rule="nonzero" transform="translate(243.730376, 66.766829) rotate(-84.070000) translate(-243.730376, -66.766829) " cx="243.730376" cy="66.7668293" rx="2.7226178" ry="5.22675393"></ellipse>
                    <ellipse id="Oval" stroke="none" fill="#FFC4C0" fill-rule="nonzero" transform="translate(211.085008, 64.350854) rotate(-84.070000) translate(-211.085008, -64.350854) " cx="211.085008" cy="64.3508538" rx="2.7226178" ry="5.22675393"></ellipse>
                    <path d="M231.640995,60.8387435 C232.464503,62.3176963 236.850942,68.6536649 231.338482,70.4687435" id="Path" stroke="#1A49F5" stroke-width="0.69" fill="none" stroke-linecap="round"></path>
                    <path d="M220.162304,76.1660733 C218.616126,75.9643979 216.397696,73.8131937 215.305288,71.9476963" id="Path" stroke="#1A49F5" stroke-width="0.69" fill="none" stroke-linecap="round"></path>
                    <circle id="Oval" stroke="none" fill="#FFF3EE" fill-rule="nonzero" cx="189.591675" cy="53.9481675" r="6.89057592"></circle>
                    <path d="M194.247016,60.0152356 C194.247016,69.191466 184.163246,75.1408901 180.701152,75.1408901 C179.613431,75.2726022 178.522056,74.9260489 177.70958,74.1909518 C176.897104,73.4558546 176.443414,72.4044918 176.465969,71.3090576 C176.465969,67.4604188 178.71801,64.1831937 183.474188,60.0152356 C182.600262,58.5867016 176.465969,51.0574869 176.465969,40.3350785 C176.465969,29.0916754 183.373351,19.6633508 187.995079,19.6633508 C192.057306,19.9335697 195.426417,22.9091571 196.196545,26.9068586 C196.196545,11.1929843 213.002827,0.0168062827 223.086597,0.0168062827 C232.414084,0.0168062827 234.027487,4.0839267 234.027487,7.37795812 C234.027487,14.621466 228.313351,22.3691623 226.178953,24.2682723 C231.405707,20.4196335 239.623979,16.5373822 246.615393,16.5373822 C251.069058,16.5373822 256.699162,17.7978534 256.699162,23.898534 C256.699162,35.1083246 246.195236,41.5955497 242.682723,43.4106283 C241.34595,40.7996282 239.64871,38.3895463 237.640838,36.2511518 C238.296283,38.3687435 235.708115,42.2173822 230.750262,43.0745026 C227.893194,43.5450785 194.247016,39.0073822 194.247016,60.0152356 Z" id="Path" stroke="none" fill="#0004C1" fill-rule="nonzero"></path>
                </g>
            </g>
        </g>
        <circle id="Oval" fill="#F1F2FF" fill-rule="nonzero" cx="39.5" cy="41.5" r="24.5"></circle>
        <circle id="Oval" fill="#E3E5FF" fill-rule="nonzero" cx="39.5" cy="41.5" r="18.5"></circle>
        <circle id="Oval-Copy" fill="#E3E5FF" fill-rule="nonzero" cx="66" cy="29" r="6"></circle>
    </g>
</svg>